%TF.GenerationSoftware,KiCad,Pcbnew,5.1.5+dfsg1-2build2*%
%TF.CreationDate,2022-05-20T22:28:17-07:00*%
%TF.ProjectId,v1.0-RubberNugget,76312e30-2d52-4756-9262-65724e756767,rev?*%
%TF.SameCoordinates,Original*%
%TF.FileFunction,Paste,Bot*%
%TF.FilePolarity,Positive*%
%FSLAX46Y46*%
G04 Gerber Fmt 4.6, Leading zero omitted, Abs format (unit mm)*
G04 Created by KiCad (PCBNEW 5.1.5+dfsg1-2build2) date 2022-05-20 22:28:17*
%MOMM*%
%LPD*%
G04 APERTURE LIST*
%TA.AperFunction,Profile*%
%ADD10C,0.200000*%
%TD*%
%ADD11R,0.400000X2.000000*%
%ADD12C,0.150000*%
%ADD13R,1.200000X1.200000*%
%ADD14R,1.800000X1.800000*%
%ADD15R,0.800000X1.800000*%
%ADD16R,0.800000X0.400000*%
%ADD17R,0.400000X1.800000*%
%ADD18R,1.800000X0.400000*%
%ADD19R,2.400000X0.740000*%
%ADD20R,1.000000X1.000000*%
%ADD21R,1.160000X0.600000*%
%ADD22R,1.160000X0.300000*%
%ADD23R,1.060000X0.650000*%
%ADD24R,1.000000X1.450000*%
G04 APERTURE END LIST*
D10*
X-19000000Y-17000000D02*
X-19000000Y17000000D01*
X-11000000Y-23000000D02*
X-19000000Y-17000000D01*
X11000000Y-23000000D02*
X-11000000Y-23000000D01*
X19000000Y-17000000D02*
X11000000Y-23000000D01*
X19000000Y17000000D02*
X19000000Y-17000000D01*
X12500000Y27000000D02*
X19000000Y17000000D01*
X6000000Y17000000D02*
X12500000Y27000000D01*
X-6000000Y17000000D02*
X6000000Y17000000D01*
X-12500000Y27000000D02*
X-6000000Y17000000D01*
X-19000000Y17000000D02*
X-12500000Y27000000D01*
D11*
%TO.C,U2*%
X10150000Y10160000D03*
X9450000Y10160000D03*
X8750000Y10160000D03*
X8050000Y10160000D03*
X7350000Y10160000D03*
X6650000Y10160000D03*
X5950000Y10160000D03*
X5250000Y10160000D03*
X4550000Y10160000D03*
X3850000Y10160000D03*
X3150000Y10160000D03*
X2450000Y10160000D03*
X1750000Y10160000D03*
X1050000Y10160000D03*
X350000Y10160000D03*
X-350000Y10160000D03*
X-1050000Y10160000D03*
X-1750000Y10160000D03*
X-2450000Y10160000D03*
X-3150000Y10160000D03*
X-3850000Y10160000D03*
X-4550000Y10160000D03*
X-5250000Y10160000D03*
X-5950000Y10160000D03*
X-6650000Y10160000D03*
X-7350000Y10160000D03*
X-8050000Y10160000D03*
X-8750000Y10160000D03*
X-9450000Y10160000D03*
X-10150000Y10160000D03*
%TD*%
D12*
%TO.C,C2*%
G36*
X2292779Y3102856D02*
G01*
X2315834Y3099437D01*
X2338443Y3093773D01*
X2360387Y3085921D01*
X2381457Y3075956D01*
X2401448Y3063974D01*
X2420168Y3050090D01*
X2437438Y3034438D01*
X2453090Y3017168D01*
X2466974Y2998448D01*
X2478956Y2978457D01*
X2488921Y2957387D01*
X2496773Y2935443D01*
X2502437Y2912834D01*
X2505856Y2889779D01*
X2507000Y2866500D01*
X2507000Y2266500D01*
X2505856Y2243221D01*
X2502437Y2220166D01*
X2496773Y2197557D01*
X2488921Y2175613D01*
X2478956Y2154543D01*
X2466974Y2134552D01*
X2453090Y2115832D01*
X2437438Y2098562D01*
X2420168Y2082910D01*
X2401448Y2069026D01*
X2381457Y2057044D01*
X2360387Y2047079D01*
X2338443Y2039227D01*
X2315834Y2033563D01*
X2292779Y2030144D01*
X2269500Y2029000D01*
X1794500Y2029000D01*
X1771221Y2030144D01*
X1748166Y2033563D01*
X1725557Y2039227D01*
X1703613Y2047079D01*
X1682543Y2057044D01*
X1662552Y2069026D01*
X1643832Y2082910D01*
X1626562Y2098562D01*
X1610910Y2115832D01*
X1597026Y2134552D01*
X1585044Y2154543D01*
X1575079Y2175613D01*
X1567227Y2197557D01*
X1561563Y2220166D01*
X1558144Y2243221D01*
X1557000Y2266500D01*
X1557000Y2866500D01*
X1558144Y2889779D01*
X1561563Y2912834D01*
X1567227Y2935443D01*
X1575079Y2957387D01*
X1585044Y2978457D01*
X1597026Y2998448D01*
X1610910Y3017168D01*
X1626562Y3034438D01*
X1643832Y3050090D01*
X1662552Y3063974D01*
X1682543Y3075956D01*
X1703613Y3085921D01*
X1725557Y3093773D01*
X1748166Y3099437D01*
X1771221Y3102856D01*
X1794500Y3104000D01*
X2269500Y3104000D01*
X2292779Y3102856D01*
G37*
G36*
X2292779Y4827856D02*
G01*
X2315834Y4824437D01*
X2338443Y4818773D01*
X2360387Y4810921D01*
X2381457Y4800956D01*
X2401448Y4788974D01*
X2420168Y4775090D01*
X2437438Y4759438D01*
X2453090Y4742168D01*
X2466974Y4723448D01*
X2478956Y4703457D01*
X2488921Y4682387D01*
X2496773Y4660443D01*
X2502437Y4637834D01*
X2505856Y4614779D01*
X2507000Y4591500D01*
X2507000Y3991500D01*
X2505856Y3968221D01*
X2502437Y3945166D01*
X2496773Y3922557D01*
X2488921Y3900613D01*
X2478956Y3879543D01*
X2466974Y3859552D01*
X2453090Y3840832D01*
X2437438Y3823562D01*
X2420168Y3807910D01*
X2401448Y3794026D01*
X2381457Y3782044D01*
X2360387Y3772079D01*
X2338443Y3764227D01*
X2315834Y3758563D01*
X2292779Y3755144D01*
X2269500Y3754000D01*
X1794500Y3754000D01*
X1771221Y3755144D01*
X1748166Y3758563D01*
X1725557Y3764227D01*
X1703613Y3772079D01*
X1682543Y3782044D01*
X1662552Y3794026D01*
X1643832Y3807910D01*
X1626562Y3823562D01*
X1610910Y3840832D01*
X1597026Y3859552D01*
X1585044Y3879543D01*
X1575079Y3900613D01*
X1567227Y3922557D01*
X1561563Y3945166D01*
X1558144Y3968221D01*
X1557000Y3991500D01*
X1557000Y4591500D01*
X1558144Y4614779D01*
X1561563Y4637834D01*
X1567227Y4660443D01*
X1575079Y4682387D01*
X1585044Y4703457D01*
X1597026Y4723448D01*
X1610910Y4742168D01*
X1626562Y4759438D01*
X1643832Y4775090D01*
X1662552Y4788974D01*
X1682543Y4800956D01*
X1703613Y4810921D01*
X1725557Y4818773D01*
X1748166Y4824437D01*
X1771221Y4827856D01*
X1794500Y4829000D01*
X2269500Y4829000D01*
X2292779Y4827856D01*
G37*
%TD*%
%TO.C,J3*%
G36*
X-9545495Y-21042204D02*
G01*
X-9521227Y-21045804D01*
X-9497428Y-21051765D01*
X-9474329Y-21060030D01*
X-9452150Y-21070520D01*
X-9431107Y-21083132D01*
X-9411401Y-21097747D01*
X-9393223Y-21114223D01*
X-9376747Y-21132401D01*
X-9362132Y-21152107D01*
X-9349520Y-21173150D01*
X-9339030Y-21195329D01*
X-9330765Y-21218428D01*
X-9324804Y-21242227D01*
X-9321204Y-21266495D01*
X-9320000Y-21290999D01*
X-9320000Y-22591001D01*
X-9321204Y-22615505D01*
X-9324804Y-22639773D01*
X-9330765Y-22663572D01*
X-9339030Y-22686671D01*
X-9349520Y-22708850D01*
X-9362132Y-22729893D01*
X-9376747Y-22749599D01*
X-9393223Y-22767777D01*
X-9411401Y-22784253D01*
X-9431107Y-22798868D01*
X-9452150Y-22811480D01*
X-9474329Y-22821970D01*
X-9497428Y-22830235D01*
X-9521227Y-22836196D01*
X-9545495Y-22839796D01*
X-9569999Y-22841000D01*
X-10270001Y-22841000D01*
X-10294505Y-22839796D01*
X-10318773Y-22836196D01*
X-10342572Y-22830235D01*
X-10365671Y-22821970D01*
X-10387850Y-22811480D01*
X-10408893Y-22798868D01*
X-10428599Y-22784253D01*
X-10446777Y-22767777D01*
X-10463253Y-22749599D01*
X-10477868Y-22729893D01*
X-10490480Y-22708850D01*
X-10500970Y-22686671D01*
X-10509235Y-22663572D01*
X-10515196Y-22639773D01*
X-10518796Y-22615505D01*
X-10520000Y-22591001D01*
X-10520000Y-21290999D01*
X-10518796Y-21266495D01*
X-10515196Y-21242227D01*
X-10509235Y-21218428D01*
X-10500970Y-21195329D01*
X-10490480Y-21173150D01*
X-10477868Y-21152107D01*
X-10463253Y-21132401D01*
X-10446777Y-21114223D01*
X-10428599Y-21097747D01*
X-10408893Y-21083132D01*
X-10387850Y-21070520D01*
X-10365671Y-21060030D01*
X-10342572Y-21051765D01*
X-10318773Y-21045804D01*
X-10294505Y-21042204D01*
X-10270001Y-21041000D01*
X-9569999Y-21041000D01*
X-9545495Y-21042204D01*
G37*
G36*
X-4945495Y-21042204D02*
G01*
X-4921227Y-21045804D01*
X-4897428Y-21051765D01*
X-4874329Y-21060030D01*
X-4852150Y-21070520D01*
X-4831107Y-21083132D01*
X-4811401Y-21097747D01*
X-4793223Y-21114223D01*
X-4776747Y-21132401D01*
X-4762132Y-21152107D01*
X-4749520Y-21173150D01*
X-4739030Y-21195329D01*
X-4730765Y-21218428D01*
X-4724804Y-21242227D01*
X-4721204Y-21266495D01*
X-4720000Y-21290999D01*
X-4720000Y-22591001D01*
X-4721204Y-22615505D01*
X-4724804Y-22639773D01*
X-4730765Y-22663572D01*
X-4739030Y-22686671D01*
X-4749520Y-22708850D01*
X-4762132Y-22729893D01*
X-4776747Y-22749599D01*
X-4793223Y-22767777D01*
X-4811401Y-22784253D01*
X-4831107Y-22798868D01*
X-4852150Y-22811480D01*
X-4874329Y-22821970D01*
X-4897428Y-22830235D01*
X-4921227Y-22836196D01*
X-4945495Y-22839796D01*
X-4969999Y-22841000D01*
X-5670001Y-22841000D01*
X-5694505Y-22839796D01*
X-5718773Y-22836196D01*
X-5742572Y-22830235D01*
X-5765671Y-22821970D01*
X-5787850Y-22811480D01*
X-5808893Y-22798868D01*
X-5828599Y-22784253D01*
X-5846777Y-22767777D01*
X-5863253Y-22749599D01*
X-5877868Y-22729893D01*
X-5890480Y-22708850D01*
X-5900970Y-22686671D01*
X-5909235Y-22663572D01*
X-5915196Y-22639773D01*
X-5918796Y-22615505D01*
X-5920000Y-22591001D01*
X-5920000Y-21290999D01*
X-5918796Y-21266495D01*
X-5915196Y-21242227D01*
X-5909235Y-21218428D01*
X-5900970Y-21195329D01*
X-5890480Y-21173150D01*
X-5877868Y-21152107D01*
X-5863253Y-21132401D01*
X-5846777Y-21114223D01*
X-5828599Y-21097747D01*
X-5808893Y-21083132D01*
X-5787850Y-21070520D01*
X-5765671Y-21060030D01*
X-5742572Y-21051765D01*
X-5718773Y-21045804D01*
X-5694505Y-21042204D01*
X-5670001Y-21041000D01*
X-4969999Y-21041000D01*
X-4945495Y-21042204D01*
G37*
G36*
X-8455297Y-17291722D02*
G01*
X-8440736Y-17293882D01*
X-8426457Y-17297459D01*
X-8412597Y-17302418D01*
X-8399290Y-17308712D01*
X-8386664Y-17316280D01*
X-8374841Y-17325048D01*
X-8363934Y-17334934D01*
X-8354048Y-17345841D01*
X-8345280Y-17357664D01*
X-8337712Y-17370290D01*
X-8331418Y-17383597D01*
X-8326459Y-17397457D01*
X-8322882Y-17411736D01*
X-8320722Y-17426297D01*
X-8320000Y-17441000D01*
X-8320000Y-18691000D01*
X-8320722Y-18705703D01*
X-8322882Y-18720264D01*
X-8326459Y-18734543D01*
X-8331418Y-18748403D01*
X-8337712Y-18761710D01*
X-8345280Y-18774336D01*
X-8354048Y-18786159D01*
X-8363934Y-18797066D01*
X-8374841Y-18806952D01*
X-8386664Y-18815720D01*
X-8399290Y-18823288D01*
X-8412597Y-18829582D01*
X-8426457Y-18834541D01*
X-8440736Y-18838118D01*
X-8455297Y-18840278D01*
X-8470000Y-18841000D01*
X-8770000Y-18841000D01*
X-8784703Y-18840278D01*
X-8799264Y-18838118D01*
X-8813543Y-18834541D01*
X-8827403Y-18829582D01*
X-8840710Y-18823288D01*
X-8853336Y-18815720D01*
X-8865159Y-18806952D01*
X-8876066Y-18797066D01*
X-8885952Y-18786159D01*
X-8894720Y-18774336D01*
X-8902288Y-18761710D01*
X-8908582Y-18748403D01*
X-8913541Y-18734543D01*
X-8917118Y-18720264D01*
X-8919278Y-18705703D01*
X-8920000Y-18691000D01*
X-8920000Y-17441000D01*
X-8919278Y-17426297D01*
X-8917118Y-17411736D01*
X-8913541Y-17397457D01*
X-8908582Y-17383597D01*
X-8902288Y-17370290D01*
X-8894720Y-17357664D01*
X-8885952Y-17345841D01*
X-8876066Y-17334934D01*
X-8865159Y-17325048D01*
X-8853336Y-17316280D01*
X-8840710Y-17308712D01*
X-8827403Y-17302418D01*
X-8813543Y-17297459D01*
X-8799264Y-17293882D01*
X-8784703Y-17291722D01*
X-8770000Y-17291000D01*
X-8470000Y-17291000D01*
X-8455297Y-17291722D01*
G37*
G36*
X-7455297Y-17291722D02*
G01*
X-7440736Y-17293882D01*
X-7426457Y-17297459D01*
X-7412597Y-17302418D01*
X-7399290Y-17308712D01*
X-7386664Y-17316280D01*
X-7374841Y-17325048D01*
X-7363934Y-17334934D01*
X-7354048Y-17345841D01*
X-7345280Y-17357664D01*
X-7337712Y-17370290D01*
X-7331418Y-17383597D01*
X-7326459Y-17397457D01*
X-7322882Y-17411736D01*
X-7320722Y-17426297D01*
X-7320000Y-17441000D01*
X-7320000Y-18691000D01*
X-7320722Y-18705703D01*
X-7322882Y-18720264D01*
X-7326459Y-18734543D01*
X-7331418Y-18748403D01*
X-7337712Y-18761710D01*
X-7345280Y-18774336D01*
X-7354048Y-18786159D01*
X-7363934Y-18797066D01*
X-7374841Y-18806952D01*
X-7386664Y-18815720D01*
X-7399290Y-18823288D01*
X-7412597Y-18829582D01*
X-7426457Y-18834541D01*
X-7440736Y-18838118D01*
X-7455297Y-18840278D01*
X-7470000Y-18841000D01*
X-7770000Y-18841000D01*
X-7784703Y-18840278D01*
X-7799264Y-18838118D01*
X-7813543Y-18834541D01*
X-7827403Y-18829582D01*
X-7840710Y-18823288D01*
X-7853336Y-18815720D01*
X-7865159Y-18806952D01*
X-7876066Y-18797066D01*
X-7885952Y-18786159D01*
X-7894720Y-18774336D01*
X-7902288Y-18761710D01*
X-7908582Y-18748403D01*
X-7913541Y-18734543D01*
X-7917118Y-18720264D01*
X-7919278Y-18705703D01*
X-7920000Y-18691000D01*
X-7920000Y-17441000D01*
X-7919278Y-17426297D01*
X-7917118Y-17411736D01*
X-7913541Y-17397457D01*
X-7908582Y-17383597D01*
X-7902288Y-17370290D01*
X-7894720Y-17357664D01*
X-7885952Y-17345841D01*
X-7876066Y-17334934D01*
X-7865159Y-17325048D01*
X-7853336Y-17316280D01*
X-7840710Y-17308712D01*
X-7827403Y-17302418D01*
X-7813543Y-17297459D01*
X-7799264Y-17293882D01*
X-7784703Y-17291722D01*
X-7770000Y-17291000D01*
X-7470000Y-17291000D01*
X-7455297Y-17291722D01*
G37*
G36*
X-6455297Y-17291722D02*
G01*
X-6440736Y-17293882D01*
X-6426457Y-17297459D01*
X-6412597Y-17302418D01*
X-6399290Y-17308712D01*
X-6386664Y-17316280D01*
X-6374841Y-17325048D01*
X-6363934Y-17334934D01*
X-6354048Y-17345841D01*
X-6345280Y-17357664D01*
X-6337712Y-17370290D01*
X-6331418Y-17383597D01*
X-6326459Y-17397457D01*
X-6322882Y-17411736D01*
X-6320722Y-17426297D01*
X-6320000Y-17441000D01*
X-6320000Y-18691000D01*
X-6320722Y-18705703D01*
X-6322882Y-18720264D01*
X-6326459Y-18734543D01*
X-6331418Y-18748403D01*
X-6337712Y-18761710D01*
X-6345280Y-18774336D01*
X-6354048Y-18786159D01*
X-6363934Y-18797066D01*
X-6374841Y-18806952D01*
X-6386664Y-18815720D01*
X-6399290Y-18823288D01*
X-6412597Y-18829582D01*
X-6426457Y-18834541D01*
X-6440736Y-18838118D01*
X-6455297Y-18840278D01*
X-6470000Y-18841000D01*
X-6770000Y-18841000D01*
X-6784703Y-18840278D01*
X-6799264Y-18838118D01*
X-6813543Y-18834541D01*
X-6827403Y-18829582D01*
X-6840710Y-18823288D01*
X-6853336Y-18815720D01*
X-6865159Y-18806952D01*
X-6876066Y-18797066D01*
X-6885952Y-18786159D01*
X-6894720Y-18774336D01*
X-6902288Y-18761710D01*
X-6908582Y-18748403D01*
X-6913541Y-18734543D01*
X-6917118Y-18720264D01*
X-6919278Y-18705703D01*
X-6920000Y-18691000D01*
X-6920000Y-17441000D01*
X-6919278Y-17426297D01*
X-6917118Y-17411736D01*
X-6913541Y-17397457D01*
X-6908582Y-17383597D01*
X-6902288Y-17370290D01*
X-6894720Y-17357664D01*
X-6885952Y-17345841D01*
X-6876066Y-17334934D01*
X-6865159Y-17325048D01*
X-6853336Y-17316280D01*
X-6840710Y-17308712D01*
X-6827403Y-17302418D01*
X-6813543Y-17297459D01*
X-6799264Y-17293882D01*
X-6784703Y-17291722D01*
X-6770000Y-17291000D01*
X-6470000Y-17291000D01*
X-6455297Y-17291722D01*
G37*
%TD*%
D13*
%TO.C,U1*%
X-3049000Y-5462000D03*
X-3049000Y-8762000D03*
X-6349000Y-8762000D03*
D12*
G36*
X-6949000Y-6062000D02*
G01*
X-6949000Y-5462000D01*
X-6349000Y-4862000D01*
X-5749000Y-4862000D01*
X-5749000Y-6062000D01*
X-6949000Y-6062000D01*
G37*
D13*
X-3049000Y-7112000D03*
X-4699000Y-5462000D03*
X-6349000Y-7112000D03*
X-4699000Y-8762000D03*
D14*
X2801000Y-14612000D03*
X2801000Y388000D03*
D15*
X-11699000Y-14612000D03*
X-11699000Y388000D03*
D16*
X-11699000Y-1162000D03*
X-11699000Y-2012000D03*
X-11699000Y-2862000D03*
X-11699000Y-3712000D03*
X-11699000Y-4562000D03*
X-11699000Y-5412000D03*
X-11699000Y-6262000D03*
X-11699000Y-7112000D03*
X-11699000Y-7962000D03*
X-11699000Y-8812000D03*
X-11699000Y-9662000D03*
X-11699000Y-10512000D03*
X-11699000Y-11362000D03*
X-11699000Y-12212000D03*
X-11699000Y-13062000D03*
D17*
X-10649000Y-14612000D03*
X-9799000Y-14620000D03*
X-8949000Y-14620000D03*
X-8099000Y-14620000D03*
X-7249000Y-14620000D03*
X-6399000Y-14620000D03*
X-5549000Y-14620000D03*
X-4699000Y-14620000D03*
X-3849000Y-14620000D03*
X-2999000Y-14620000D03*
X-2149000Y-14620000D03*
X-1299000Y-14620000D03*
X-449000Y-14620000D03*
X401000Y-14620000D03*
X1251000Y-14620000D03*
D18*
X2801000Y-13062000D03*
X2801000Y-12212000D03*
X2801000Y-11362000D03*
X2801000Y-10512000D03*
X2801000Y-9662000D03*
X2801000Y-8812000D03*
X2801000Y-7962000D03*
X2801000Y-7112000D03*
X2801000Y-6262000D03*
X2801000Y-5412000D03*
X2801000Y-4562000D03*
X2801000Y-3712000D03*
X2801000Y-2862000D03*
X2801000Y-2012000D03*
X2801000Y-1162000D03*
D17*
X1251000Y396000D03*
X401000Y396000D03*
X-449000Y396000D03*
X-1299000Y396000D03*
X-2149000Y396000D03*
X-2999000Y396000D03*
X-3849000Y396000D03*
X-4699000Y396000D03*
X-5549000Y396000D03*
X-6399000Y396000D03*
X-7249000Y396000D03*
X-8099000Y396000D03*
X-8949000Y396000D03*
X-9799000Y396000D03*
X-10649000Y388000D03*
%TD*%
D19*
%TO.C,J6*%
X6050000Y-3540000D03*
X9950000Y-3540000D03*
X6050000Y-2270000D03*
X9950000Y-2270000D03*
X6050000Y-1000000D03*
X9950000Y-1000000D03*
X6050000Y270000D03*
X9950000Y270000D03*
X6050000Y1540000D03*
X9950000Y1540000D03*
%TD*%
D12*
%TO.C,J5*%
G36*
X4686505Y-21042204D02*
G01*
X4710773Y-21045804D01*
X4734572Y-21051765D01*
X4757671Y-21060030D01*
X4779850Y-21070520D01*
X4800893Y-21083132D01*
X4820599Y-21097747D01*
X4838777Y-21114223D01*
X4855253Y-21132401D01*
X4869868Y-21152107D01*
X4882480Y-21173150D01*
X4892970Y-21195329D01*
X4901235Y-21218428D01*
X4907196Y-21242227D01*
X4910796Y-21266495D01*
X4912000Y-21290999D01*
X4912000Y-22591001D01*
X4910796Y-22615505D01*
X4907196Y-22639773D01*
X4901235Y-22663572D01*
X4892970Y-22686671D01*
X4882480Y-22708850D01*
X4869868Y-22729893D01*
X4855253Y-22749599D01*
X4838777Y-22767777D01*
X4820599Y-22784253D01*
X4800893Y-22798868D01*
X4779850Y-22811480D01*
X4757671Y-22821970D01*
X4734572Y-22830235D01*
X4710773Y-22836196D01*
X4686505Y-22839796D01*
X4662001Y-22841000D01*
X3961999Y-22841000D01*
X3937495Y-22839796D01*
X3913227Y-22836196D01*
X3889428Y-22830235D01*
X3866329Y-22821970D01*
X3844150Y-22811480D01*
X3823107Y-22798868D01*
X3803401Y-22784253D01*
X3785223Y-22767777D01*
X3768747Y-22749599D01*
X3754132Y-22729893D01*
X3741520Y-22708850D01*
X3731030Y-22686671D01*
X3722765Y-22663572D01*
X3716804Y-22639773D01*
X3713204Y-22615505D01*
X3712000Y-22591001D01*
X3712000Y-21290999D01*
X3713204Y-21266495D01*
X3716804Y-21242227D01*
X3722765Y-21218428D01*
X3731030Y-21195329D01*
X3741520Y-21173150D01*
X3754132Y-21152107D01*
X3768747Y-21132401D01*
X3785223Y-21114223D01*
X3803401Y-21097747D01*
X3823107Y-21083132D01*
X3844150Y-21070520D01*
X3866329Y-21060030D01*
X3889428Y-21051765D01*
X3913227Y-21045804D01*
X3937495Y-21042204D01*
X3961999Y-21041000D01*
X4662001Y-21041000D01*
X4686505Y-21042204D01*
G37*
G36*
X10286505Y-21042204D02*
G01*
X10310773Y-21045804D01*
X10334572Y-21051765D01*
X10357671Y-21060030D01*
X10379850Y-21070520D01*
X10400893Y-21083132D01*
X10420599Y-21097747D01*
X10438777Y-21114223D01*
X10455253Y-21132401D01*
X10469868Y-21152107D01*
X10482480Y-21173150D01*
X10492970Y-21195329D01*
X10501235Y-21218428D01*
X10507196Y-21242227D01*
X10510796Y-21266495D01*
X10512000Y-21290999D01*
X10512000Y-22591001D01*
X10510796Y-22615505D01*
X10507196Y-22639773D01*
X10501235Y-22663572D01*
X10492970Y-22686671D01*
X10482480Y-22708850D01*
X10469868Y-22729893D01*
X10455253Y-22749599D01*
X10438777Y-22767777D01*
X10420599Y-22784253D01*
X10400893Y-22798868D01*
X10379850Y-22811480D01*
X10357671Y-22821970D01*
X10334572Y-22830235D01*
X10310773Y-22836196D01*
X10286505Y-22839796D01*
X10262001Y-22841000D01*
X9561999Y-22841000D01*
X9537495Y-22839796D01*
X9513227Y-22836196D01*
X9489428Y-22830235D01*
X9466329Y-22821970D01*
X9444150Y-22811480D01*
X9423107Y-22798868D01*
X9403401Y-22784253D01*
X9385223Y-22767777D01*
X9368747Y-22749599D01*
X9354132Y-22729893D01*
X9341520Y-22708850D01*
X9331030Y-22686671D01*
X9322765Y-22663572D01*
X9316804Y-22639773D01*
X9313204Y-22615505D01*
X9312000Y-22591001D01*
X9312000Y-21290999D01*
X9313204Y-21266495D01*
X9316804Y-21242227D01*
X9322765Y-21218428D01*
X9331030Y-21195329D01*
X9341520Y-21173150D01*
X9354132Y-21152107D01*
X9368747Y-21132401D01*
X9385223Y-21114223D01*
X9403401Y-21097747D01*
X9423107Y-21083132D01*
X9444150Y-21070520D01*
X9466329Y-21060030D01*
X9489428Y-21051765D01*
X9513227Y-21045804D01*
X9537495Y-21042204D01*
X9561999Y-21041000D01*
X10262001Y-21041000D01*
X10286505Y-21042204D01*
G37*
G36*
X5776703Y-17291722D02*
G01*
X5791264Y-17293882D01*
X5805543Y-17297459D01*
X5819403Y-17302418D01*
X5832710Y-17308712D01*
X5845336Y-17316280D01*
X5857159Y-17325048D01*
X5868066Y-17334934D01*
X5877952Y-17345841D01*
X5886720Y-17357664D01*
X5894288Y-17370290D01*
X5900582Y-17383597D01*
X5905541Y-17397457D01*
X5909118Y-17411736D01*
X5911278Y-17426297D01*
X5912000Y-17441000D01*
X5912000Y-18691000D01*
X5911278Y-18705703D01*
X5909118Y-18720264D01*
X5905541Y-18734543D01*
X5900582Y-18748403D01*
X5894288Y-18761710D01*
X5886720Y-18774336D01*
X5877952Y-18786159D01*
X5868066Y-18797066D01*
X5857159Y-18806952D01*
X5845336Y-18815720D01*
X5832710Y-18823288D01*
X5819403Y-18829582D01*
X5805543Y-18834541D01*
X5791264Y-18838118D01*
X5776703Y-18840278D01*
X5762000Y-18841000D01*
X5462000Y-18841000D01*
X5447297Y-18840278D01*
X5432736Y-18838118D01*
X5418457Y-18834541D01*
X5404597Y-18829582D01*
X5391290Y-18823288D01*
X5378664Y-18815720D01*
X5366841Y-18806952D01*
X5355934Y-18797066D01*
X5346048Y-18786159D01*
X5337280Y-18774336D01*
X5329712Y-18761710D01*
X5323418Y-18748403D01*
X5318459Y-18734543D01*
X5314882Y-18720264D01*
X5312722Y-18705703D01*
X5312000Y-18691000D01*
X5312000Y-17441000D01*
X5312722Y-17426297D01*
X5314882Y-17411736D01*
X5318459Y-17397457D01*
X5323418Y-17383597D01*
X5329712Y-17370290D01*
X5337280Y-17357664D01*
X5346048Y-17345841D01*
X5355934Y-17334934D01*
X5366841Y-17325048D01*
X5378664Y-17316280D01*
X5391290Y-17308712D01*
X5404597Y-17302418D01*
X5418457Y-17297459D01*
X5432736Y-17293882D01*
X5447297Y-17291722D01*
X5462000Y-17291000D01*
X5762000Y-17291000D01*
X5776703Y-17291722D01*
G37*
G36*
X6776703Y-17291722D02*
G01*
X6791264Y-17293882D01*
X6805543Y-17297459D01*
X6819403Y-17302418D01*
X6832710Y-17308712D01*
X6845336Y-17316280D01*
X6857159Y-17325048D01*
X6868066Y-17334934D01*
X6877952Y-17345841D01*
X6886720Y-17357664D01*
X6894288Y-17370290D01*
X6900582Y-17383597D01*
X6905541Y-17397457D01*
X6909118Y-17411736D01*
X6911278Y-17426297D01*
X6912000Y-17441000D01*
X6912000Y-18691000D01*
X6911278Y-18705703D01*
X6909118Y-18720264D01*
X6905541Y-18734543D01*
X6900582Y-18748403D01*
X6894288Y-18761710D01*
X6886720Y-18774336D01*
X6877952Y-18786159D01*
X6868066Y-18797066D01*
X6857159Y-18806952D01*
X6845336Y-18815720D01*
X6832710Y-18823288D01*
X6819403Y-18829582D01*
X6805543Y-18834541D01*
X6791264Y-18838118D01*
X6776703Y-18840278D01*
X6762000Y-18841000D01*
X6462000Y-18841000D01*
X6447297Y-18840278D01*
X6432736Y-18838118D01*
X6418457Y-18834541D01*
X6404597Y-18829582D01*
X6391290Y-18823288D01*
X6378664Y-18815720D01*
X6366841Y-18806952D01*
X6355934Y-18797066D01*
X6346048Y-18786159D01*
X6337280Y-18774336D01*
X6329712Y-18761710D01*
X6323418Y-18748403D01*
X6318459Y-18734543D01*
X6314882Y-18720264D01*
X6312722Y-18705703D01*
X6312000Y-18691000D01*
X6312000Y-17441000D01*
X6312722Y-17426297D01*
X6314882Y-17411736D01*
X6318459Y-17397457D01*
X6323418Y-17383597D01*
X6329712Y-17370290D01*
X6337280Y-17357664D01*
X6346048Y-17345841D01*
X6355934Y-17334934D01*
X6366841Y-17325048D01*
X6378664Y-17316280D01*
X6391290Y-17308712D01*
X6404597Y-17302418D01*
X6418457Y-17297459D01*
X6432736Y-17293882D01*
X6447297Y-17291722D01*
X6462000Y-17291000D01*
X6762000Y-17291000D01*
X6776703Y-17291722D01*
G37*
G36*
X7776703Y-17291722D02*
G01*
X7791264Y-17293882D01*
X7805543Y-17297459D01*
X7819403Y-17302418D01*
X7832710Y-17308712D01*
X7845336Y-17316280D01*
X7857159Y-17325048D01*
X7868066Y-17334934D01*
X7877952Y-17345841D01*
X7886720Y-17357664D01*
X7894288Y-17370290D01*
X7900582Y-17383597D01*
X7905541Y-17397457D01*
X7909118Y-17411736D01*
X7911278Y-17426297D01*
X7912000Y-17441000D01*
X7912000Y-18691000D01*
X7911278Y-18705703D01*
X7909118Y-18720264D01*
X7905541Y-18734543D01*
X7900582Y-18748403D01*
X7894288Y-18761710D01*
X7886720Y-18774336D01*
X7877952Y-18786159D01*
X7868066Y-18797066D01*
X7857159Y-18806952D01*
X7845336Y-18815720D01*
X7832710Y-18823288D01*
X7819403Y-18829582D01*
X7805543Y-18834541D01*
X7791264Y-18838118D01*
X7776703Y-18840278D01*
X7762000Y-18841000D01*
X7462000Y-18841000D01*
X7447297Y-18840278D01*
X7432736Y-18838118D01*
X7418457Y-18834541D01*
X7404597Y-18829582D01*
X7391290Y-18823288D01*
X7378664Y-18815720D01*
X7366841Y-18806952D01*
X7355934Y-18797066D01*
X7346048Y-18786159D01*
X7337280Y-18774336D01*
X7329712Y-18761710D01*
X7323418Y-18748403D01*
X7318459Y-18734543D01*
X7314882Y-18720264D01*
X7312722Y-18705703D01*
X7312000Y-18691000D01*
X7312000Y-17441000D01*
X7312722Y-17426297D01*
X7314882Y-17411736D01*
X7318459Y-17397457D01*
X7323418Y-17383597D01*
X7329712Y-17370290D01*
X7337280Y-17357664D01*
X7346048Y-17345841D01*
X7355934Y-17334934D01*
X7366841Y-17325048D01*
X7378664Y-17316280D01*
X7391290Y-17308712D01*
X7404597Y-17302418D01*
X7418457Y-17297459D01*
X7432736Y-17293882D01*
X7447297Y-17291722D01*
X7462000Y-17291000D01*
X7762000Y-17291000D01*
X7776703Y-17291722D01*
G37*
G36*
X8776703Y-17291722D02*
G01*
X8791264Y-17293882D01*
X8805543Y-17297459D01*
X8819403Y-17302418D01*
X8832710Y-17308712D01*
X8845336Y-17316280D01*
X8857159Y-17325048D01*
X8868066Y-17334934D01*
X8877952Y-17345841D01*
X8886720Y-17357664D01*
X8894288Y-17370290D01*
X8900582Y-17383597D01*
X8905541Y-17397457D01*
X8909118Y-17411736D01*
X8911278Y-17426297D01*
X8912000Y-17441000D01*
X8912000Y-18691000D01*
X8911278Y-18705703D01*
X8909118Y-18720264D01*
X8905541Y-18734543D01*
X8900582Y-18748403D01*
X8894288Y-18761710D01*
X8886720Y-18774336D01*
X8877952Y-18786159D01*
X8868066Y-18797066D01*
X8857159Y-18806952D01*
X8845336Y-18815720D01*
X8832710Y-18823288D01*
X8819403Y-18829582D01*
X8805543Y-18834541D01*
X8791264Y-18838118D01*
X8776703Y-18840278D01*
X8762000Y-18841000D01*
X8462000Y-18841000D01*
X8447297Y-18840278D01*
X8432736Y-18838118D01*
X8418457Y-18834541D01*
X8404597Y-18829582D01*
X8391290Y-18823288D01*
X8378664Y-18815720D01*
X8366841Y-18806952D01*
X8355934Y-18797066D01*
X8346048Y-18786159D01*
X8337280Y-18774336D01*
X8329712Y-18761710D01*
X8323418Y-18748403D01*
X8318459Y-18734543D01*
X8314882Y-18720264D01*
X8312722Y-18705703D01*
X8312000Y-18691000D01*
X8312000Y-17441000D01*
X8312722Y-17426297D01*
X8314882Y-17411736D01*
X8318459Y-17397457D01*
X8323418Y-17383597D01*
X8329712Y-17370290D01*
X8337280Y-17357664D01*
X8346048Y-17345841D01*
X8355934Y-17334934D01*
X8366841Y-17325048D01*
X8378664Y-17316280D01*
X8391290Y-17308712D01*
X8404597Y-17302418D01*
X8418457Y-17297459D01*
X8432736Y-17293882D01*
X8447297Y-17291722D01*
X8462000Y-17291000D01*
X8762000Y-17291000D01*
X8776703Y-17291722D01*
G37*
%TD*%
D19*
%TO.C,J4*%
X6050000Y-14945000D03*
X9950000Y-14945000D03*
X6050000Y-13675000D03*
X9950000Y-13675000D03*
X6050000Y-12405000D03*
X9950000Y-12405000D03*
X6050000Y-11135000D03*
X9950000Y-11135000D03*
X6050000Y-9865000D03*
X9950000Y-9865000D03*
X6050000Y-8595000D03*
X9950000Y-8595000D03*
X6050000Y-7325000D03*
X9950000Y-7325000D03*
X6050000Y-6055000D03*
X9950000Y-6055000D03*
%TD*%
D20*
%TO.C,D2*%
X-7346000Y2730500D03*
X-4846000Y2730500D03*
%TD*%
D12*
%TO.C,R5*%
G36*
X-8565721Y3002856D02*
G01*
X-8542666Y2999437D01*
X-8520057Y2993773D01*
X-8498113Y2985921D01*
X-8477043Y2975956D01*
X-8457052Y2963974D01*
X-8438332Y2950090D01*
X-8421062Y2934438D01*
X-8405410Y2917168D01*
X-8391526Y2898448D01*
X-8379544Y2878457D01*
X-8369579Y2857387D01*
X-8361727Y2835443D01*
X-8356063Y2812834D01*
X-8352644Y2789779D01*
X-8351500Y2766500D01*
X-8351500Y2266500D01*
X-8352644Y2243221D01*
X-8356063Y2220166D01*
X-8361727Y2197557D01*
X-8369579Y2175613D01*
X-8379544Y2154543D01*
X-8391526Y2134552D01*
X-8405410Y2115832D01*
X-8421062Y2098562D01*
X-8438332Y2082910D01*
X-8457052Y2069026D01*
X-8477043Y2057044D01*
X-8498113Y2047079D01*
X-8520057Y2039227D01*
X-8542666Y2033563D01*
X-8565721Y2030144D01*
X-8589000Y2029000D01*
X-9064000Y2029000D01*
X-9087279Y2030144D01*
X-9110334Y2033563D01*
X-9132943Y2039227D01*
X-9154887Y2047079D01*
X-9175957Y2057044D01*
X-9195948Y2069026D01*
X-9214668Y2082910D01*
X-9231938Y2098562D01*
X-9247590Y2115832D01*
X-9261474Y2134552D01*
X-9273456Y2154543D01*
X-9283421Y2175613D01*
X-9291273Y2197557D01*
X-9296937Y2220166D01*
X-9300356Y2243221D01*
X-9301500Y2266500D01*
X-9301500Y2766500D01*
X-9300356Y2789779D01*
X-9296937Y2812834D01*
X-9291273Y2835443D01*
X-9283421Y2857387D01*
X-9273456Y2878457D01*
X-9261474Y2898448D01*
X-9247590Y2917168D01*
X-9231938Y2934438D01*
X-9214668Y2950090D01*
X-9195948Y2963974D01*
X-9175957Y2975956D01*
X-9154887Y2985921D01*
X-9132943Y2993773D01*
X-9110334Y2999437D01*
X-9087279Y3002856D01*
X-9064000Y3004000D01*
X-8589000Y3004000D01*
X-8565721Y3002856D01*
G37*
G36*
X-8565721Y4827856D02*
G01*
X-8542666Y4824437D01*
X-8520057Y4818773D01*
X-8498113Y4810921D01*
X-8477043Y4800956D01*
X-8457052Y4788974D01*
X-8438332Y4775090D01*
X-8421062Y4759438D01*
X-8405410Y4742168D01*
X-8391526Y4723448D01*
X-8379544Y4703457D01*
X-8369579Y4682387D01*
X-8361727Y4660443D01*
X-8356063Y4637834D01*
X-8352644Y4614779D01*
X-8351500Y4591500D01*
X-8351500Y4091500D01*
X-8352644Y4068221D01*
X-8356063Y4045166D01*
X-8361727Y4022557D01*
X-8369579Y4000613D01*
X-8379544Y3979543D01*
X-8391526Y3959552D01*
X-8405410Y3940832D01*
X-8421062Y3923562D01*
X-8438332Y3907910D01*
X-8457052Y3894026D01*
X-8477043Y3882044D01*
X-8498113Y3872079D01*
X-8520057Y3864227D01*
X-8542666Y3858563D01*
X-8565721Y3855144D01*
X-8589000Y3854000D01*
X-9064000Y3854000D01*
X-9087279Y3855144D01*
X-9110334Y3858563D01*
X-9132943Y3864227D01*
X-9154887Y3872079D01*
X-9175957Y3882044D01*
X-9195948Y3894026D01*
X-9214668Y3907910D01*
X-9231938Y3923562D01*
X-9247590Y3940832D01*
X-9261474Y3959552D01*
X-9273456Y3979543D01*
X-9283421Y4000613D01*
X-9291273Y4022557D01*
X-9296937Y4045166D01*
X-9300356Y4068221D01*
X-9301500Y4091500D01*
X-9301500Y4591500D01*
X-9300356Y4614779D01*
X-9296937Y4637834D01*
X-9291273Y4660443D01*
X-9283421Y4682387D01*
X-9273456Y4703457D01*
X-9261474Y4723448D01*
X-9247590Y4742168D01*
X-9231938Y4759438D01*
X-9214668Y4775090D01*
X-9195948Y4788974D01*
X-9175957Y4800956D01*
X-9154887Y4810921D01*
X-9132943Y4818773D01*
X-9110334Y4824437D01*
X-9087279Y4827856D01*
X-9064000Y4829000D01*
X-8589000Y4829000D01*
X-8565721Y4827856D01*
G37*
%TD*%
%TO.C,C1*%
G36*
X14294279Y15178356D02*
G01*
X14317334Y15174937D01*
X14339943Y15169273D01*
X14361887Y15161421D01*
X14382957Y15151456D01*
X14402948Y15139474D01*
X14421668Y15125590D01*
X14438938Y15109938D01*
X14454590Y15092668D01*
X14468474Y15073948D01*
X14480456Y15053957D01*
X14490421Y15032887D01*
X14498273Y15010943D01*
X14503937Y14988334D01*
X14507356Y14965279D01*
X14508500Y14942000D01*
X14508500Y14342000D01*
X14507356Y14318721D01*
X14503937Y14295666D01*
X14498273Y14273057D01*
X14490421Y14251113D01*
X14480456Y14230043D01*
X14468474Y14210052D01*
X14454590Y14191332D01*
X14438938Y14174062D01*
X14421668Y14158410D01*
X14402948Y14144526D01*
X14382957Y14132544D01*
X14361887Y14122579D01*
X14339943Y14114727D01*
X14317334Y14109063D01*
X14294279Y14105644D01*
X14271000Y14104500D01*
X13796000Y14104500D01*
X13772721Y14105644D01*
X13749666Y14109063D01*
X13727057Y14114727D01*
X13705113Y14122579D01*
X13684043Y14132544D01*
X13664052Y14144526D01*
X13645332Y14158410D01*
X13628062Y14174062D01*
X13612410Y14191332D01*
X13598526Y14210052D01*
X13586544Y14230043D01*
X13576579Y14251113D01*
X13568727Y14273057D01*
X13563063Y14295666D01*
X13559644Y14318721D01*
X13558500Y14342000D01*
X13558500Y14942000D01*
X13559644Y14965279D01*
X13563063Y14988334D01*
X13568727Y15010943D01*
X13576579Y15032887D01*
X13586544Y15053957D01*
X13598526Y15073948D01*
X13612410Y15092668D01*
X13628062Y15109938D01*
X13645332Y15125590D01*
X13664052Y15139474D01*
X13684043Y15151456D01*
X13705113Y15161421D01*
X13727057Y15169273D01*
X13749666Y15174937D01*
X13772721Y15178356D01*
X13796000Y15179500D01*
X14271000Y15179500D01*
X14294279Y15178356D01*
G37*
G36*
X14294279Y13453356D02*
G01*
X14317334Y13449937D01*
X14339943Y13444273D01*
X14361887Y13436421D01*
X14382957Y13426456D01*
X14402948Y13414474D01*
X14421668Y13400590D01*
X14438938Y13384938D01*
X14454590Y13367668D01*
X14468474Y13348948D01*
X14480456Y13328957D01*
X14490421Y13307887D01*
X14498273Y13285943D01*
X14503937Y13263334D01*
X14507356Y13240279D01*
X14508500Y13217000D01*
X14508500Y12617000D01*
X14507356Y12593721D01*
X14503937Y12570666D01*
X14498273Y12548057D01*
X14490421Y12526113D01*
X14480456Y12505043D01*
X14468474Y12485052D01*
X14454590Y12466332D01*
X14438938Y12449062D01*
X14421668Y12433410D01*
X14402948Y12419526D01*
X14382957Y12407544D01*
X14361887Y12397579D01*
X14339943Y12389727D01*
X14317334Y12384063D01*
X14294279Y12380644D01*
X14271000Y12379500D01*
X13796000Y12379500D01*
X13772721Y12380644D01*
X13749666Y12384063D01*
X13727057Y12389727D01*
X13705113Y12397579D01*
X13684043Y12407544D01*
X13664052Y12419526D01*
X13645332Y12433410D01*
X13628062Y12449062D01*
X13612410Y12466332D01*
X13598526Y12485052D01*
X13586544Y12505043D01*
X13576579Y12526113D01*
X13568727Y12548057D01*
X13563063Y12570666D01*
X13559644Y12593721D01*
X13558500Y12617000D01*
X13558500Y13217000D01*
X13559644Y13240279D01*
X13563063Y13263334D01*
X13568727Y13285943D01*
X13576579Y13307887D01*
X13586544Y13328957D01*
X13598526Y13348948D01*
X13612410Y13367668D01*
X13628062Y13384938D01*
X13645332Y13400590D01*
X13664052Y13414474D01*
X13684043Y13426456D01*
X13705113Y13436421D01*
X13727057Y13444273D01*
X13749666Y13449937D01*
X13772721Y13453356D01*
X13796000Y13454500D01*
X14271000Y13454500D01*
X14294279Y13453356D01*
G37*
%TD*%
%TO.C,R3*%
G36*
X14294279Y11876356D02*
G01*
X14317334Y11872937D01*
X14339943Y11867273D01*
X14361887Y11859421D01*
X14382957Y11849456D01*
X14402948Y11837474D01*
X14421668Y11823590D01*
X14438938Y11807938D01*
X14454590Y11790668D01*
X14468474Y11771948D01*
X14480456Y11751957D01*
X14490421Y11730887D01*
X14498273Y11708943D01*
X14503937Y11686334D01*
X14507356Y11663279D01*
X14508500Y11640000D01*
X14508500Y11140000D01*
X14507356Y11116721D01*
X14503937Y11093666D01*
X14498273Y11071057D01*
X14490421Y11049113D01*
X14480456Y11028043D01*
X14468474Y11008052D01*
X14454590Y10989332D01*
X14438938Y10972062D01*
X14421668Y10956410D01*
X14402948Y10942526D01*
X14382957Y10930544D01*
X14361887Y10920579D01*
X14339943Y10912727D01*
X14317334Y10907063D01*
X14294279Y10903644D01*
X14271000Y10902500D01*
X13796000Y10902500D01*
X13772721Y10903644D01*
X13749666Y10907063D01*
X13727057Y10912727D01*
X13705113Y10920579D01*
X13684043Y10930544D01*
X13664052Y10942526D01*
X13645332Y10956410D01*
X13628062Y10972062D01*
X13612410Y10989332D01*
X13598526Y11008052D01*
X13586544Y11028043D01*
X13576579Y11049113D01*
X13568727Y11071057D01*
X13563063Y11093666D01*
X13559644Y11116721D01*
X13558500Y11140000D01*
X13558500Y11640000D01*
X13559644Y11663279D01*
X13563063Y11686334D01*
X13568727Y11708943D01*
X13576579Y11730887D01*
X13586544Y11751957D01*
X13598526Y11771948D01*
X13612410Y11790668D01*
X13628062Y11807938D01*
X13645332Y11823590D01*
X13664052Y11837474D01*
X13684043Y11849456D01*
X13705113Y11859421D01*
X13727057Y11867273D01*
X13749666Y11872937D01*
X13772721Y11876356D01*
X13796000Y11877500D01*
X14271000Y11877500D01*
X14294279Y11876356D01*
G37*
G36*
X14294279Y10051356D02*
G01*
X14317334Y10047937D01*
X14339943Y10042273D01*
X14361887Y10034421D01*
X14382957Y10024456D01*
X14402948Y10012474D01*
X14421668Y9998590D01*
X14438938Y9982938D01*
X14454590Y9965668D01*
X14468474Y9946948D01*
X14480456Y9926957D01*
X14490421Y9905887D01*
X14498273Y9883943D01*
X14503937Y9861334D01*
X14507356Y9838279D01*
X14508500Y9815000D01*
X14508500Y9315000D01*
X14507356Y9291721D01*
X14503937Y9268666D01*
X14498273Y9246057D01*
X14490421Y9224113D01*
X14480456Y9203043D01*
X14468474Y9183052D01*
X14454590Y9164332D01*
X14438938Y9147062D01*
X14421668Y9131410D01*
X14402948Y9117526D01*
X14382957Y9105544D01*
X14361887Y9095579D01*
X14339943Y9087727D01*
X14317334Y9082063D01*
X14294279Y9078644D01*
X14271000Y9077500D01*
X13796000Y9077500D01*
X13772721Y9078644D01*
X13749666Y9082063D01*
X13727057Y9087727D01*
X13705113Y9095579D01*
X13684043Y9105544D01*
X13664052Y9117526D01*
X13645332Y9131410D01*
X13628062Y9147062D01*
X13612410Y9164332D01*
X13598526Y9183052D01*
X13586544Y9203043D01*
X13576579Y9224113D01*
X13568727Y9246057D01*
X13563063Y9268666D01*
X13559644Y9291721D01*
X13558500Y9315000D01*
X13558500Y9815000D01*
X13559644Y9838279D01*
X13563063Y9861334D01*
X13568727Y9883943D01*
X13576579Y9905887D01*
X13586544Y9926957D01*
X13598526Y9946948D01*
X13612410Y9965668D01*
X13628062Y9982938D01*
X13645332Y9998590D01*
X13664052Y10012474D01*
X13684043Y10024456D01*
X13705113Y10034421D01*
X13727057Y10042273D01*
X13749666Y10047937D01*
X13772721Y10051356D01*
X13796000Y10052500D01*
X14271000Y10052500D01*
X14294279Y10051356D01*
G37*
%TD*%
D21*
%TO.C,J1*%
X-12095000Y10820000D03*
X-12095000Y10020000D03*
X-12095000Y10820000D03*
X-12095000Y10020000D03*
X-12095000Y4420000D03*
X-12095000Y4420000D03*
X-12095000Y5220000D03*
X-12095000Y5220000D03*
D22*
X-12095000Y9370000D03*
X-12095000Y8370000D03*
X-12095000Y8870000D03*
X-12095000Y6370000D03*
X-12095000Y5870000D03*
X-12095000Y7870000D03*
X-12095000Y7370000D03*
X-12095000Y6870000D03*
%TD*%
D23*
%TO.C,U3*%
X-3259000Y2542500D03*
X-3259000Y3492500D03*
X-3259000Y4442500D03*
X-1059000Y4442500D03*
X-1059000Y2542500D03*
%TD*%
D20*
%TO.C,D3*%
X9060500Y3683000D03*
X6560500Y3683000D03*
%TD*%
D12*
%TO.C,J2*%
G36*
X-2933495Y-21042204D02*
G01*
X-2909227Y-21045804D01*
X-2885428Y-21051765D01*
X-2862329Y-21060030D01*
X-2840150Y-21070520D01*
X-2819107Y-21083132D01*
X-2799401Y-21097747D01*
X-2781223Y-21114223D01*
X-2764747Y-21132401D01*
X-2750132Y-21152107D01*
X-2737520Y-21173150D01*
X-2727030Y-21195329D01*
X-2718765Y-21218428D01*
X-2712804Y-21242227D01*
X-2709204Y-21266495D01*
X-2708000Y-21290999D01*
X-2708000Y-22591001D01*
X-2709204Y-22615505D01*
X-2712804Y-22639773D01*
X-2718765Y-22663572D01*
X-2727030Y-22686671D01*
X-2737520Y-22708850D01*
X-2750132Y-22729893D01*
X-2764747Y-22749599D01*
X-2781223Y-22767777D01*
X-2799401Y-22784253D01*
X-2819107Y-22798868D01*
X-2840150Y-22811480D01*
X-2862329Y-22821970D01*
X-2885428Y-22830235D01*
X-2909227Y-22836196D01*
X-2933495Y-22839796D01*
X-2957999Y-22841000D01*
X-3658001Y-22841000D01*
X-3682505Y-22839796D01*
X-3706773Y-22836196D01*
X-3730572Y-22830235D01*
X-3753671Y-22821970D01*
X-3775850Y-22811480D01*
X-3796893Y-22798868D01*
X-3816599Y-22784253D01*
X-3834777Y-22767777D01*
X-3851253Y-22749599D01*
X-3865868Y-22729893D01*
X-3878480Y-22708850D01*
X-3888970Y-22686671D01*
X-3897235Y-22663572D01*
X-3903196Y-22639773D01*
X-3906796Y-22615505D01*
X-3908000Y-22591001D01*
X-3908000Y-21290999D01*
X-3906796Y-21266495D01*
X-3903196Y-21242227D01*
X-3897235Y-21218428D01*
X-3888970Y-21195329D01*
X-3878480Y-21173150D01*
X-3865868Y-21152107D01*
X-3851253Y-21132401D01*
X-3834777Y-21114223D01*
X-3816599Y-21097747D01*
X-3796893Y-21083132D01*
X-3775850Y-21070520D01*
X-3753671Y-21060030D01*
X-3730572Y-21051765D01*
X-3706773Y-21045804D01*
X-3682505Y-21042204D01*
X-3658001Y-21041000D01*
X-2957999Y-21041000D01*
X-2933495Y-21042204D01*
G37*
G36*
X2666505Y-21042204D02*
G01*
X2690773Y-21045804D01*
X2714572Y-21051765D01*
X2737671Y-21060030D01*
X2759850Y-21070520D01*
X2780893Y-21083132D01*
X2800599Y-21097747D01*
X2818777Y-21114223D01*
X2835253Y-21132401D01*
X2849868Y-21152107D01*
X2862480Y-21173150D01*
X2872970Y-21195329D01*
X2881235Y-21218428D01*
X2887196Y-21242227D01*
X2890796Y-21266495D01*
X2892000Y-21290999D01*
X2892000Y-22591001D01*
X2890796Y-22615505D01*
X2887196Y-22639773D01*
X2881235Y-22663572D01*
X2872970Y-22686671D01*
X2862480Y-22708850D01*
X2849868Y-22729893D01*
X2835253Y-22749599D01*
X2818777Y-22767777D01*
X2800599Y-22784253D01*
X2780893Y-22798868D01*
X2759850Y-22811480D01*
X2737671Y-22821970D01*
X2714572Y-22830235D01*
X2690773Y-22836196D01*
X2666505Y-22839796D01*
X2642001Y-22841000D01*
X1941999Y-22841000D01*
X1917495Y-22839796D01*
X1893227Y-22836196D01*
X1869428Y-22830235D01*
X1846329Y-22821970D01*
X1824150Y-22811480D01*
X1803107Y-22798868D01*
X1783401Y-22784253D01*
X1765223Y-22767777D01*
X1748747Y-22749599D01*
X1734132Y-22729893D01*
X1721520Y-22708850D01*
X1711030Y-22686671D01*
X1702765Y-22663572D01*
X1696804Y-22639773D01*
X1693204Y-22615505D01*
X1692000Y-22591001D01*
X1692000Y-21290999D01*
X1693204Y-21266495D01*
X1696804Y-21242227D01*
X1702765Y-21218428D01*
X1711030Y-21195329D01*
X1721520Y-21173150D01*
X1734132Y-21152107D01*
X1748747Y-21132401D01*
X1765223Y-21114223D01*
X1783401Y-21097747D01*
X1803107Y-21083132D01*
X1824150Y-21070520D01*
X1846329Y-21060030D01*
X1869428Y-21051765D01*
X1893227Y-21045804D01*
X1917495Y-21042204D01*
X1941999Y-21041000D01*
X2642001Y-21041000D01*
X2666505Y-21042204D01*
G37*
G36*
X-1843297Y-17291722D02*
G01*
X-1828736Y-17293882D01*
X-1814457Y-17297459D01*
X-1800597Y-17302418D01*
X-1787290Y-17308712D01*
X-1774664Y-17316280D01*
X-1762841Y-17325048D01*
X-1751934Y-17334934D01*
X-1742048Y-17345841D01*
X-1733280Y-17357664D01*
X-1725712Y-17370290D01*
X-1719418Y-17383597D01*
X-1714459Y-17397457D01*
X-1710882Y-17411736D01*
X-1708722Y-17426297D01*
X-1708000Y-17441000D01*
X-1708000Y-18691000D01*
X-1708722Y-18705703D01*
X-1710882Y-18720264D01*
X-1714459Y-18734543D01*
X-1719418Y-18748403D01*
X-1725712Y-18761710D01*
X-1733280Y-18774336D01*
X-1742048Y-18786159D01*
X-1751934Y-18797066D01*
X-1762841Y-18806952D01*
X-1774664Y-18815720D01*
X-1787290Y-18823288D01*
X-1800597Y-18829582D01*
X-1814457Y-18834541D01*
X-1828736Y-18838118D01*
X-1843297Y-18840278D01*
X-1858000Y-18841000D01*
X-2158000Y-18841000D01*
X-2172703Y-18840278D01*
X-2187264Y-18838118D01*
X-2201543Y-18834541D01*
X-2215403Y-18829582D01*
X-2228710Y-18823288D01*
X-2241336Y-18815720D01*
X-2253159Y-18806952D01*
X-2264066Y-18797066D01*
X-2273952Y-18786159D01*
X-2282720Y-18774336D01*
X-2290288Y-18761710D01*
X-2296582Y-18748403D01*
X-2301541Y-18734543D01*
X-2305118Y-18720264D01*
X-2307278Y-18705703D01*
X-2308000Y-18691000D01*
X-2308000Y-17441000D01*
X-2307278Y-17426297D01*
X-2305118Y-17411736D01*
X-2301541Y-17397457D01*
X-2296582Y-17383597D01*
X-2290288Y-17370290D01*
X-2282720Y-17357664D01*
X-2273952Y-17345841D01*
X-2264066Y-17334934D01*
X-2253159Y-17325048D01*
X-2241336Y-17316280D01*
X-2228710Y-17308712D01*
X-2215403Y-17302418D01*
X-2201543Y-17297459D01*
X-2187264Y-17293882D01*
X-2172703Y-17291722D01*
X-2158000Y-17291000D01*
X-1858000Y-17291000D01*
X-1843297Y-17291722D01*
G37*
G36*
X-843297Y-17291722D02*
G01*
X-828736Y-17293882D01*
X-814457Y-17297459D01*
X-800597Y-17302418D01*
X-787290Y-17308712D01*
X-774664Y-17316280D01*
X-762841Y-17325048D01*
X-751934Y-17334934D01*
X-742048Y-17345841D01*
X-733280Y-17357664D01*
X-725712Y-17370290D01*
X-719418Y-17383597D01*
X-714459Y-17397457D01*
X-710882Y-17411736D01*
X-708722Y-17426297D01*
X-708000Y-17441000D01*
X-708000Y-18691000D01*
X-708722Y-18705703D01*
X-710882Y-18720264D01*
X-714459Y-18734543D01*
X-719418Y-18748403D01*
X-725712Y-18761710D01*
X-733280Y-18774336D01*
X-742048Y-18786159D01*
X-751934Y-18797066D01*
X-762841Y-18806952D01*
X-774664Y-18815720D01*
X-787290Y-18823288D01*
X-800597Y-18829582D01*
X-814457Y-18834541D01*
X-828736Y-18838118D01*
X-843297Y-18840278D01*
X-858000Y-18841000D01*
X-1158000Y-18841000D01*
X-1172703Y-18840278D01*
X-1187264Y-18838118D01*
X-1201543Y-18834541D01*
X-1215403Y-18829582D01*
X-1228710Y-18823288D01*
X-1241336Y-18815720D01*
X-1253159Y-18806952D01*
X-1264066Y-18797066D01*
X-1273952Y-18786159D01*
X-1282720Y-18774336D01*
X-1290288Y-18761710D01*
X-1296582Y-18748403D01*
X-1301541Y-18734543D01*
X-1305118Y-18720264D01*
X-1307278Y-18705703D01*
X-1308000Y-18691000D01*
X-1308000Y-17441000D01*
X-1307278Y-17426297D01*
X-1305118Y-17411736D01*
X-1301541Y-17397457D01*
X-1296582Y-17383597D01*
X-1290288Y-17370290D01*
X-1282720Y-17357664D01*
X-1273952Y-17345841D01*
X-1264066Y-17334934D01*
X-1253159Y-17325048D01*
X-1241336Y-17316280D01*
X-1228710Y-17308712D01*
X-1215403Y-17302418D01*
X-1201543Y-17297459D01*
X-1187264Y-17293882D01*
X-1172703Y-17291722D01*
X-1158000Y-17291000D01*
X-858000Y-17291000D01*
X-843297Y-17291722D01*
G37*
G36*
X156703Y-17291722D02*
G01*
X171264Y-17293882D01*
X185543Y-17297459D01*
X199403Y-17302418D01*
X212710Y-17308712D01*
X225336Y-17316280D01*
X237159Y-17325048D01*
X248066Y-17334934D01*
X257952Y-17345841D01*
X266720Y-17357664D01*
X274288Y-17370290D01*
X280582Y-17383597D01*
X285541Y-17397457D01*
X289118Y-17411736D01*
X291278Y-17426297D01*
X292000Y-17441000D01*
X292000Y-18691000D01*
X291278Y-18705703D01*
X289118Y-18720264D01*
X285541Y-18734543D01*
X280582Y-18748403D01*
X274288Y-18761710D01*
X266720Y-18774336D01*
X257952Y-18786159D01*
X248066Y-18797066D01*
X237159Y-18806952D01*
X225336Y-18815720D01*
X212710Y-18823288D01*
X199403Y-18829582D01*
X185543Y-18834541D01*
X171264Y-18838118D01*
X156703Y-18840278D01*
X142000Y-18841000D01*
X-158000Y-18841000D01*
X-172703Y-18840278D01*
X-187264Y-18838118D01*
X-201543Y-18834541D01*
X-215403Y-18829582D01*
X-228710Y-18823288D01*
X-241336Y-18815720D01*
X-253159Y-18806952D01*
X-264066Y-18797066D01*
X-273952Y-18786159D01*
X-282720Y-18774336D01*
X-290288Y-18761710D01*
X-296582Y-18748403D01*
X-301541Y-18734543D01*
X-305118Y-18720264D01*
X-307278Y-18705703D01*
X-308000Y-18691000D01*
X-308000Y-17441000D01*
X-307278Y-17426297D01*
X-305118Y-17411736D01*
X-301541Y-17397457D01*
X-296582Y-17383597D01*
X-290288Y-17370290D01*
X-282720Y-17357664D01*
X-273952Y-17345841D01*
X-264066Y-17334934D01*
X-253159Y-17325048D01*
X-241336Y-17316280D01*
X-228710Y-17308712D01*
X-215403Y-17302418D01*
X-201543Y-17297459D01*
X-187264Y-17293882D01*
X-172703Y-17291722D01*
X-158000Y-17291000D01*
X142000Y-17291000D01*
X156703Y-17291722D01*
G37*
G36*
X1156703Y-17291722D02*
G01*
X1171264Y-17293882D01*
X1185543Y-17297459D01*
X1199403Y-17302418D01*
X1212710Y-17308712D01*
X1225336Y-17316280D01*
X1237159Y-17325048D01*
X1248066Y-17334934D01*
X1257952Y-17345841D01*
X1266720Y-17357664D01*
X1274288Y-17370290D01*
X1280582Y-17383597D01*
X1285541Y-17397457D01*
X1289118Y-17411736D01*
X1291278Y-17426297D01*
X1292000Y-17441000D01*
X1292000Y-18691000D01*
X1291278Y-18705703D01*
X1289118Y-18720264D01*
X1285541Y-18734543D01*
X1280582Y-18748403D01*
X1274288Y-18761710D01*
X1266720Y-18774336D01*
X1257952Y-18786159D01*
X1248066Y-18797066D01*
X1237159Y-18806952D01*
X1225336Y-18815720D01*
X1212710Y-18823288D01*
X1199403Y-18829582D01*
X1185543Y-18834541D01*
X1171264Y-18838118D01*
X1156703Y-18840278D01*
X1142000Y-18841000D01*
X842000Y-18841000D01*
X827297Y-18840278D01*
X812736Y-18838118D01*
X798457Y-18834541D01*
X784597Y-18829582D01*
X771290Y-18823288D01*
X758664Y-18815720D01*
X746841Y-18806952D01*
X735934Y-18797066D01*
X726048Y-18786159D01*
X717280Y-18774336D01*
X709712Y-18761710D01*
X703418Y-18748403D01*
X698459Y-18734543D01*
X694882Y-18720264D01*
X692722Y-18705703D01*
X692000Y-18691000D01*
X692000Y-17441000D01*
X692722Y-17426297D01*
X694882Y-17411736D01*
X698459Y-17397457D01*
X703418Y-17383597D01*
X709712Y-17370290D01*
X717280Y-17357664D01*
X726048Y-17345841D01*
X735934Y-17334934D01*
X746841Y-17325048D01*
X758664Y-17316280D01*
X771290Y-17308712D01*
X784597Y-17302418D01*
X798457Y-17297459D01*
X812736Y-17293882D01*
X827297Y-17291722D01*
X842000Y-17291000D01*
X1142000Y-17291000D01*
X1156703Y-17291722D01*
G37*
%TD*%
D24*
%TO.C,SW2*%
X17868000Y14767000D03*
X17868000Y9617000D03*
X16168000Y9617000D03*
X16168000Y14767000D03*
%TD*%
%TO.C,SW1*%
X17995000Y-9617000D03*
X17995000Y-14767000D03*
X16295000Y-14767000D03*
X16295000Y-9617000D03*
%TD*%
D12*
%TO.C,R2*%
G36*
X-12149221Y14062856D02*
G01*
X-12126166Y14059437D01*
X-12103557Y14053773D01*
X-12081613Y14045921D01*
X-12060543Y14035956D01*
X-12040552Y14023974D01*
X-12021832Y14010090D01*
X-12004562Y13994438D01*
X-11988910Y13977168D01*
X-11975026Y13958448D01*
X-11963044Y13938457D01*
X-11953079Y13917387D01*
X-11945227Y13895443D01*
X-11939563Y13872834D01*
X-11936144Y13849779D01*
X-11935000Y13826500D01*
X-11935000Y13351500D01*
X-11936144Y13328221D01*
X-11939563Y13305166D01*
X-11945227Y13282557D01*
X-11953079Y13260613D01*
X-11963044Y13239543D01*
X-11975026Y13219552D01*
X-11988910Y13200832D01*
X-12004562Y13183562D01*
X-12021832Y13167910D01*
X-12040552Y13154026D01*
X-12060543Y13142044D01*
X-12081613Y13132079D01*
X-12103557Y13124227D01*
X-12126166Y13118563D01*
X-12149221Y13115144D01*
X-12172500Y13114000D01*
X-12672500Y13114000D01*
X-12695779Y13115144D01*
X-12718834Y13118563D01*
X-12741443Y13124227D01*
X-12763387Y13132079D01*
X-12784457Y13142044D01*
X-12804448Y13154026D01*
X-12823168Y13167910D01*
X-12840438Y13183562D01*
X-12856090Y13200832D01*
X-12869974Y13219552D01*
X-12881956Y13239543D01*
X-12891921Y13260613D01*
X-12899773Y13282557D01*
X-12905437Y13305166D01*
X-12908856Y13328221D01*
X-12910000Y13351500D01*
X-12910000Y13826500D01*
X-12908856Y13849779D01*
X-12905437Y13872834D01*
X-12899773Y13895443D01*
X-12891921Y13917387D01*
X-12881956Y13938457D01*
X-12869974Y13958448D01*
X-12856090Y13977168D01*
X-12840438Y13994438D01*
X-12823168Y14010090D01*
X-12804448Y14023974D01*
X-12784457Y14035956D01*
X-12763387Y14045921D01*
X-12741443Y14053773D01*
X-12718834Y14059437D01*
X-12695779Y14062856D01*
X-12672500Y14064000D01*
X-12172500Y14064000D01*
X-12149221Y14062856D01*
G37*
G36*
X-13974221Y14062856D02*
G01*
X-13951166Y14059437D01*
X-13928557Y14053773D01*
X-13906613Y14045921D01*
X-13885543Y14035956D01*
X-13865552Y14023974D01*
X-13846832Y14010090D01*
X-13829562Y13994438D01*
X-13813910Y13977168D01*
X-13800026Y13958448D01*
X-13788044Y13938457D01*
X-13778079Y13917387D01*
X-13770227Y13895443D01*
X-13764563Y13872834D01*
X-13761144Y13849779D01*
X-13760000Y13826500D01*
X-13760000Y13351500D01*
X-13761144Y13328221D01*
X-13764563Y13305166D01*
X-13770227Y13282557D01*
X-13778079Y13260613D01*
X-13788044Y13239543D01*
X-13800026Y13219552D01*
X-13813910Y13200832D01*
X-13829562Y13183562D01*
X-13846832Y13167910D01*
X-13865552Y13154026D01*
X-13885543Y13142044D01*
X-13906613Y13132079D01*
X-13928557Y13124227D01*
X-13951166Y13118563D01*
X-13974221Y13115144D01*
X-13997500Y13114000D01*
X-14497500Y13114000D01*
X-14520779Y13115144D01*
X-14543834Y13118563D01*
X-14566443Y13124227D01*
X-14588387Y13132079D01*
X-14609457Y13142044D01*
X-14629448Y13154026D01*
X-14648168Y13167910D01*
X-14665438Y13183562D01*
X-14681090Y13200832D01*
X-14694974Y13219552D01*
X-14706956Y13239543D01*
X-14716921Y13260613D01*
X-14724773Y13282557D01*
X-14730437Y13305166D01*
X-14733856Y13328221D01*
X-14735000Y13351500D01*
X-14735000Y13826500D01*
X-14733856Y13849779D01*
X-14730437Y13872834D01*
X-14724773Y13895443D01*
X-14716921Y13917387D01*
X-14706956Y13938457D01*
X-14694974Y13958448D01*
X-14681090Y13977168D01*
X-14665438Y13994438D01*
X-14648168Y14010090D01*
X-14629448Y14023974D01*
X-14609457Y14035956D01*
X-14588387Y14045921D01*
X-14566443Y14053773D01*
X-14543834Y14059437D01*
X-14520779Y14062856D01*
X-14497500Y14064000D01*
X-13997500Y14064000D01*
X-13974221Y14062856D01*
G37*
%TD*%
%TO.C,R1*%
G36*
X-15578221Y14062856D02*
G01*
X-15555166Y14059437D01*
X-15532557Y14053773D01*
X-15510613Y14045921D01*
X-15489543Y14035956D01*
X-15469552Y14023974D01*
X-15450832Y14010090D01*
X-15433562Y13994438D01*
X-15417910Y13977168D01*
X-15404026Y13958448D01*
X-15392044Y13938457D01*
X-15382079Y13917387D01*
X-15374227Y13895443D01*
X-15368563Y13872834D01*
X-15365144Y13849779D01*
X-15364000Y13826500D01*
X-15364000Y13351500D01*
X-15365144Y13328221D01*
X-15368563Y13305166D01*
X-15374227Y13282557D01*
X-15382079Y13260613D01*
X-15392044Y13239543D01*
X-15404026Y13219552D01*
X-15417910Y13200832D01*
X-15433562Y13183562D01*
X-15450832Y13167910D01*
X-15469552Y13154026D01*
X-15489543Y13142044D01*
X-15510613Y13132079D01*
X-15532557Y13124227D01*
X-15555166Y13118563D01*
X-15578221Y13115144D01*
X-15601500Y13114000D01*
X-16101500Y13114000D01*
X-16124779Y13115144D01*
X-16147834Y13118563D01*
X-16170443Y13124227D01*
X-16192387Y13132079D01*
X-16213457Y13142044D01*
X-16233448Y13154026D01*
X-16252168Y13167910D01*
X-16269438Y13183562D01*
X-16285090Y13200832D01*
X-16298974Y13219552D01*
X-16310956Y13239543D01*
X-16320921Y13260613D01*
X-16328773Y13282557D01*
X-16334437Y13305166D01*
X-16337856Y13328221D01*
X-16339000Y13351500D01*
X-16339000Y13826500D01*
X-16337856Y13849779D01*
X-16334437Y13872834D01*
X-16328773Y13895443D01*
X-16320921Y13917387D01*
X-16310956Y13938457D01*
X-16298974Y13958448D01*
X-16285090Y13977168D01*
X-16269438Y13994438D01*
X-16252168Y14010090D01*
X-16233448Y14023974D01*
X-16213457Y14035956D01*
X-16192387Y14045921D01*
X-16170443Y14053773D01*
X-16147834Y14059437D01*
X-16124779Y14062856D01*
X-16101500Y14064000D01*
X-15601500Y14064000D01*
X-15578221Y14062856D01*
G37*
G36*
X-17403221Y14062856D02*
G01*
X-17380166Y14059437D01*
X-17357557Y14053773D01*
X-17335613Y14045921D01*
X-17314543Y14035956D01*
X-17294552Y14023974D01*
X-17275832Y14010090D01*
X-17258562Y13994438D01*
X-17242910Y13977168D01*
X-17229026Y13958448D01*
X-17217044Y13938457D01*
X-17207079Y13917387D01*
X-17199227Y13895443D01*
X-17193563Y13872834D01*
X-17190144Y13849779D01*
X-17189000Y13826500D01*
X-17189000Y13351500D01*
X-17190144Y13328221D01*
X-17193563Y13305166D01*
X-17199227Y13282557D01*
X-17207079Y13260613D01*
X-17217044Y13239543D01*
X-17229026Y13219552D01*
X-17242910Y13200832D01*
X-17258562Y13183562D01*
X-17275832Y13167910D01*
X-17294552Y13154026D01*
X-17314543Y13142044D01*
X-17335613Y13132079D01*
X-17357557Y13124227D01*
X-17380166Y13118563D01*
X-17403221Y13115144D01*
X-17426500Y13114000D01*
X-17926500Y13114000D01*
X-17949779Y13115144D01*
X-17972834Y13118563D01*
X-17995443Y13124227D01*
X-18017387Y13132079D01*
X-18038457Y13142044D01*
X-18058448Y13154026D01*
X-18077168Y13167910D01*
X-18094438Y13183562D01*
X-18110090Y13200832D01*
X-18123974Y13219552D01*
X-18135956Y13239543D01*
X-18145921Y13260613D01*
X-18153773Y13282557D01*
X-18159437Y13305166D01*
X-18162856Y13328221D01*
X-18164000Y13351500D01*
X-18164000Y13826500D01*
X-18162856Y13849779D01*
X-18159437Y13872834D01*
X-18153773Y13895443D01*
X-18145921Y13917387D01*
X-18135956Y13938457D01*
X-18123974Y13958448D01*
X-18110090Y13977168D01*
X-18094438Y13994438D01*
X-18077168Y14010090D01*
X-18058448Y14023974D01*
X-18038457Y14035956D01*
X-18017387Y14045921D01*
X-17995443Y14053773D01*
X-17972834Y14059437D01*
X-17949779Y14062856D01*
X-17926500Y14064000D01*
X-17426500Y14064000D01*
X-17403221Y14062856D01*
G37*
%TD*%
%TO.C,R9*%
G36*
X-1227221Y8030356D02*
G01*
X-1204166Y8026937D01*
X-1181557Y8021273D01*
X-1159613Y8013421D01*
X-1138543Y8003456D01*
X-1118552Y7991474D01*
X-1099832Y7977590D01*
X-1082562Y7961938D01*
X-1066910Y7944668D01*
X-1053026Y7925948D01*
X-1041044Y7905957D01*
X-1031079Y7884887D01*
X-1023227Y7862943D01*
X-1017563Y7840334D01*
X-1014144Y7817279D01*
X-1013000Y7794000D01*
X-1013000Y7319000D01*
X-1014144Y7295721D01*
X-1017563Y7272666D01*
X-1023227Y7250057D01*
X-1031079Y7228113D01*
X-1041044Y7207043D01*
X-1053026Y7187052D01*
X-1066910Y7168332D01*
X-1082562Y7151062D01*
X-1099832Y7135410D01*
X-1118552Y7121526D01*
X-1138543Y7109544D01*
X-1159613Y7099579D01*
X-1181557Y7091727D01*
X-1204166Y7086063D01*
X-1227221Y7082644D01*
X-1250500Y7081500D01*
X-1750500Y7081500D01*
X-1773779Y7082644D01*
X-1796834Y7086063D01*
X-1819443Y7091727D01*
X-1841387Y7099579D01*
X-1862457Y7109544D01*
X-1882448Y7121526D01*
X-1901168Y7135410D01*
X-1918438Y7151062D01*
X-1934090Y7168332D01*
X-1947974Y7187052D01*
X-1959956Y7207043D01*
X-1969921Y7228113D01*
X-1977773Y7250057D01*
X-1983437Y7272666D01*
X-1986856Y7295721D01*
X-1988000Y7319000D01*
X-1988000Y7794000D01*
X-1986856Y7817279D01*
X-1983437Y7840334D01*
X-1977773Y7862943D01*
X-1969921Y7884887D01*
X-1959956Y7905957D01*
X-1947974Y7925948D01*
X-1934090Y7944668D01*
X-1918438Y7961938D01*
X-1901168Y7977590D01*
X-1882448Y7991474D01*
X-1862457Y8003456D01*
X-1841387Y8013421D01*
X-1819443Y8021273D01*
X-1796834Y8026937D01*
X-1773779Y8030356D01*
X-1750500Y8031500D01*
X-1250500Y8031500D01*
X-1227221Y8030356D01*
G37*
G36*
X-3052221Y8030356D02*
G01*
X-3029166Y8026937D01*
X-3006557Y8021273D01*
X-2984613Y8013421D01*
X-2963543Y8003456D01*
X-2943552Y7991474D01*
X-2924832Y7977590D01*
X-2907562Y7961938D01*
X-2891910Y7944668D01*
X-2878026Y7925948D01*
X-2866044Y7905957D01*
X-2856079Y7884887D01*
X-2848227Y7862943D01*
X-2842563Y7840334D01*
X-2839144Y7817279D01*
X-2838000Y7794000D01*
X-2838000Y7319000D01*
X-2839144Y7295721D01*
X-2842563Y7272666D01*
X-2848227Y7250057D01*
X-2856079Y7228113D01*
X-2866044Y7207043D01*
X-2878026Y7187052D01*
X-2891910Y7168332D01*
X-2907562Y7151062D01*
X-2924832Y7135410D01*
X-2943552Y7121526D01*
X-2963543Y7109544D01*
X-2984613Y7099579D01*
X-3006557Y7091727D01*
X-3029166Y7086063D01*
X-3052221Y7082644D01*
X-3075500Y7081500D01*
X-3575500Y7081500D01*
X-3598779Y7082644D01*
X-3621834Y7086063D01*
X-3644443Y7091727D01*
X-3666387Y7099579D01*
X-3687457Y7109544D01*
X-3707448Y7121526D01*
X-3726168Y7135410D01*
X-3743438Y7151062D01*
X-3759090Y7168332D01*
X-3772974Y7187052D01*
X-3784956Y7207043D01*
X-3794921Y7228113D01*
X-3802773Y7250057D01*
X-3808437Y7272666D01*
X-3811856Y7295721D01*
X-3813000Y7319000D01*
X-3813000Y7794000D01*
X-3811856Y7817279D01*
X-3808437Y7840334D01*
X-3802773Y7862943D01*
X-3794921Y7884887D01*
X-3784956Y7905957D01*
X-3772974Y7925948D01*
X-3759090Y7944668D01*
X-3743438Y7961938D01*
X-3726168Y7977590D01*
X-3707448Y7991474D01*
X-3687457Y8003456D01*
X-3666387Y8013421D01*
X-3644443Y8021273D01*
X-3621834Y8026937D01*
X-3598779Y8030356D01*
X-3575500Y8031500D01*
X-3075500Y8031500D01*
X-3052221Y8030356D01*
G37*
%TD*%
%TO.C,C7*%
G36*
X-6914721Y6468356D02*
G01*
X-6891666Y6464937D01*
X-6869057Y6459273D01*
X-6847113Y6451421D01*
X-6826043Y6441456D01*
X-6806052Y6429474D01*
X-6787332Y6415590D01*
X-6770062Y6399938D01*
X-6754410Y6382668D01*
X-6740526Y6363948D01*
X-6728544Y6343957D01*
X-6718579Y6322887D01*
X-6710727Y6300943D01*
X-6705063Y6278334D01*
X-6701644Y6255279D01*
X-6700500Y6232000D01*
X-6700500Y5632000D01*
X-6701644Y5608721D01*
X-6705063Y5585666D01*
X-6710727Y5563057D01*
X-6718579Y5541113D01*
X-6728544Y5520043D01*
X-6740526Y5500052D01*
X-6754410Y5481332D01*
X-6770062Y5464062D01*
X-6787332Y5448410D01*
X-6806052Y5434526D01*
X-6826043Y5422544D01*
X-6847113Y5412579D01*
X-6869057Y5404727D01*
X-6891666Y5399063D01*
X-6914721Y5395644D01*
X-6938000Y5394500D01*
X-7413000Y5394500D01*
X-7436279Y5395644D01*
X-7459334Y5399063D01*
X-7481943Y5404727D01*
X-7503887Y5412579D01*
X-7524957Y5422544D01*
X-7544948Y5434526D01*
X-7563668Y5448410D01*
X-7580938Y5464062D01*
X-7596590Y5481332D01*
X-7610474Y5500052D01*
X-7622456Y5520043D01*
X-7632421Y5541113D01*
X-7640273Y5563057D01*
X-7645937Y5585666D01*
X-7649356Y5608721D01*
X-7650500Y5632000D01*
X-7650500Y6232000D01*
X-7649356Y6255279D01*
X-7645937Y6278334D01*
X-7640273Y6300943D01*
X-7632421Y6322887D01*
X-7622456Y6343957D01*
X-7610474Y6363948D01*
X-7596590Y6382668D01*
X-7580938Y6399938D01*
X-7563668Y6415590D01*
X-7544948Y6429474D01*
X-7524957Y6441456D01*
X-7503887Y6451421D01*
X-7481943Y6459273D01*
X-7459334Y6464937D01*
X-7436279Y6468356D01*
X-7413000Y6469500D01*
X-6938000Y6469500D01*
X-6914721Y6468356D01*
G37*
G36*
X-6914721Y8193356D02*
G01*
X-6891666Y8189937D01*
X-6869057Y8184273D01*
X-6847113Y8176421D01*
X-6826043Y8166456D01*
X-6806052Y8154474D01*
X-6787332Y8140590D01*
X-6770062Y8124938D01*
X-6754410Y8107668D01*
X-6740526Y8088948D01*
X-6728544Y8068957D01*
X-6718579Y8047887D01*
X-6710727Y8025943D01*
X-6705063Y8003334D01*
X-6701644Y7980279D01*
X-6700500Y7957000D01*
X-6700500Y7357000D01*
X-6701644Y7333721D01*
X-6705063Y7310666D01*
X-6710727Y7288057D01*
X-6718579Y7266113D01*
X-6728544Y7245043D01*
X-6740526Y7225052D01*
X-6754410Y7206332D01*
X-6770062Y7189062D01*
X-6787332Y7173410D01*
X-6806052Y7159526D01*
X-6826043Y7147544D01*
X-6847113Y7137579D01*
X-6869057Y7129727D01*
X-6891666Y7124063D01*
X-6914721Y7120644D01*
X-6938000Y7119500D01*
X-7413000Y7119500D01*
X-7436279Y7120644D01*
X-7459334Y7124063D01*
X-7481943Y7129727D01*
X-7503887Y7137579D01*
X-7524957Y7147544D01*
X-7544948Y7159526D01*
X-7563668Y7173410D01*
X-7580938Y7189062D01*
X-7596590Y7206332D01*
X-7610474Y7225052D01*
X-7622456Y7245043D01*
X-7632421Y7266113D01*
X-7640273Y7288057D01*
X-7645937Y7310666D01*
X-7649356Y7333721D01*
X-7650500Y7357000D01*
X-7650500Y7957000D01*
X-7649356Y7980279D01*
X-7645937Y8003334D01*
X-7640273Y8025943D01*
X-7632421Y8047887D01*
X-7622456Y8068957D01*
X-7610474Y8088948D01*
X-7596590Y8107668D01*
X-7580938Y8124938D01*
X-7563668Y8140590D01*
X-7544948Y8154474D01*
X-7524957Y8166456D01*
X-7503887Y8176421D01*
X-7481943Y8184273D01*
X-7459334Y8189937D01*
X-7436279Y8193356D01*
X-7413000Y8194500D01*
X-6938000Y8194500D01*
X-6914721Y8193356D01*
G37*
%TD*%
%TO.C,R4*%
G36*
X-5327221Y6368356D02*
G01*
X-5304166Y6364937D01*
X-5281557Y6359273D01*
X-5259613Y6351421D01*
X-5238543Y6341456D01*
X-5218552Y6329474D01*
X-5199832Y6315590D01*
X-5182562Y6299938D01*
X-5166910Y6282668D01*
X-5153026Y6263948D01*
X-5141044Y6243957D01*
X-5131079Y6222887D01*
X-5123227Y6200943D01*
X-5117563Y6178334D01*
X-5114144Y6155279D01*
X-5113000Y6132000D01*
X-5113000Y5632000D01*
X-5114144Y5608721D01*
X-5117563Y5585666D01*
X-5123227Y5563057D01*
X-5131079Y5541113D01*
X-5141044Y5520043D01*
X-5153026Y5500052D01*
X-5166910Y5481332D01*
X-5182562Y5464062D01*
X-5199832Y5448410D01*
X-5218552Y5434526D01*
X-5238543Y5422544D01*
X-5259613Y5412579D01*
X-5281557Y5404727D01*
X-5304166Y5399063D01*
X-5327221Y5395644D01*
X-5350500Y5394500D01*
X-5825500Y5394500D01*
X-5848779Y5395644D01*
X-5871834Y5399063D01*
X-5894443Y5404727D01*
X-5916387Y5412579D01*
X-5937457Y5422544D01*
X-5957448Y5434526D01*
X-5976168Y5448410D01*
X-5993438Y5464062D01*
X-6009090Y5481332D01*
X-6022974Y5500052D01*
X-6034956Y5520043D01*
X-6044921Y5541113D01*
X-6052773Y5563057D01*
X-6058437Y5585666D01*
X-6061856Y5608721D01*
X-6063000Y5632000D01*
X-6063000Y6132000D01*
X-6061856Y6155279D01*
X-6058437Y6178334D01*
X-6052773Y6200943D01*
X-6044921Y6222887D01*
X-6034956Y6243957D01*
X-6022974Y6263948D01*
X-6009090Y6282668D01*
X-5993438Y6299938D01*
X-5976168Y6315590D01*
X-5957448Y6329474D01*
X-5937457Y6341456D01*
X-5916387Y6351421D01*
X-5894443Y6359273D01*
X-5871834Y6364937D01*
X-5848779Y6368356D01*
X-5825500Y6369500D01*
X-5350500Y6369500D01*
X-5327221Y6368356D01*
G37*
G36*
X-5327221Y8193356D02*
G01*
X-5304166Y8189937D01*
X-5281557Y8184273D01*
X-5259613Y8176421D01*
X-5238543Y8166456D01*
X-5218552Y8154474D01*
X-5199832Y8140590D01*
X-5182562Y8124938D01*
X-5166910Y8107668D01*
X-5153026Y8088948D01*
X-5141044Y8068957D01*
X-5131079Y8047887D01*
X-5123227Y8025943D01*
X-5117563Y8003334D01*
X-5114144Y7980279D01*
X-5113000Y7957000D01*
X-5113000Y7457000D01*
X-5114144Y7433721D01*
X-5117563Y7410666D01*
X-5123227Y7388057D01*
X-5131079Y7366113D01*
X-5141044Y7345043D01*
X-5153026Y7325052D01*
X-5166910Y7306332D01*
X-5182562Y7289062D01*
X-5199832Y7273410D01*
X-5218552Y7259526D01*
X-5238543Y7247544D01*
X-5259613Y7237579D01*
X-5281557Y7229727D01*
X-5304166Y7224063D01*
X-5327221Y7220644D01*
X-5350500Y7219500D01*
X-5825500Y7219500D01*
X-5848779Y7220644D01*
X-5871834Y7224063D01*
X-5894443Y7229727D01*
X-5916387Y7237579D01*
X-5937457Y7247544D01*
X-5957448Y7259526D01*
X-5976168Y7273410D01*
X-5993438Y7289062D01*
X-6009090Y7306332D01*
X-6022974Y7325052D01*
X-6034956Y7345043D01*
X-6044921Y7366113D01*
X-6052773Y7388057D01*
X-6058437Y7410666D01*
X-6061856Y7433721D01*
X-6063000Y7457000D01*
X-6063000Y7957000D01*
X-6061856Y7980279D01*
X-6058437Y8003334D01*
X-6052773Y8025943D01*
X-6044921Y8047887D01*
X-6034956Y8068957D01*
X-6022974Y8088948D01*
X-6009090Y8107668D01*
X-5993438Y8124938D01*
X-5976168Y8140590D01*
X-5957448Y8154474D01*
X-5937457Y8166456D01*
X-5916387Y8176421D01*
X-5894443Y8184273D01*
X-5871834Y8189937D01*
X-5848779Y8193356D01*
X-5825500Y8194500D01*
X-5350500Y8194500D01*
X-5327221Y8193356D01*
G37*
%TD*%
%TO.C,C4*%
G36*
X-6889221Y4918856D02*
G01*
X-6866166Y4915437D01*
X-6843557Y4909773D01*
X-6821613Y4901921D01*
X-6800543Y4891956D01*
X-6780552Y4879974D01*
X-6761832Y4866090D01*
X-6744562Y4850438D01*
X-6728910Y4833168D01*
X-6715026Y4814448D01*
X-6703044Y4794457D01*
X-6693079Y4773387D01*
X-6685227Y4751443D01*
X-6679563Y4728834D01*
X-6676144Y4705779D01*
X-6675000Y4682500D01*
X-6675000Y4207500D01*
X-6676144Y4184221D01*
X-6679563Y4161166D01*
X-6685227Y4138557D01*
X-6693079Y4116613D01*
X-6703044Y4095543D01*
X-6715026Y4075552D01*
X-6728910Y4056832D01*
X-6744562Y4039562D01*
X-6761832Y4023910D01*
X-6780552Y4010026D01*
X-6800543Y3998044D01*
X-6821613Y3988079D01*
X-6843557Y3980227D01*
X-6866166Y3974563D01*
X-6889221Y3971144D01*
X-6912500Y3970000D01*
X-7512500Y3970000D01*
X-7535779Y3971144D01*
X-7558834Y3974563D01*
X-7581443Y3980227D01*
X-7603387Y3988079D01*
X-7624457Y3998044D01*
X-7644448Y4010026D01*
X-7663168Y4023910D01*
X-7680438Y4039562D01*
X-7696090Y4056832D01*
X-7709974Y4075552D01*
X-7721956Y4095543D01*
X-7731921Y4116613D01*
X-7739773Y4138557D01*
X-7745437Y4161166D01*
X-7748856Y4184221D01*
X-7750000Y4207500D01*
X-7750000Y4682500D01*
X-7748856Y4705779D01*
X-7745437Y4728834D01*
X-7739773Y4751443D01*
X-7731921Y4773387D01*
X-7721956Y4794457D01*
X-7709974Y4814448D01*
X-7696090Y4833168D01*
X-7680438Y4850438D01*
X-7663168Y4866090D01*
X-7644448Y4879974D01*
X-7624457Y4891956D01*
X-7603387Y4901921D01*
X-7581443Y4909773D01*
X-7558834Y4915437D01*
X-7535779Y4918856D01*
X-7512500Y4920000D01*
X-6912500Y4920000D01*
X-6889221Y4918856D01*
G37*
G36*
X-5164221Y4918856D02*
G01*
X-5141166Y4915437D01*
X-5118557Y4909773D01*
X-5096613Y4901921D01*
X-5075543Y4891956D01*
X-5055552Y4879974D01*
X-5036832Y4866090D01*
X-5019562Y4850438D01*
X-5003910Y4833168D01*
X-4990026Y4814448D01*
X-4978044Y4794457D01*
X-4968079Y4773387D01*
X-4960227Y4751443D01*
X-4954563Y4728834D01*
X-4951144Y4705779D01*
X-4950000Y4682500D01*
X-4950000Y4207500D01*
X-4951144Y4184221D01*
X-4954563Y4161166D01*
X-4960227Y4138557D01*
X-4968079Y4116613D01*
X-4978044Y4095543D01*
X-4990026Y4075552D01*
X-5003910Y4056832D01*
X-5019562Y4039562D01*
X-5036832Y4023910D01*
X-5055552Y4010026D01*
X-5075543Y3998044D01*
X-5096613Y3988079D01*
X-5118557Y3980227D01*
X-5141166Y3974563D01*
X-5164221Y3971144D01*
X-5187500Y3970000D01*
X-5787500Y3970000D01*
X-5810779Y3971144D01*
X-5833834Y3974563D01*
X-5856443Y3980227D01*
X-5878387Y3988079D01*
X-5899457Y3998044D01*
X-5919448Y4010026D01*
X-5938168Y4023910D01*
X-5955438Y4039562D01*
X-5971090Y4056832D01*
X-5984974Y4075552D01*
X-5996956Y4095543D01*
X-6006921Y4116613D01*
X-6014773Y4138557D01*
X-6020437Y4161166D01*
X-6023856Y4184221D01*
X-6025000Y4207500D01*
X-6025000Y4682500D01*
X-6023856Y4705779D01*
X-6020437Y4728834D01*
X-6014773Y4751443D01*
X-6006921Y4773387D01*
X-5996956Y4794457D01*
X-5984974Y4814448D01*
X-5971090Y4833168D01*
X-5955438Y4850438D01*
X-5938168Y4866090D01*
X-5919448Y4879974D01*
X-5899457Y4891956D01*
X-5878387Y4901921D01*
X-5856443Y4909773D01*
X-5833834Y4915437D01*
X-5810779Y4918856D01*
X-5787500Y4920000D01*
X-5187500Y4920000D01*
X-5164221Y4918856D01*
G37*
%TD*%
%TO.C,C10*%
G36*
X9087279Y6341356D02*
G01*
X9110334Y6337937D01*
X9132943Y6332273D01*
X9154887Y6324421D01*
X9175957Y6314456D01*
X9195948Y6302474D01*
X9214668Y6288590D01*
X9231938Y6272938D01*
X9247590Y6255668D01*
X9261474Y6236948D01*
X9273456Y6216957D01*
X9283421Y6195887D01*
X9291273Y6173943D01*
X9296937Y6151334D01*
X9300356Y6128279D01*
X9301500Y6105000D01*
X9301500Y5505000D01*
X9300356Y5481721D01*
X9296937Y5458666D01*
X9291273Y5436057D01*
X9283421Y5414113D01*
X9273456Y5393043D01*
X9261474Y5373052D01*
X9247590Y5354332D01*
X9231938Y5337062D01*
X9214668Y5321410D01*
X9195948Y5307526D01*
X9175957Y5295544D01*
X9154887Y5285579D01*
X9132943Y5277727D01*
X9110334Y5272063D01*
X9087279Y5268644D01*
X9064000Y5267500D01*
X8589000Y5267500D01*
X8565721Y5268644D01*
X8542666Y5272063D01*
X8520057Y5277727D01*
X8498113Y5285579D01*
X8477043Y5295544D01*
X8457052Y5307526D01*
X8438332Y5321410D01*
X8421062Y5337062D01*
X8405410Y5354332D01*
X8391526Y5373052D01*
X8379544Y5393043D01*
X8369579Y5414113D01*
X8361727Y5436057D01*
X8356063Y5458666D01*
X8352644Y5481721D01*
X8351500Y5505000D01*
X8351500Y6105000D01*
X8352644Y6128279D01*
X8356063Y6151334D01*
X8361727Y6173943D01*
X8369579Y6195887D01*
X8379544Y6216957D01*
X8391526Y6236948D01*
X8405410Y6255668D01*
X8421062Y6272938D01*
X8438332Y6288590D01*
X8457052Y6302474D01*
X8477043Y6314456D01*
X8498113Y6324421D01*
X8520057Y6332273D01*
X8542666Y6337937D01*
X8565721Y6341356D01*
X8589000Y6342500D01*
X9064000Y6342500D01*
X9087279Y6341356D01*
G37*
G36*
X9087279Y8066356D02*
G01*
X9110334Y8062937D01*
X9132943Y8057273D01*
X9154887Y8049421D01*
X9175957Y8039456D01*
X9195948Y8027474D01*
X9214668Y8013590D01*
X9231938Y7997938D01*
X9247590Y7980668D01*
X9261474Y7961948D01*
X9273456Y7941957D01*
X9283421Y7920887D01*
X9291273Y7898943D01*
X9296937Y7876334D01*
X9300356Y7853279D01*
X9301500Y7830000D01*
X9301500Y7230000D01*
X9300356Y7206721D01*
X9296937Y7183666D01*
X9291273Y7161057D01*
X9283421Y7139113D01*
X9273456Y7118043D01*
X9261474Y7098052D01*
X9247590Y7079332D01*
X9231938Y7062062D01*
X9214668Y7046410D01*
X9195948Y7032526D01*
X9175957Y7020544D01*
X9154887Y7010579D01*
X9132943Y7002727D01*
X9110334Y6997063D01*
X9087279Y6993644D01*
X9064000Y6992500D01*
X8589000Y6992500D01*
X8565721Y6993644D01*
X8542666Y6997063D01*
X8520057Y7002727D01*
X8498113Y7010579D01*
X8477043Y7020544D01*
X8457052Y7032526D01*
X8438332Y7046410D01*
X8421062Y7062062D01*
X8405410Y7079332D01*
X8391526Y7098052D01*
X8379544Y7118043D01*
X8369579Y7139113D01*
X8361727Y7161057D01*
X8356063Y7183666D01*
X8352644Y7206721D01*
X8351500Y7230000D01*
X8351500Y7830000D01*
X8352644Y7853279D01*
X8356063Y7876334D01*
X8361727Y7898943D01*
X8369579Y7920887D01*
X8379544Y7941957D01*
X8391526Y7961948D01*
X8405410Y7980668D01*
X8421062Y7997938D01*
X8438332Y8013590D01*
X8457052Y8027474D01*
X8477043Y8039456D01*
X8498113Y8049421D01*
X8520057Y8057273D01*
X8542666Y8062937D01*
X8565721Y8066356D01*
X8589000Y8067500D01*
X9064000Y8067500D01*
X9087279Y8066356D01*
G37*
%TD*%
%TO.C,C9*%
G36*
X10865279Y8066356D02*
G01*
X10888334Y8062937D01*
X10910943Y8057273D01*
X10932887Y8049421D01*
X10953957Y8039456D01*
X10973948Y8027474D01*
X10992668Y8013590D01*
X11009938Y7997938D01*
X11025590Y7980668D01*
X11039474Y7961948D01*
X11051456Y7941957D01*
X11061421Y7920887D01*
X11069273Y7898943D01*
X11074937Y7876334D01*
X11078356Y7853279D01*
X11079500Y7830000D01*
X11079500Y7230000D01*
X11078356Y7206721D01*
X11074937Y7183666D01*
X11069273Y7161057D01*
X11061421Y7139113D01*
X11051456Y7118043D01*
X11039474Y7098052D01*
X11025590Y7079332D01*
X11009938Y7062062D01*
X10992668Y7046410D01*
X10973948Y7032526D01*
X10953957Y7020544D01*
X10932887Y7010579D01*
X10910943Y7002727D01*
X10888334Y6997063D01*
X10865279Y6993644D01*
X10842000Y6992500D01*
X10367000Y6992500D01*
X10343721Y6993644D01*
X10320666Y6997063D01*
X10298057Y7002727D01*
X10276113Y7010579D01*
X10255043Y7020544D01*
X10235052Y7032526D01*
X10216332Y7046410D01*
X10199062Y7062062D01*
X10183410Y7079332D01*
X10169526Y7098052D01*
X10157544Y7118043D01*
X10147579Y7139113D01*
X10139727Y7161057D01*
X10134063Y7183666D01*
X10130644Y7206721D01*
X10129500Y7230000D01*
X10129500Y7830000D01*
X10130644Y7853279D01*
X10134063Y7876334D01*
X10139727Y7898943D01*
X10147579Y7920887D01*
X10157544Y7941957D01*
X10169526Y7961948D01*
X10183410Y7980668D01*
X10199062Y7997938D01*
X10216332Y8013590D01*
X10235052Y8027474D01*
X10255043Y8039456D01*
X10276113Y8049421D01*
X10298057Y8057273D01*
X10320666Y8062937D01*
X10343721Y8066356D01*
X10367000Y8067500D01*
X10842000Y8067500D01*
X10865279Y8066356D01*
G37*
G36*
X10865279Y6341356D02*
G01*
X10888334Y6337937D01*
X10910943Y6332273D01*
X10932887Y6324421D01*
X10953957Y6314456D01*
X10973948Y6302474D01*
X10992668Y6288590D01*
X11009938Y6272938D01*
X11025590Y6255668D01*
X11039474Y6236948D01*
X11051456Y6216957D01*
X11061421Y6195887D01*
X11069273Y6173943D01*
X11074937Y6151334D01*
X11078356Y6128279D01*
X11079500Y6105000D01*
X11079500Y5505000D01*
X11078356Y5481721D01*
X11074937Y5458666D01*
X11069273Y5436057D01*
X11061421Y5414113D01*
X11051456Y5393043D01*
X11039474Y5373052D01*
X11025590Y5354332D01*
X11009938Y5337062D01*
X10992668Y5321410D01*
X10973948Y5307526D01*
X10953957Y5295544D01*
X10932887Y5285579D01*
X10910943Y5277727D01*
X10888334Y5272063D01*
X10865279Y5268644D01*
X10842000Y5267500D01*
X10367000Y5267500D01*
X10343721Y5268644D01*
X10320666Y5272063D01*
X10298057Y5277727D01*
X10276113Y5285579D01*
X10255043Y5295544D01*
X10235052Y5307526D01*
X10216332Y5321410D01*
X10199062Y5337062D01*
X10183410Y5354332D01*
X10169526Y5373052D01*
X10157544Y5393043D01*
X10147579Y5414113D01*
X10139727Y5436057D01*
X10134063Y5458666D01*
X10130644Y5481721D01*
X10129500Y5505000D01*
X10129500Y6105000D01*
X10130644Y6128279D01*
X10134063Y6151334D01*
X10139727Y6173943D01*
X10147579Y6195887D01*
X10157544Y6216957D01*
X10169526Y6236948D01*
X10183410Y6255668D01*
X10199062Y6272938D01*
X10216332Y6288590D01*
X10235052Y6302474D01*
X10255043Y6314456D01*
X10276113Y6324421D01*
X10298057Y6332273D01*
X10320666Y6337937D01*
X10343721Y6341356D01*
X10367000Y6342500D01*
X10842000Y6342500D01*
X10865279Y6341356D01*
G37*
%TD*%
%TO.C,C5*%
G36*
X5467779Y8066356D02*
G01*
X5490834Y8062937D01*
X5513443Y8057273D01*
X5535387Y8049421D01*
X5556457Y8039456D01*
X5576448Y8027474D01*
X5595168Y8013590D01*
X5612438Y7997938D01*
X5628090Y7980668D01*
X5641974Y7961948D01*
X5653956Y7941957D01*
X5663921Y7920887D01*
X5671773Y7898943D01*
X5677437Y7876334D01*
X5680856Y7853279D01*
X5682000Y7830000D01*
X5682000Y7230000D01*
X5680856Y7206721D01*
X5677437Y7183666D01*
X5671773Y7161057D01*
X5663921Y7139113D01*
X5653956Y7118043D01*
X5641974Y7098052D01*
X5628090Y7079332D01*
X5612438Y7062062D01*
X5595168Y7046410D01*
X5576448Y7032526D01*
X5556457Y7020544D01*
X5535387Y7010579D01*
X5513443Y7002727D01*
X5490834Y6997063D01*
X5467779Y6993644D01*
X5444500Y6992500D01*
X4969500Y6992500D01*
X4946221Y6993644D01*
X4923166Y6997063D01*
X4900557Y7002727D01*
X4878613Y7010579D01*
X4857543Y7020544D01*
X4837552Y7032526D01*
X4818832Y7046410D01*
X4801562Y7062062D01*
X4785910Y7079332D01*
X4772026Y7098052D01*
X4760044Y7118043D01*
X4750079Y7139113D01*
X4742227Y7161057D01*
X4736563Y7183666D01*
X4733144Y7206721D01*
X4732000Y7230000D01*
X4732000Y7830000D01*
X4733144Y7853279D01*
X4736563Y7876334D01*
X4742227Y7898943D01*
X4750079Y7920887D01*
X4760044Y7941957D01*
X4772026Y7961948D01*
X4785910Y7980668D01*
X4801562Y7997938D01*
X4818832Y8013590D01*
X4837552Y8027474D01*
X4857543Y8039456D01*
X4878613Y8049421D01*
X4900557Y8057273D01*
X4923166Y8062937D01*
X4946221Y8066356D01*
X4969500Y8067500D01*
X5444500Y8067500D01*
X5467779Y8066356D01*
G37*
G36*
X5467779Y6341356D02*
G01*
X5490834Y6337937D01*
X5513443Y6332273D01*
X5535387Y6324421D01*
X5556457Y6314456D01*
X5576448Y6302474D01*
X5595168Y6288590D01*
X5612438Y6272938D01*
X5628090Y6255668D01*
X5641974Y6236948D01*
X5653956Y6216957D01*
X5663921Y6195887D01*
X5671773Y6173943D01*
X5677437Y6151334D01*
X5680856Y6128279D01*
X5682000Y6105000D01*
X5682000Y5505000D01*
X5680856Y5481721D01*
X5677437Y5458666D01*
X5671773Y5436057D01*
X5663921Y5414113D01*
X5653956Y5393043D01*
X5641974Y5373052D01*
X5628090Y5354332D01*
X5612438Y5337062D01*
X5595168Y5321410D01*
X5576448Y5307526D01*
X5556457Y5295544D01*
X5535387Y5285579D01*
X5513443Y5277727D01*
X5490834Y5272063D01*
X5467779Y5268644D01*
X5444500Y5267500D01*
X4969500Y5267500D01*
X4946221Y5268644D01*
X4923166Y5272063D01*
X4900557Y5277727D01*
X4878613Y5285579D01*
X4857543Y5295544D01*
X4837552Y5307526D01*
X4818832Y5321410D01*
X4801562Y5337062D01*
X4785910Y5354332D01*
X4772026Y5373052D01*
X4760044Y5393043D01*
X4750079Y5414113D01*
X4742227Y5436057D01*
X4736563Y5458666D01*
X4733144Y5481721D01*
X4732000Y5505000D01*
X4732000Y6105000D01*
X4733144Y6128279D01*
X4736563Y6151334D01*
X4742227Y6173943D01*
X4750079Y6195887D01*
X4760044Y6216957D01*
X4772026Y6236948D01*
X4785910Y6255668D01*
X4801562Y6272938D01*
X4818832Y6288590D01*
X4837552Y6302474D01*
X4857543Y6314456D01*
X4878613Y6324421D01*
X4900557Y6332273D01*
X4923166Y6337937D01*
X4946221Y6341356D01*
X4969500Y6342500D01*
X5444500Y6342500D01*
X5467779Y6341356D01*
G37*
%TD*%
%TO.C,C11*%
G36*
X-2952221Y6506356D02*
G01*
X-2929166Y6502937D01*
X-2906557Y6497273D01*
X-2884613Y6489421D01*
X-2863543Y6479456D01*
X-2843552Y6467474D01*
X-2824832Y6453590D01*
X-2807562Y6437938D01*
X-2791910Y6420668D01*
X-2778026Y6401948D01*
X-2766044Y6381957D01*
X-2756079Y6360887D01*
X-2748227Y6338943D01*
X-2742563Y6316334D01*
X-2739144Y6293279D01*
X-2738000Y6270000D01*
X-2738000Y5795000D01*
X-2739144Y5771721D01*
X-2742563Y5748666D01*
X-2748227Y5726057D01*
X-2756079Y5704113D01*
X-2766044Y5683043D01*
X-2778026Y5663052D01*
X-2791910Y5644332D01*
X-2807562Y5627062D01*
X-2824832Y5611410D01*
X-2843552Y5597526D01*
X-2863543Y5585544D01*
X-2884613Y5575579D01*
X-2906557Y5567727D01*
X-2929166Y5562063D01*
X-2952221Y5558644D01*
X-2975500Y5557500D01*
X-3575500Y5557500D01*
X-3598779Y5558644D01*
X-3621834Y5562063D01*
X-3644443Y5567727D01*
X-3666387Y5575579D01*
X-3687457Y5585544D01*
X-3707448Y5597526D01*
X-3726168Y5611410D01*
X-3743438Y5627062D01*
X-3759090Y5644332D01*
X-3772974Y5663052D01*
X-3784956Y5683043D01*
X-3794921Y5704113D01*
X-3802773Y5726057D01*
X-3808437Y5748666D01*
X-3811856Y5771721D01*
X-3813000Y5795000D01*
X-3813000Y6270000D01*
X-3811856Y6293279D01*
X-3808437Y6316334D01*
X-3802773Y6338943D01*
X-3794921Y6360887D01*
X-3784956Y6381957D01*
X-3772974Y6401948D01*
X-3759090Y6420668D01*
X-3743438Y6437938D01*
X-3726168Y6453590D01*
X-3707448Y6467474D01*
X-3687457Y6479456D01*
X-3666387Y6489421D01*
X-3644443Y6497273D01*
X-3621834Y6502937D01*
X-3598779Y6506356D01*
X-3575500Y6507500D01*
X-2975500Y6507500D01*
X-2952221Y6506356D01*
G37*
G36*
X-1227221Y6506356D02*
G01*
X-1204166Y6502937D01*
X-1181557Y6497273D01*
X-1159613Y6489421D01*
X-1138543Y6479456D01*
X-1118552Y6467474D01*
X-1099832Y6453590D01*
X-1082562Y6437938D01*
X-1066910Y6420668D01*
X-1053026Y6401948D01*
X-1041044Y6381957D01*
X-1031079Y6360887D01*
X-1023227Y6338943D01*
X-1017563Y6316334D01*
X-1014144Y6293279D01*
X-1013000Y6270000D01*
X-1013000Y5795000D01*
X-1014144Y5771721D01*
X-1017563Y5748666D01*
X-1023227Y5726057D01*
X-1031079Y5704113D01*
X-1041044Y5683043D01*
X-1053026Y5663052D01*
X-1066910Y5644332D01*
X-1082562Y5627062D01*
X-1099832Y5611410D01*
X-1118552Y5597526D01*
X-1138543Y5585544D01*
X-1159613Y5575579D01*
X-1181557Y5567727D01*
X-1204166Y5562063D01*
X-1227221Y5558644D01*
X-1250500Y5557500D01*
X-1850500Y5557500D01*
X-1873779Y5558644D01*
X-1896834Y5562063D01*
X-1919443Y5567727D01*
X-1941387Y5575579D01*
X-1962457Y5585544D01*
X-1982448Y5597526D01*
X-2001168Y5611410D01*
X-2018438Y5627062D01*
X-2034090Y5644332D01*
X-2047974Y5663052D01*
X-2059956Y5683043D01*
X-2069921Y5704113D01*
X-2077773Y5726057D01*
X-2083437Y5748666D01*
X-2086856Y5771721D01*
X-2088000Y5795000D01*
X-2088000Y6270000D01*
X-2086856Y6293279D01*
X-2083437Y6316334D01*
X-2077773Y6338943D01*
X-2069921Y6360887D01*
X-2059956Y6381957D01*
X-2047974Y6401948D01*
X-2034090Y6420668D01*
X-2018438Y6437938D01*
X-2001168Y6453590D01*
X-1982448Y6467474D01*
X-1962457Y6479456D01*
X-1941387Y6489421D01*
X-1919443Y6497273D01*
X-1896834Y6502937D01*
X-1873779Y6506356D01*
X-1850500Y6507500D01*
X-1250500Y6507500D01*
X-1227221Y6506356D01*
G37*
%TD*%
%TO.C,C6*%
G36*
X6991779Y6341356D02*
G01*
X7014834Y6337937D01*
X7037443Y6332273D01*
X7059387Y6324421D01*
X7080457Y6314456D01*
X7100448Y6302474D01*
X7119168Y6288590D01*
X7136438Y6272938D01*
X7152090Y6255668D01*
X7165974Y6236948D01*
X7177956Y6216957D01*
X7187921Y6195887D01*
X7195773Y6173943D01*
X7201437Y6151334D01*
X7204856Y6128279D01*
X7206000Y6105000D01*
X7206000Y5505000D01*
X7204856Y5481721D01*
X7201437Y5458666D01*
X7195773Y5436057D01*
X7187921Y5414113D01*
X7177956Y5393043D01*
X7165974Y5373052D01*
X7152090Y5354332D01*
X7136438Y5337062D01*
X7119168Y5321410D01*
X7100448Y5307526D01*
X7080457Y5295544D01*
X7059387Y5285579D01*
X7037443Y5277727D01*
X7014834Y5272063D01*
X6991779Y5268644D01*
X6968500Y5267500D01*
X6493500Y5267500D01*
X6470221Y5268644D01*
X6447166Y5272063D01*
X6424557Y5277727D01*
X6402613Y5285579D01*
X6381543Y5295544D01*
X6361552Y5307526D01*
X6342832Y5321410D01*
X6325562Y5337062D01*
X6309910Y5354332D01*
X6296026Y5373052D01*
X6284044Y5393043D01*
X6274079Y5414113D01*
X6266227Y5436057D01*
X6260563Y5458666D01*
X6257144Y5481721D01*
X6256000Y5505000D01*
X6256000Y6105000D01*
X6257144Y6128279D01*
X6260563Y6151334D01*
X6266227Y6173943D01*
X6274079Y6195887D01*
X6284044Y6216957D01*
X6296026Y6236948D01*
X6309910Y6255668D01*
X6325562Y6272938D01*
X6342832Y6288590D01*
X6361552Y6302474D01*
X6381543Y6314456D01*
X6402613Y6324421D01*
X6424557Y6332273D01*
X6447166Y6337937D01*
X6470221Y6341356D01*
X6493500Y6342500D01*
X6968500Y6342500D01*
X6991779Y6341356D01*
G37*
G36*
X6991779Y8066356D02*
G01*
X7014834Y8062937D01*
X7037443Y8057273D01*
X7059387Y8049421D01*
X7080457Y8039456D01*
X7100448Y8027474D01*
X7119168Y8013590D01*
X7136438Y7997938D01*
X7152090Y7980668D01*
X7165974Y7961948D01*
X7177956Y7941957D01*
X7187921Y7920887D01*
X7195773Y7898943D01*
X7201437Y7876334D01*
X7204856Y7853279D01*
X7206000Y7830000D01*
X7206000Y7230000D01*
X7204856Y7206721D01*
X7201437Y7183666D01*
X7195773Y7161057D01*
X7187921Y7139113D01*
X7177956Y7118043D01*
X7165974Y7098052D01*
X7152090Y7079332D01*
X7136438Y7062062D01*
X7119168Y7046410D01*
X7100448Y7032526D01*
X7080457Y7020544D01*
X7059387Y7010579D01*
X7037443Y7002727D01*
X7014834Y6997063D01*
X6991779Y6993644D01*
X6968500Y6992500D01*
X6493500Y6992500D01*
X6470221Y6993644D01*
X6447166Y6997063D01*
X6424557Y7002727D01*
X6402613Y7010579D01*
X6381543Y7020544D01*
X6361552Y7032526D01*
X6342832Y7046410D01*
X6325562Y7062062D01*
X6309910Y7079332D01*
X6296026Y7098052D01*
X6284044Y7118043D01*
X6274079Y7139113D01*
X6266227Y7161057D01*
X6260563Y7183666D01*
X6257144Y7206721D01*
X6256000Y7230000D01*
X6256000Y7830000D01*
X6257144Y7853279D01*
X6260563Y7876334D01*
X6266227Y7898943D01*
X6274079Y7920887D01*
X6284044Y7941957D01*
X6296026Y7961948D01*
X6309910Y7980668D01*
X6325562Y7997938D01*
X6342832Y8013590D01*
X6361552Y8027474D01*
X6381543Y8039456D01*
X6402613Y8049421D01*
X6424557Y8057273D01*
X6447166Y8062937D01*
X6470221Y8066356D01*
X6493500Y8067500D01*
X6968500Y8067500D01*
X6991779Y8066356D01*
G37*
%TD*%
%TO.C,C3*%
G36*
X768779Y4827856D02*
G01*
X791834Y4824437D01*
X814443Y4818773D01*
X836387Y4810921D01*
X857457Y4800956D01*
X877448Y4788974D01*
X896168Y4775090D01*
X913438Y4759438D01*
X929090Y4742168D01*
X942974Y4723448D01*
X954956Y4703457D01*
X964921Y4682387D01*
X972773Y4660443D01*
X978437Y4637834D01*
X981856Y4614779D01*
X983000Y4591500D01*
X983000Y3991500D01*
X981856Y3968221D01*
X978437Y3945166D01*
X972773Y3922557D01*
X964921Y3900613D01*
X954956Y3879543D01*
X942974Y3859552D01*
X929090Y3840832D01*
X913438Y3823562D01*
X896168Y3807910D01*
X877448Y3794026D01*
X857457Y3782044D01*
X836387Y3772079D01*
X814443Y3764227D01*
X791834Y3758563D01*
X768779Y3755144D01*
X745500Y3754000D01*
X270500Y3754000D01*
X247221Y3755144D01*
X224166Y3758563D01*
X201557Y3764227D01*
X179613Y3772079D01*
X158543Y3782044D01*
X138552Y3794026D01*
X119832Y3807910D01*
X102562Y3823562D01*
X86910Y3840832D01*
X73026Y3859552D01*
X61044Y3879543D01*
X51079Y3900613D01*
X43227Y3922557D01*
X37563Y3945166D01*
X34144Y3968221D01*
X33000Y3991500D01*
X33000Y4591500D01*
X34144Y4614779D01*
X37563Y4637834D01*
X43227Y4660443D01*
X51079Y4682387D01*
X61044Y4703457D01*
X73026Y4723448D01*
X86910Y4742168D01*
X102562Y4759438D01*
X119832Y4775090D01*
X138552Y4788974D01*
X158543Y4800956D01*
X179613Y4810921D01*
X201557Y4818773D01*
X224166Y4824437D01*
X247221Y4827856D01*
X270500Y4829000D01*
X745500Y4829000D01*
X768779Y4827856D01*
G37*
G36*
X768779Y3102856D02*
G01*
X791834Y3099437D01*
X814443Y3093773D01*
X836387Y3085921D01*
X857457Y3075956D01*
X877448Y3063974D01*
X896168Y3050090D01*
X913438Y3034438D01*
X929090Y3017168D01*
X942974Y2998448D01*
X954956Y2978457D01*
X964921Y2957387D01*
X972773Y2935443D01*
X978437Y2912834D01*
X981856Y2889779D01*
X983000Y2866500D01*
X983000Y2266500D01*
X981856Y2243221D01*
X978437Y2220166D01*
X972773Y2197557D01*
X964921Y2175613D01*
X954956Y2154543D01*
X942974Y2134552D01*
X929090Y2115832D01*
X913438Y2098562D01*
X896168Y2082910D01*
X877448Y2069026D01*
X857457Y2057044D01*
X836387Y2047079D01*
X814443Y2039227D01*
X791834Y2033563D01*
X768779Y2030144D01*
X745500Y2029000D01*
X270500Y2029000D01*
X247221Y2030144D01*
X224166Y2033563D01*
X201557Y2039227D01*
X179613Y2047079D01*
X158543Y2057044D01*
X138552Y2069026D01*
X119832Y2082910D01*
X102562Y2098562D01*
X86910Y2115832D01*
X73026Y2134552D01*
X61044Y2154543D01*
X51079Y2175613D01*
X43227Y2197557D01*
X37563Y2220166D01*
X34144Y2243221D01*
X33000Y2266500D01*
X33000Y2866500D01*
X34144Y2889779D01*
X37563Y2912834D01*
X43227Y2935443D01*
X51079Y2957387D01*
X61044Y2978457D01*
X73026Y2998448D01*
X86910Y3017168D01*
X102562Y3034438D01*
X119832Y3050090D01*
X138552Y3063974D01*
X158543Y3075956D01*
X179613Y3085921D01*
X201557Y3093773D01*
X224166Y3099437D01*
X247221Y3102856D01*
X270500Y3104000D01*
X745500Y3104000D01*
X768779Y3102856D01*
G37*
%TD*%
%TO.C,R6*%
G36*
X3880279Y8066356D02*
G01*
X3903334Y8062937D01*
X3925943Y8057273D01*
X3947887Y8049421D01*
X3968957Y8039456D01*
X3988948Y8027474D01*
X4007668Y8013590D01*
X4024938Y7997938D01*
X4040590Y7980668D01*
X4054474Y7961948D01*
X4066456Y7941957D01*
X4076421Y7920887D01*
X4084273Y7898943D01*
X4089937Y7876334D01*
X4093356Y7853279D01*
X4094500Y7830000D01*
X4094500Y7330000D01*
X4093356Y7306721D01*
X4089937Y7283666D01*
X4084273Y7261057D01*
X4076421Y7239113D01*
X4066456Y7218043D01*
X4054474Y7198052D01*
X4040590Y7179332D01*
X4024938Y7162062D01*
X4007668Y7146410D01*
X3988948Y7132526D01*
X3968957Y7120544D01*
X3947887Y7110579D01*
X3925943Y7102727D01*
X3903334Y7097063D01*
X3880279Y7093644D01*
X3857000Y7092500D01*
X3382000Y7092500D01*
X3358721Y7093644D01*
X3335666Y7097063D01*
X3313057Y7102727D01*
X3291113Y7110579D01*
X3270043Y7120544D01*
X3250052Y7132526D01*
X3231332Y7146410D01*
X3214062Y7162062D01*
X3198410Y7179332D01*
X3184526Y7198052D01*
X3172544Y7218043D01*
X3162579Y7239113D01*
X3154727Y7261057D01*
X3149063Y7283666D01*
X3145644Y7306721D01*
X3144500Y7330000D01*
X3144500Y7830000D01*
X3145644Y7853279D01*
X3149063Y7876334D01*
X3154727Y7898943D01*
X3162579Y7920887D01*
X3172544Y7941957D01*
X3184526Y7961948D01*
X3198410Y7980668D01*
X3214062Y7997938D01*
X3231332Y8013590D01*
X3250052Y8027474D01*
X3270043Y8039456D01*
X3291113Y8049421D01*
X3313057Y8057273D01*
X3335666Y8062937D01*
X3358721Y8066356D01*
X3382000Y8067500D01*
X3857000Y8067500D01*
X3880279Y8066356D01*
G37*
G36*
X3880279Y6241356D02*
G01*
X3903334Y6237937D01*
X3925943Y6232273D01*
X3947887Y6224421D01*
X3968957Y6214456D01*
X3988948Y6202474D01*
X4007668Y6188590D01*
X4024938Y6172938D01*
X4040590Y6155668D01*
X4054474Y6136948D01*
X4066456Y6116957D01*
X4076421Y6095887D01*
X4084273Y6073943D01*
X4089937Y6051334D01*
X4093356Y6028279D01*
X4094500Y6005000D01*
X4094500Y5505000D01*
X4093356Y5481721D01*
X4089937Y5458666D01*
X4084273Y5436057D01*
X4076421Y5414113D01*
X4066456Y5393043D01*
X4054474Y5373052D01*
X4040590Y5354332D01*
X4024938Y5337062D01*
X4007668Y5321410D01*
X3988948Y5307526D01*
X3968957Y5295544D01*
X3947887Y5285579D01*
X3925943Y5277727D01*
X3903334Y5272063D01*
X3880279Y5268644D01*
X3857000Y5267500D01*
X3382000Y5267500D01*
X3358721Y5268644D01*
X3335666Y5272063D01*
X3313057Y5277727D01*
X3291113Y5285579D01*
X3270043Y5295544D01*
X3250052Y5307526D01*
X3231332Y5321410D01*
X3214062Y5337062D01*
X3198410Y5354332D01*
X3184526Y5373052D01*
X3172544Y5393043D01*
X3162579Y5414113D01*
X3154727Y5436057D01*
X3149063Y5458666D01*
X3145644Y5481721D01*
X3144500Y5505000D01*
X3144500Y6005000D01*
X3145644Y6028279D01*
X3149063Y6051334D01*
X3154727Y6073943D01*
X3162579Y6095887D01*
X3172544Y6116957D01*
X3184526Y6136948D01*
X3198410Y6155668D01*
X3214062Y6172938D01*
X3231332Y6188590D01*
X3250052Y6202474D01*
X3270043Y6214456D01*
X3291113Y6224421D01*
X3313057Y6232273D01*
X3335666Y6237937D01*
X3358721Y6241356D01*
X3382000Y6242500D01*
X3857000Y6242500D01*
X3880279Y6241356D01*
G37*
%TD*%
%TO.C,R7*%
G36*
X2343579Y8066356D02*
G01*
X2366634Y8062937D01*
X2389243Y8057273D01*
X2411187Y8049421D01*
X2432257Y8039456D01*
X2452248Y8027474D01*
X2470968Y8013590D01*
X2488238Y7997938D01*
X2503890Y7980668D01*
X2517774Y7961948D01*
X2529756Y7941957D01*
X2539721Y7920887D01*
X2547573Y7898943D01*
X2553237Y7876334D01*
X2556656Y7853279D01*
X2557800Y7830000D01*
X2557800Y7330000D01*
X2556656Y7306721D01*
X2553237Y7283666D01*
X2547573Y7261057D01*
X2539721Y7239113D01*
X2529756Y7218043D01*
X2517774Y7198052D01*
X2503890Y7179332D01*
X2488238Y7162062D01*
X2470968Y7146410D01*
X2452248Y7132526D01*
X2432257Y7120544D01*
X2411187Y7110579D01*
X2389243Y7102727D01*
X2366634Y7097063D01*
X2343579Y7093644D01*
X2320300Y7092500D01*
X1845300Y7092500D01*
X1822021Y7093644D01*
X1798966Y7097063D01*
X1776357Y7102727D01*
X1754413Y7110579D01*
X1733343Y7120544D01*
X1713352Y7132526D01*
X1694632Y7146410D01*
X1677362Y7162062D01*
X1661710Y7179332D01*
X1647826Y7198052D01*
X1635844Y7218043D01*
X1625879Y7239113D01*
X1618027Y7261057D01*
X1612363Y7283666D01*
X1608944Y7306721D01*
X1607800Y7330000D01*
X1607800Y7830000D01*
X1608944Y7853279D01*
X1612363Y7876334D01*
X1618027Y7898943D01*
X1625879Y7920887D01*
X1635844Y7941957D01*
X1647826Y7961948D01*
X1661710Y7980668D01*
X1677362Y7997938D01*
X1694632Y8013590D01*
X1713352Y8027474D01*
X1733343Y8039456D01*
X1754413Y8049421D01*
X1776357Y8057273D01*
X1798966Y8062937D01*
X1822021Y8066356D01*
X1845300Y8067500D01*
X2320300Y8067500D01*
X2343579Y8066356D01*
G37*
G36*
X2343579Y6241356D02*
G01*
X2366634Y6237937D01*
X2389243Y6232273D01*
X2411187Y6224421D01*
X2432257Y6214456D01*
X2452248Y6202474D01*
X2470968Y6188590D01*
X2488238Y6172938D01*
X2503890Y6155668D01*
X2517774Y6136948D01*
X2529756Y6116957D01*
X2539721Y6095887D01*
X2547573Y6073943D01*
X2553237Y6051334D01*
X2556656Y6028279D01*
X2557800Y6005000D01*
X2557800Y5505000D01*
X2556656Y5481721D01*
X2553237Y5458666D01*
X2547573Y5436057D01*
X2539721Y5414113D01*
X2529756Y5393043D01*
X2517774Y5373052D01*
X2503890Y5354332D01*
X2488238Y5337062D01*
X2470968Y5321410D01*
X2452248Y5307526D01*
X2432257Y5295544D01*
X2411187Y5285579D01*
X2389243Y5277727D01*
X2366634Y5272063D01*
X2343579Y5268644D01*
X2320300Y5267500D01*
X1845300Y5267500D01*
X1822021Y5268644D01*
X1798966Y5272063D01*
X1776357Y5277727D01*
X1754413Y5285579D01*
X1733343Y5295544D01*
X1713352Y5307526D01*
X1694632Y5321410D01*
X1677362Y5337062D01*
X1661710Y5354332D01*
X1647826Y5373052D01*
X1635844Y5393043D01*
X1625879Y5414113D01*
X1618027Y5436057D01*
X1612363Y5458666D01*
X1608944Y5481721D01*
X1607800Y5505000D01*
X1607800Y6005000D01*
X1608944Y6028279D01*
X1612363Y6051334D01*
X1618027Y6073943D01*
X1625879Y6095887D01*
X1635844Y6116957D01*
X1647826Y6136948D01*
X1661710Y6155668D01*
X1677362Y6172938D01*
X1694632Y6188590D01*
X1713352Y6202474D01*
X1733343Y6214456D01*
X1754413Y6224421D01*
X1776357Y6232273D01*
X1798966Y6237937D01*
X1822021Y6241356D01*
X1845300Y6242500D01*
X2320300Y6242500D01*
X2343579Y6241356D01*
G37*
%TD*%
%TO.C,R8*%
G36*
X768779Y6241356D02*
G01*
X791834Y6237937D01*
X814443Y6232273D01*
X836387Y6224421D01*
X857457Y6214456D01*
X877448Y6202474D01*
X896168Y6188590D01*
X913438Y6172938D01*
X929090Y6155668D01*
X942974Y6136948D01*
X954956Y6116957D01*
X964921Y6095887D01*
X972773Y6073943D01*
X978437Y6051334D01*
X981856Y6028279D01*
X983000Y6005000D01*
X983000Y5505000D01*
X981856Y5481721D01*
X978437Y5458666D01*
X972773Y5436057D01*
X964921Y5414113D01*
X954956Y5393043D01*
X942974Y5373052D01*
X929090Y5354332D01*
X913438Y5337062D01*
X896168Y5321410D01*
X877448Y5307526D01*
X857457Y5295544D01*
X836387Y5285579D01*
X814443Y5277727D01*
X791834Y5272063D01*
X768779Y5268644D01*
X745500Y5267500D01*
X270500Y5267500D01*
X247221Y5268644D01*
X224166Y5272063D01*
X201557Y5277727D01*
X179613Y5285579D01*
X158543Y5295544D01*
X138552Y5307526D01*
X119832Y5321410D01*
X102562Y5337062D01*
X86910Y5354332D01*
X73026Y5373052D01*
X61044Y5393043D01*
X51079Y5414113D01*
X43227Y5436057D01*
X37563Y5458666D01*
X34144Y5481721D01*
X33000Y5505000D01*
X33000Y6005000D01*
X34144Y6028279D01*
X37563Y6051334D01*
X43227Y6073943D01*
X51079Y6095887D01*
X61044Y6116957D01*
X73026Y6136948D01*
X86910Y6155668D01*
X102562Y6172938D01*
X119832Y6188590D01*
X138552Y6202474D01*
X158543Y6214456D01*
X179613Y6224421D01*
X201557Y6232273D01*
X224166Y6237937D01*
X247221Y6241356D01*
X270500Y6242500D01*
X745500Y6242500D01*
X768779Y6241356D01*
G37*
G36*
X768779Y8066356D02*
G01*
X791834Y8062937D01*
X814443Y8057273D01*
X836387Y8049421D01*
X857457Y8039456D01*
X877448Y8027474D01*
X896168Y8013590D01*
X913438Y7997938D01*
X929090Y7980668D01*
X942974Y7961948D01*
X954956Y7941957D01*
X964921Y7920887D01*
X972773Y7898943D01*
X978437Y7876334D01*
X981856Y7853279D01*
X983000Y7830000D01*
X983000Y7330000D01*
X981856Y7306721D01*
X978437Y7283666D01*
X972773Y7261057D01*
X964921Y7239113D01*
X954956Y7218043D01*
X942974Y7198052D01*
X929090Y7179332D01*
X913438Y7162062D01*
X896168Y7146410D01*
X877448Y7132526D01*
X857457Y7120544D01*
X836387Y7110579D01*
X814443Y7102727D01*
X791834Y7097063D01*
X768779Y7093644D01*
X745500Y7092500D01*
X270500Y7092500D01*
X247221Y7093644D01*
X224166Y7097063D01*
X201557Y7102727D01*
X179613Y7110579D01*
X158543Y7120544D01*
X138552Y7132526D01*
X119832Y7146410D01*
X102562Y7162062D01*
X86910Y7179332D01*
X73026Y7198052D01*
X61044Y7218043D01*
X51079Y7239113D01*
X43227Y7261057D01*
X37563Y7283666D01*
X34144Y7306721D01*
X33000Y7330000D01*
X33000Y7830000D01*
X34144Y7853279D01*
X37563Y7876334D01*
X43227Y7898943D01*
X51079Y7920887D01*
X61044Y7941957D01*
X73026Y7961948D01*
X86910Y7980668D01*
X102562Y7997938D01*
X119832Y8013590D01*
X138552Y8027474D01*
X158543Y8039456D01*
X179613Y8049421D01*
X201557Y8057273D01*
X224166Y8062937D01*
X247221Y8066356D01*
X270500Y8067500D01*
X745500Y8067500D01*
X768779Y8066356D01*
G37*
%TD*%
%TO.C,C8*%
G36*
X-8451421Y6468356D02*
G01*
X-8428366Y6464937D01*
X-8405757Y6459273D01*
X-8383813Y6451421D01*
X-8362743Y6441456D01*
X-8342752Y6429474D01*
X-8324032Y6415590D01*
X-8306762Y6399938D01*
X-8291110Y6382668D01*
X-8277226Y6363948D01*
X-8265244Y6343957D01*
X-8255279Y6322887D01*
X-8247427Y6300943D01*
X-8241763Y6278334D01*
X-8238344Y6255279D01*
X-8237200Y6232000D01*
X-8237200Y5632000D01*
X-8238344Y5608721D01*
X-8241763Y5585666D01*
X-8247427Y5563057D01*
X-8255279Y5541113D01*
X-8265244Y5520043D01*
X-8277226Y5500052D01*
X-8291110Y5481332D01*
X-8306762Y5464062D01*
X-8324032Y5448410D01*
X-8342752Y5434526D01*
X-8362743Y5422544D01*
X-8383813Y5412579D01*
X-8405757Y5404727D01*
X-8428366Y5399063D01*
X-8451421Y5395644D01*
X-8474700Y5394500D01*
X-8949700Y5394500D01*
X-8972979Y5395644D01*
X-8996034Y5399063D01*
X-9018643Y5404727D01*
X-9040587Y5412579D01*
X-9061657Y5422544D01*
X-9081648Y5434526D01*
X-9100368Y5448410D01*
X-9117638Y5464062D01*
X-9133290Y5481332D01*
X-9147174Y5500052D01*
X-9159156Y5520043D01*
X-9169121Y5541113D01*
X-9176973Y5563057D01*
X-9182637Y5585666D01*
X-9186056Y5608721D01*
X-9187200Y5632000D01*
X-9187200Y6232000D01*
X-9186056Y6255279D01*
X-9182637Y6278334D01*
X-9176973Y6300943D01*
X-9169121Y6322887D01*
X-9159156Y6343957D01*
X-9147174Y6363948D01*
X-9133290Y6382668D01*
X-9117638Y6399938D01*
X-9100368Y6415590D01*
X-9081648Y6429474D01*
X-9061657Y6441456D01*
X-9040587Y6451421D01*
X-9018643Y6459273D01*
X-8996034Y6464937D01*
X-8972979Y6468356D01*
X-8949700Y6469500D01*
X-8474700Y6469500D01*
X-8451421Y6468356D01*
G37*
G36*
X-8451421Y8193356D02*
G01*
X-8428366Y8189937D01*
X-8405757Y8184273D01*
X-8383813Y8176421D01*
X-8362743Y8166456D01*
X-8342752Y8154474D01*
X-8324032Y8140590D01*
X-8306762Y8124938D01*
X-8291110Y8107668D01*
X-8277226Y8088948D01*
X-8265244Y8068957D01*
X-8255279Y8047887D01*
X-8247427Y8025943D01*
X-8241763Y8003334D01*
X-8238344Y7980279D01*
X-8237200Y7957000D01*
X-8237200Y7357000D01*
X-8238344Y7333721D01*
X-8241763Y7310666D01*
X-8247427Y7288057D01*
X-8255279Y7266113D01*
X-8265244Y7245043D01*
X-8277226Y7225052D01*
X-8291110Y7206332D01*
X-8306762Y7189062D01*
X-8324032Y7173410D01*
X-8342752Y7159526D01*
X-8362743Y7147544D01*
X-8383813Y7137579D01*
X-8405757Y7129727D01*
X-8428366Y7124063D01*
X-8451421Y7120644D01*
X-8474700Y7119500D01*
X-8949700Y7119500D01*
X-8972979Y7120644D01*
X-8996034Y7124063D01*
X-9018643Y7129727D01*
X-9040587Y7137579D01*
X-9061657Y7147544D01*
X-9081648Y7159526D01*
X-9100368Y7173410D01*
X-9117638Y7189062D01*
X-9133290Y7206332D01*
X-9147174Y7225052D01*
X-9159156Y7245043D01*
X-9169121Y7266113D01*
X-9176973Y7288057D01*
X-9182637Y7310666D01*
X-9186056Y7333721D01*
X-9187200Y7357000D01*
X-9187200Y7957000D01*
X-9186056Y7980279D01*
X-9182637Y8003334D01*
X-9176973Y8025943D01*
X-9169121Y8047887D01*
X-9159156Y8068957D01*
X-9147174Y8088948D01*
X-9133290Y8107668D01*
X-9117638Y8124938D01*
X-9100368Y8140590D01*
X-9081648Y8154474D01*
X-9061657Y8166456D01*
X-9040587Y8176421D01*
X-9018643Y8184273D01*
X-8996034Y8189937D01*
X-8972979Y8193356D01*
X-8949700Y8194500D01*
X-8474700Y8194500D01*
X-8451421Y8193356D01*
G37*
%TD*%
M02*
