%TF.GenerationSoftware,KiCad,Pcbnew,5.1.5+dfsg1-2build2*%
%TF.CreationDate,2022-05-20T22:28:17-07:00*%
%TF.ProjectId,v1.0-RubberNugget,76312e30-2d52-4756-9262-65724e756767,rev?*%
%TF.SameCoordinates,Original*%
%TF.FileFunction,Soldermask,Top*%
%TF.FilePolarity,Negative*%
%FSLAX46Y46*%
G04 Gerber Fmt 4.6, Leading zero omitted, Abs format (unit mm)*
G04 Created by KiCad (PCBNEW 5.1.5+dfsg1-2build2) date 2022-05-20 22:28:17*
%MOMM*%
%LPD*%
G04 APERTURE LIST*
%TA.AperFunction,Profile*%
%ADD10C,0.200000*%
%TD*%
%ADD11C,0.010000*%
%ADD12R,2.180000X1.600000*%
%ADD13C,3.800000*%
%ADD14C,0.600000*%
%ADD15O,1.700000X0.900000*%
%ADD16O,2.000000X0.900000*%
%ADD17C,0.750000*%
%ADD18R,1.500000X1.000000*%
G04 APERTURE END LIST*
D10*
X-19000000Y-17000000D02*
X-19000000Y17000000D01*
X-11000000Y-23000000D02*
X-19000000Y-17000000D01*
X11000000Y-23000000D02*
X-11000000Y-23000000D01*
X19000000Y-17000000D02*
X11000000Y-23000000D01*
X19000000Y17000000D02*
X19000000Y-17000000D01*
X12500000Y27000000D02*
X19000000Y17000000D01*
X6000000Y17000000D02*
X12500000Y27000000D01*
X-6000000Y17000000D02*
X6000000Y17000000D01*
X-12500000Y27000000D02*
X-6000000Y17000000D01*
X-19000000Y17000000D02*
X-12500000Y27000000D01*
D11*
%TO.C,Ref\002A\002A*%
G36*
X-12592561Y27249102D02*
G01*
X-12550415Y27187341D01*
X-12483038Y27086667D01*
X-12391642Y26948933D01*
X-12277437Y26775988D01*
X-12141635Y26569684D01*
X-11985446Y26331871D01*
X-11810083Y26064401D01*
X-11616756Y25769125D01*
X-11406676Y25447892D01*
X-11181055Y25102555D01*
X-10941104Y24734964D01*
X-10688034Y24346970D01*
X-10423056Y23940424D01*
X-10147381Y23517177D01*
X-9862221Y23079079D01*
X-9568787Y22627982D01*
X-9296504Y22209151D01*
X-6007308Y17148201D01*
X-111585Y17148201D01*
X5784138Y17148200D01*
X9072780Y22209150D01*
X9372625Y22670432D01*
X9665301Y23120378D01*
X9949597Y23557139D01*
X10224301Y23978864D01*
X10488202Y24383703D01*
X10740089Y24769806D01*
X10978751Y25135322D01*
X11202976Y25478402D01*
X11411553Y25797194D01*
X11603271Y26089850D01*
X11776919Y26354517D01*
X11931285Y26589347D01*
X12065159Y26792489D01*
X12177328Y26962092D01*
X12266582Y27096307D01*
X12331710Y27193283D01*
X12371500Y27251169D01*
X12384661Y27268316D01*
X12400419Y27247156D01*
X12442637Y27185227D01*
X12510109Y27084370D01*
X12601634Y26946424D01*
X12716006Y26773227D01*
X12852021Y26566620D01*
X13008477Y26328441D01*
X13184168Y26060531D01*
X13377891Y25764728D01*
X13588443Y25442871D01*
X13814619Y25096801D01*
X14055215Y24728356D01*
X14309027Y24339376D01*
X14574853Y23931700D01*
X14851487Y23507168D01*
X15137725Y23067618D01*
X15432365Y22614891D01*
X15734202Y22150825D01*
X15741650Y22139370D01*
X19075400Y17012209D01*
X19075400Y-17129201D01*
X15019829Y-20170800D01*
X10964258Y-23212400D01*
X-112221Y-23212179D01*
X-11188700Y-23211959D01*
X-15245069Y-20170529D01*
X-19301438Y-17129100D01*
X-19303994Y16893497D01*
X-18923001Y16893497D01*
X-18923001Y-21895D01*
X-18923000Y-16937287D01*
X-14979650Y-19896448D01*
X-11036300Y-22855608D01*
X-116425Y-22856204D01*
X10803451Y-22856800D01*
X14748925Y-19897670D01*
X18694399Y-16938541D01*
X18694400Y-20950D01*
X18694400Y16896641D01*
X18601793Y17041471D01*
X18553893Y17116030D01*
X18481727Y17227857D01*
X18386811Y17374621D01*
X18270662Y17553989D01*
X18134796Y17763630D01*
X17980728Y18001212D01*
X17809975Y18264404D01*
X17624052Y18550874D01*
X17424477Y18858291D01*
X17212765Y19184322D01*
X16990431Y19526636D01*
X16758993Y19882901D01*
X16519965Y20250786D01*
X16274865Y20627959D01*
X16025208Y21012088D01*
X15772510Y21400842D01*
X15518288Y21791889D01*
X15264057Y22182897D01*
X15011333Y22571534D01*
X14761633Y22955470D01*
X14516473Y23332372D01*
X14277368Y23699908D01*
X14045835Y24055748D01*
X13823390Y24397559D01*
X13611548Y24723009D01*
X13411827Y25029768D01*
X13225741Y25315502D01*
X13054808Y25577882D01*
X12900542Y25814574D01*
X12764461Y26023247D01*
X12648080Y26201571D01*
X12552915Y26347212D01*
X12480482Y26457839D01*
X12432298Y26531121D01*
X12409878Y26564726D01*
X12408465Y26566667D01*
X12400150Y26562985D01*
X12381811Y26543210D01*
X12352540Y26505965D01*
X12311429Y26449875D01*
X12257568Y26373567D01*
X12190050Y26275663D01*
X12107965Y26154790D01*
X12010406Y26009573D01*
X11896465Y25838635D01*
X11765231Y25640602D01*
X11615798Y25414100D01*
X11447257Y25157752D01*
X11258698Y24870183D01*
X11049215Y24550020D01*
X10817897Y24195885D01*
X10563837Y23806405D01*
X10286127Y23380205D01*
X9983857Y22915908D01*
X9656119Y22412140D01*
X9302006Y21867526D01*
X9182397Y21683517D01*
X5986942Y16767201D01*
X-6210300Y16767211D01*
X-9398000Y21671708D01*
X-9693188Y22125811D01*
X-9981131Y22568646D01*
X-10260602Y22998328D01*
X-10530372Y23412972D01*
X-10789212Y23810695D01*
X-11035894Y24189612D01*
X-11269189Y24547837D01*
X-11487869Y24883487D01*
X-11690704Y25194676D01*
X-11876467Y25479520D01*
X-12043928Y25736135D01*
X-12191860Y25962635D01*
X-12319033Y26157137D01*
X-12424219Y26317755D01*
X-12506190Y26442606D01*
X-12563716Y26529803D01*
X-12595569Y26577464D01*
X-12601897Y26586338D01*
X-12617039Y26566297D01*
X-12658595Y26505524D01*
X-12725331Y26405905D01*
X-12816013Y26269325D01*
X-12929407Y26097668D01*
X-13064279Y25892822D01*
X-13219395Y25656671D01*
X-13393521Y25391100D01*
X-13585422Y25097995D01*
X-13793866Y24779242D01*
X-14017618Y24436725D01*
X-14255443Y24072331D01*
X-14506109Y23687944D01*
X-14768381Y23285450D01*
X-15041024Y22866735D01*
X-15322806Y22433683D01*
X-15612492Y21988180D01*
X-15770547Y21744984D01*
X-18923001Y16893497D01*
X-19303994Y16893497D01*
X-19304000Y16970400D01*
X-19234150Y16971208D01*
X-19186966Y16973934D01*
X-19185527Y16986451D01*
X-19213022Y17008882D01*
X-19246106Y17046001D01*
X-19239339Y17091227D01*
X-19233767Y17103324D01*
X-19215351Y17134086D01*
X-19170901Y17204660D01*
X-19101885Y17312794D01*
X-19009769Y17456237D01*
X-18896021Y17632738D01*
X-18762108Y17840046D01*
X-18609497Y18075907D01*
X-18439656Y18338072D01*
X-18254052Y18624289D01*
X-18054152Y18932306D01*
X-17841423Y19259872D01*
X-17617332Y19604735D01*
X-17383348Y19964644D01*
X-17140936Y20337347D01*
X-16891565Y20720594D01*
X-16636701Y21112131D01*
X-16377812Y21509709D01*
X-16116365Y21911075D01*
X-15853827Y22313979D01*
X-15591666Y22716168D01*
X-15331348Y23115391D01*
X-15074341Y23509397D01*
X-14822113Y23895934D01*
X-14576129Y24272751D01*
X-14337859Y24637596D01*
X-14108768Y24988218D01*
X-13890325Y25322365D01*
X-13683995Y25637786D01*
X-13491248Y25932230D01*
X-13313549Y26203444D01*
X-13152366Y26449178D01*
X-13009167Y26667180D01*
X-12885418Y26855199D01*
X-12782587Y27010983D01*
X-12702141Y27132280D01*
X-12645547Y27216839D01*
X-12614273Y27262410D01*
X-12608265Y27270100D01*
X-12592561Y27249102D01*
G37*
X-12592561Y27249102D02*
X-12550415Y27187341D01*
X-12483038Y27086667D01*
X-12391642Y26948933D01*
X-12277437Y26775988D01*
X-12141635Y26569684D01*
X-11985446Y26331871D01*
X-11810083Y26064401D01*
X-11616756Y25769125D01*
X-11406676Y25447892D01*
X-11181055Y25102555D01*
X-10941104Y24734964D01*
X-10688034Y24346970D01*
X-10423056Y23940424D01*
X-10147381Y23517177D01*
X-9862221Y23079079D01*
X-9568787Y22627982D01*
X-9296504Y22209151D01*
X-6007308Y17148201D01*
X-111585Y17148201D01*
X5784138Y17148200D01*
X9072780Y22209150D01*
X9372625Y22670432D01*
X9665301Y23120378D01*
X9949597Y23557139D01*
X10224301Y23978864D01*
X10488202Y24383703D01*
X10740089Y24769806D01*
X10978751Y25135322D01*
X11202976Y25478402D01*
X11411553Y25797194D01*
X11603271Y26089850D01*
X11776919Y26354517D01*
X11931285Y26589347D01*
X12065159Y26792489D01*
X12177328Y26962092D01*
X12266582Y27096307D01*
X12331710Y27193283D01*
X12371500Y27251169D01*
X12384661Y27268316D01*
X12400419Y27247156D01*
X12442637Y27185227D01*
X12510109Y27084370D01*
X12601634Y26946424D01*
X12716006Y26773227D01*
X12852021Y26566620D01*
X13008477Y26328441D01*
X13184168Y26060531D01*
X13377891Y25764728D01*
X13588443Y25442871D01*
X13814619Y25096801D01*
X14055215Y24728356D01*
X14309027Y24339376D01*
X14574853Y23931700D01*
X14851487Y23507168D01*
X15137725Y23067618D01*
X15432365Y22614891D01*
X15734202Y22150825D01*
X15741650Y22139370D01*
X19075400Y17012209D01*
X19075400Y-17129201D01*
X15019829Y-20170800D01*
X10964258Y-23212400D01*
X-112221Y-23212179D01*
X-11188700Y-23211959D01*
X-15245069Y-20170529D01*
X-19301438Y-17129100D01*
X-19303994Y16893497D01*
X-18923001Y16893497D01*
X-18923001Y-21895D01*
X-18923000Y-16937287D01*
X-14979650Y-19896448D01*
X-11036300Y-22855608D01*
X-116425Y-22856204D01*
X10803451Y-22856800D01*
X14748925Y-19897670D01*
X18694399Y-16938541D01*
X18694400Y-20950D01*
X18694400Y16896641D01*
X18601793Y17041471D01*
X18553893Y17116030D01*
X18481727Y17227857D01*
X18386811Y17374621D01*
X18270662Y17553989D01*
X18134796Y17763630D01*
X17980728Y18001212D01*
X17809975Y18264404D01*
X17624052Y18550874D01*
X17424477Y18858291D01*
X17212765Y19184322D01*
X16990431Y19526636D01*
X16758993Y19882901D01*
X16519965Y20250786D01*
X16274865Y20627959D01*
X16025208Y21012088D01*
X15772510Y21400842D01*
X15518288Y21791889D01*
X15264057Y22182897D01*
X15011333Y22571534D01*
X14761633Y22955470D01*
X14516473Y23332372D01*
X14277368Y23699908D01*
X14045835Y24055748D01*
X13823390Y24397559D01*
X13611548Y24723009D01*
X13411827Y25029768D01*
X13225741Y25315502D01*
X13054808Y25577882D01*
X12900542Y25814574D01*
X12764461Y26023247D01*
X12648080Y26201571D01*
X12552915Y26347212D01*
X12480482Y26457839D01*
X12432298Y26531121D01*
X12409878Y26564726D01*
X12408465Y26566667D01*
X12400150Y26562985D01*
X12381811Y26543210D01*
X12352540Y26505965D01*
X12311429Y26449875D01*
X12257568Y26373567D01*
X12190050Y26275663D01*
X12107965Y26154790D01*
X12010406Y26009573D01*
X11896465Y25838635D01*
X11765231Y25640602D01*
X11615798Y25414100D01*
X11447257Y25157752D01*
X11258698Y24870183D01*
X11049215Y24550020D01*
X10817897Y24195885D01*
X10563837Y23806405D01*
X10286127Y23380205D01*
X9983857Y22915908D01*
X9656119Y22412140D01*
X9302006Y21867526D01*
X9182397Y21683517D01*
X5986942Y16767201D01*
X-6210300Y16767211D01*
X-9398000Y21671708D01*
X-9693188Y22125811D01*
X-9981131Y22568646D01*
X-10260602Y22998328D01*
X-10530372Y23412972D01*
X-10789212Y23810695D01*
X-11035894Y24189612D01*
X-11269189Y24547837D01*
X-11487869Y24883487D01*
X-11690704Y25194676D01*
X-11876467Y25479520D01*
X-12043928Y25736135D01*
X-12191860Y25962635D01*
X-12319033Y26157137D01*
X-12424219Y26317755D01*
X-12506190Y26442606D01*
X-12563716Y26529803D01*
X-12595569Y26577464D01*
X-12601897Y26586338D01*
X-12617039Y26566297D01*
X-12658595Y26505524D01*
X-12725331Y26405905D01*
X-12816013Y26269325D01*
X-12929407Y26097668D01*
X-13064279Y25892822D01*
X-13219395Y25656671D01*
X-13393521Y25391100D01*
X-13585422Y25097995D01*
X-13793866Y24779242D01*
X-14017618Y24436725D01*
X-14255443Y24072331D01*
X-14506109Y23687944D01*
X-14768381Y23285450D01*
X-15041024Y22866735D01*
X-15322806Y22433683D01*
X-15612492Y21988180D01*
X-15770547Y21744984D01*
X-18923001Y16893497D01*
X-19303994Y16893497D01*
X-19304000Y16970400D01*
X-19234150Y16971208D01*
X-19186966Y16973934D01*
X-19185527Y16986451D01*
X-19213022Y17008882D01*
X-19246106Y17046001D01*
X-19239339Y17091227D01*
X-19233767Y17103324D01*
X-19215351Y17134086D01*
X-19170901Y17204660D01*
X-19101885Y17312794D01*
X-19009769Y17456237D01*
X-18896021Y17632738D01*
X-18762108Y17840046D01*
X-18609497Y18075907D01*
X-18439656Y18338072D01*
X-18254052Y18624289D01*
X-18054152Y18932306D01*
X-17841423Y19259872D01*
X-17617332Y19604735D01*
X-17383348Y19964644D01*
X-17140936Y20337347D01*
X-16891565Y20720594D01*
X-16636701Y21112131D01*
X-16377812Y21509709D01*
X-16116365Y21911075D01*
X-15853827Y22313979D01*
X-15591666Y22716168D01*
X-15331348Y23115391D01*
X-15074341Y23509397D01*
X-14822113Y23895934D01*
X-14576129Y24272751D01*
X-14337859Y24637596D01*
X-14108768Y24988218D01*
X-13890325Y25322365D01*
X-13683995Y25637786D01*
X-13491248Y25932230D01*
X-13313549Y26203444D01*
X-13152366Y26449178D01*
X-13009167Y26667180D01*
X-12885418Y26855199D01*
X-12782587Y27010983D01*
X-12702141Y27132280D01*
X-12645547Y27216839D01*
X-12614273Y27262410D01*
X-12608265Y27270100D01*
X-12592561Y27249102D01*
G36*
X-9815641Y-18557798D02*
G01*
X-9717043Y-18575739D01*
X-9449053Y-18660375D01*
X-9202722Y-18787393D01*
X-8981786Y-18951723D01*
X-8789982Y-19148293D01*
X-8631047Y-19372032D01*
X-8508718Y-19617869D01*
X-8426731Y-19880734D01*
X-8388822Y-20155554D01*
X-8392156Y-20373758D01*
X-8440175Y-20662567D01*
X-8531771Y-20930902D01*
X-8662796Y-21175465D01*
X-8829102Y-21392959D01*
X-9026542Y-21580088D01*
X-9250967Y-21733555D01*
X-9498230Y-21850063D01*
X-9764183Y-21926315D01*
X-10044679Y-21959016D01*
X-10335569Y-21944867D01*
X-10363890Y-21940923D01*
X-10619461Y-21879113D01*
X-10869495Y-21773073D01*
X-11104647Y-21629082D01*
X-11315576Y-21453423D01*
X-11492939Y-21252377D01*
X-11577848Y-21124748D01*
X-11700836Y-20867002D01*
X-11778620Y-20592826D01*
X-11810894Y-20309551D01*
X-11807906Y-20246619D01*
X-11629960Y-20246619D01*
X-11625433Y-20424589D01*
X-11609396Y-20551377D01*
X-11544698Y-20771149D01*
X-11439029Y-20990654D01*
X-11300722Y-21197391D01*
X-11138110Y-21378857D01*
X-10964022Y-21519584D01*
X-10726957Y-21648169D01*
X-10471602Y-21734312D01*
X-10206593Y-21776719D01*
X-9940560Y-21774097D01*
X-9682139Y-21725153D01*
X-9652000Y-21716090D01*
X-9404543Y-21612657D01*
X-9178016Y-21466821D01*
X-8978509Y-21284670D01*
X-8812108Y-21072295D01*
X-8684901Y-20835782D01*
X-8633906Y-20697800D01*
X-8575158Y-20427987D01*
X-8565797Y-20159026D01*
X-8604582Y-19895905D01*
X-8690268Y-19643613D01*
X-8821612Y-19407140D01*
X-8997373Y-19191474D01*
X-9013280Y-19175304D01*
X-9221867Y-18993175D01*
X-9439025Y-18859036D01*
X-9671364Y-18770116D01*
X-9925494Y-18723641D01*
X-10111206Y-18714870D01*
X-10381845Y-18739154D01*
X-10639867Y-18809895D01*
X-10879907Y-18923291D01*
X-11096603Y-19075541D01*
X-11284590Y-19262846D01*
X-11438506Y-19481404D01*
X-11552986Y-19727413D01*
X-11557324Y-19739641D01*
X-11594669Y-19884861D01*
X-11619293Y-20060282D01*
X-11629960Y-20246619D01*
X-11807906Y-20246619D01*
X-11797357Y-20024507D01*
X-11737704Y-19745024D01*
X-11644913Y-19505503D01*
X-11495234Y-19248743D01*
X-11309710Y-19027924D01*
X-11088844Y-18843498D01*
X-10833141Y-18695920D01*
X-10668000Y-18626995D01*
X-10478219Y-18575601D01*
X-10260625Y-18546275D01*
X-10033629Y-18540010D01*
X-9815641Y-18557798D01*
G37*
X-9815641Y-18557798D02*
X-9717043Y-18575739D01*
X-9449053Y-18660375D01*
X-9202722Y-18787393D01*
X-8981786Y-18951723D01*
X-8789982Y-19148293D01*
X-8631047Y-19372032D01*
X-8508718Y-19617869D01*
X-8426731Y-19880734D01*
X-8388822Y-20155554D01*
X-8392156Y-20373758D01*
X-8440175Y-20662567D01*
X-8531771Y-20930902D01*
X-8662796Y-21175465D01*
X-8829102Y-21392959D01*
X-9026542Y-21580088D01*
X-9250967Y-21733555D01*
X-9498230Y-21850063D01*
X-9764183Y-21926315D01*
X-10044679Y-21959016D01*
X-10335569Y-21944867D01*
X-10363890Y-21940923D01*
X-10619461Y-21879113D01*
X-10869495Y-21773073D01*
X-11104647Y-21629082D01*
X-11315576Y-21453423D01*
X-11492939Y-21252377D01*
X-11577848Y-21124748D01*
X-11700836Y-20867002D01*
X-11778620Y-20592826D01*
X-11810894Y-20309551D01*
X-11807906Y-20246619D01*
X-11629960Y-20246619D01*
X-11625433Y-20424589D01*
X-11609396Y-20551377D01*
X-11544698Y-20771149D01*
X-11439029Y-20990654D01*
X-11300722Y-21197391D01*
X-11138110Y-21378857D01*
X-10964022Y-21519584D01*
X-10726957Y-21648169D01*
X-10471602Y-21734312D01*
X-10206593Y-21776719D01*
X-9940560Y-21774097D01*
X-9682139Y-21725153D01*
X-9652000Y-21716090D01*
X-9404543Y-21612657D01*
X-9178016Y-21466821D01*
X-8978509Y-21284670D01*
X-8812108Y-21072295D01*
X-8684901Y-20835782D01*
X-8633906Y-20697800D01*
X-8575158Y-20427987D01*
X-8565797Y-20159026D01*
X-8604582Y-19895905D01*
X-8690268Y-19643613D01*
X-8821612Y-19407140D01*
X-8997373Y-19191474D01*
X-9013280Y-19175304D01*
X-9221867Y-18993175D01*
X-9439025Y-18859036D01*
X-9671364Y-18770116D01*
X-9925494Y-18723641D01*
X-10111206Y-18714870D01*
X-10381845Y-18739154D01*
X-10639867Y-18809895D01*
X-10879907Y-18923291D01*
X-11096603Y-19075541D01*
X-11284590Y-19262846D01*
X-11438506Y-19481404D01*
X-11552986Y-19727413D01*
X-11557324Y-19739641D01*
X-11594669Y-19884861D01*
X-11619293Y-20060282D01*
X-11629960Y-20246619D01*
X-11807906Y-20246619D01*
X-11797357Y-20024507D01*
X-11737704Y-19745024D01*
X-11644913Y-19505503D01*
X-11495234Y-19248743D01*
X-11309710Y-19027924D01*
X-11088844Y-18843498D01*
X-10833141Y-18695920D01*
X-10668000Y-18626995D01*
X-10478219Y-18575601D01*
X-10260625Y-18546275D01*
X-10033629Y-18540010D01*
X-9815641Y-18557798D01*
G36*
X-4384067Y-20661599D02*
G01*
X-4308083Y-20669316D01*
X-4252875Y-20685881D01*
X-4203470Y-20714324D01*
X-4194391Y-20720687D01*
X-4131552Y-20773164D01*
X-4084758Y-20833813D01*
X-4051809Y-20910645D01*
X-4030507Y-21011670D01*
X-4018655Y-21144899D01*
X-4014053Y-21318342D01*
X-4013758Y-21378919D01*
X-4015367Y-21534372D01*
X-4020349Y-21663977D01*
X-4028226Y-21759907D01*
X-4038522Y-21814339D01*
X-4040645Y-21819220D01*
X-4085255Y-21870556D01*
X-4159442Y-21906973D01*
X-4268934Y-21929941D01*
X-4419455Y-21940929D01*
X-4520385Y-21942400D01*
X-4800600Y-21942400D01*
X-4800600Y-21715577D01*
X-4540250Y-21708338D01*
X-4279900Y-21701100D01*
X-4271894Y-21589143D01*
X-4263888Y-21477187D01*
X-4325331Y-21517445D01*
X-4445658Y-21568205D01*
X-4575181Y-21576206D01*
X-4702870Y-21545287D01*
X-4817696Y-21479291D01*
X-4908631Y-21382058D01*
X-4951443Y-21299396D01*
X-4978570Y-21166942D01*
X-4974530Y-21103772D01*
X-4699000Y-21103772D01*
X-4687951Y-21208144D01*
X-4650075Y-21279668D01*
X-4584700Y-21328869D01*
X-4520605Y-21353884D01*
X-4459107Y-21348383D01*
X-4393583Y-21319780D01*
X-4327238Y-21259510D01*
X-4292340Y-21172658D01*
X-4290122Y-21073479D01*
X-4321816Y-20976229D01*
X-4359268Y-20922900D01*
X-4425247Y-20884044D01*
X-4510730Y-20876727D01*
X-4595847Y-20900387D01*
X-4640213Y-20930827D01*
X-4680699Y-20984725D01*
X-4697388Y-21057334D01*
X-4699000Y-21103772D01*
X-4974530Y-21103772D01*
X-4969563Y-21026114D01*
X-4928353Y-20891664D01*
X-4858873Y-20778344D01*
X-4797210Y-20720687D01*
X-4747288Y-20689876D01*
X-4694160Y-20671469D01*
X-4622851Y-20662435D01*
X-4518388Y-20659744D01*
X-4495800Y-20659700D01*
X-4384067Y-20661599D01*
G37*
X-4384067Y-20661599D02*
X-4308083Y-20669316D01*
X-4252875Y-20685881D01*
X-4203470Y-20714324D01*
X-4194391Y-20720687D01*
X-4131552Y-20773164D01*
X-4084758Y-20833813D01*
X-4051809Y-20910645D01*
X-4030507Y-21011670D01*
X-4018655Y-21144899D01*
X-4014053Y-21318342D01*
X-4013758Y-21378919D01*
X-4015367Y-21534372D01*
X-4020349Y-21663977D01*
X-4028226Y-21759907D01*
X-4038522Y-21814339D01*
X-4040645Y-21819220D01*
X-4085255Y-21870556D01*
X-4159442Y-21906973D01*
X-4268934Y-21929941D01*
X-4419455Y-21940929D01*
X-4520385Y-21942400D01*
X-4800600Y-21942400D01*
X-4800600Y-21715577D01*
X-4540250Y-21708338D01*
X-4279900Y-21701100D01*
X-4271894Y-21589143D01*
X-4263888Y-21477187D01*
X-4325331Y-21517445D01*
X-4445658Y-21568205D01*
X-4575181Y-21576206D01*
X-4702870Y-21545287D01*
X-4817696Y-21479291D01*
X-4908631Y-21382058D01*
X-4951443Y-21299396D01*
X-4978570Y-21166942D01*
X-4974530Y-21103772D01*
X-4699000Y-21103772D01*
X-4687951Y-21208144D01*
X-4650075Y-21279668D01*
X-4584700Y-21328869D01*
X-4520605Y-21353884D01*
X-4459107Y-21348383D01*
X-4393583Y-21319780D01*
X-4327238Y-21259510D01*
X-4292340Y-21172658D01*
X-4290122Y-21073479D01*
X-4321816Y-20976229D01*
X-4359268Y-20922900D01*
X-4425247Y-20884044D01*
X-4510730Y-20876727D01*
X-4595847Y-20900387D01*
X-4640213Y-20930827D01*
X-4680699Y-20984725D01*
X-4697388Y-21057334D01*
X-4699000Y-21103772D01*
X-4974530Y-21103772D01*
X-4969563Y-21026114D01*
X-4928353Y-20891664D01*
X-4858873Y-20778344D01*
X-4797210Y-20720687D01*
X-4747288Y-20689876D01*
X-4694160Y-20671469D01*
X-4622851Y-20662435D01*
X-4518388Y-20659744D01*
X-4495800Y-20659700D01*
X-4384067Y-20661599D01*
G36*
X-3245621Y-20659162D02*
G01*
X-3123391Y-20695714D01*
X-3028947Y-20765979D01*
X-2954656Y-20873245D01*
X-2931438Y-20921212D01*
X-2915222Y-20969070D01*
X-2904769Y-21027036D01*
X-2898839Y-21105330D01*
X-2896196Y-21214170D01*
X-2895600Y-21360541D01*
X-2897273Y-21498959D01*
X-2901869Y-21623925D01*
X-2908756Y-21724384D01*
X-2917304Y-21789283D01*
X-2920839Y-21802275D01*
X-2956824Y-21858275D01*
X-3019753Y-21898546D01*
X-3115588Y-21924821D01*
X-3250292Y-21938834D01*
X-3402785Y-21942400D01*
X-3683000Y-21942400D01*
X-3683000Y-21713800D01*
X-3431718Y-21713800D01*
X-3308979Y-21712562D01*
X-3228246Y-21705581D01*
X-3180732Y-21687953D01*
X-3157649Y-21654778D01*
X-3150210Y-21601150D01*
X-3149600Y-21556401D01*
X-3149600Y-21479357D01*
X-3219450Y-21525819D01*
X-3314263Y-21563316D01*
X-3432252Y-21574172D01*
X-3553626Y-21558846D01*
X-3658591Y-21517796D01*
X-3662261Y-21515568D01*
X-3758343Y-21428401D01*
X-3822541Y-21312824D01*
X-3854606Y-21180174D01*
X-3854514Y-21139450D01*
X-3590717Y-21139450D01*
X-3561776Y-21231003D01*
X-3509400Y-21301741D01*
X-3485017Y-21318865D01*
X-3411212Y-21350951D01*
X-3349860Y-21350872D01*
X-3278417Y-21321039D01*
X-3222588Y-21282319D01*
X-3190779Y-21242762D01*
X-3174138Y-21148876D01*
X-3183993Y-21045343D01*
X-3217223Y-20957561D01*
X-3227644Y-20942525D01*
X-3298282Y-20887655D01*
X-3381912Y-20872958D01*
X-3465895Y-20894751D01*
X-3537589Y-20949348D01*
X-3584353Y-21033065D01*
X-3588377Y-21047664D01*
X-3590717Y-21139450D01*
X-3854514Y-21139450D01*
X-3854290Y-21041787D01*
X-3821347Y-20909001D01*
X-3755530Y-20793149D01*
X-3679610Y-20720687D01*
X-3620187Y-20686124D01*
X-3551144Y-20665610D01*
X-3455515Y-20654946D01*
X-3403600Y-20652405D01*
X-3245621Y-20659162D01*
G37*
X-3245621Y-20659162D02*
X-3123391Y-20695714D01*
X-3028947Y-20765979D01*
X-2954656Y-20873245D01*
X-2931438Y-20921212D01*
X-2915222Y-20969070D01*
X-2904769Y-21027036D01*
X-2898839Y-21105330D01*
X-2896196Y-21214170D01*
X-2895600Y-21360541D01*
X-2897273Y-21498959D01*
X-2901869Y-21623925D01*
X-2908756Y-21724384D01*
X-2917304Y-21789283D01*
X-2920839Y-21802275D01*
X-2956824Y-21858275D01*
X-3019753Y-21898546D01*
X-3115588Y-21924821D01*
X-3250292Y-21938834D01*
X-3402785Y-21942400D01*
X-3683000Y-21942400D01*
X-3683000Y-21713800D01*
X-3431718Y-21713800D01*
X-3308979Y-21712562D01*
X-3228246Y-21705581D01*
X-3180732Y-21687953D01*
X-3157649Y-21654778D01*
X-3150210Y-21601150D01*
X-3149600Y-21556401D01*
X-3149600Y-21479357D01*
X-3219450Y-21525819D01*
X-3314263Y-21563316D01*
X-3432252Y-21574172D01*
X-3553626Y-21558846D01*
X-3658591Y-21517796D01*
X-3662261Y-21515568D01*
X-3758343Y-21428401D01*
X-3822541Y-21312824D01*
X-3854606Y-21180174D01*
X-3854514Y-21139450D01*
X-3590717Y-21139450D01*
X-3561776Y-21231003D01*
X-3509400Y-21301741D01*
X-3485017Y-21318865D01*
X-3411212Y-21350951D01*
X-3349860Y-21350872D01*
X-3278417Y-21321039D01*
X-3222588Y-21282319D01*
X-3190779Y-21242762D01*
X-3174138Y-21148876D01*
X-3183993Y-21045343D01*
X-3217223Y-20957561D01*
X-3227644Y-20942525D01*
X-3298282Y-20887655D01*
X-3381912Y-20872958D01*
X-3465895Y-20894751D01*
X-3537589Y-20949348D01*
X-3584353Y-21033065D01*
X-3588377Y-21047664D01*
X-3590717Y-21139450D01*
X-3854514Y-21139450D01*
X-3854290Y-21041787D01*
X-3821347Y-20909001D01*
X-3755530Y-20793149D01*
X-3679610Y-20720687D01*
X-3620187Y-20686124D01*
X-3551144Y-20665610D01*
X-3455515Y-20654946D01*
X-3403600Y-20652405D01*
X-3245621Y-20659162D01*
G36*
X-6974550Y-20320320D02*
G01*
X-6876129Y-20368555D01*
X-6786685Y-20458144D01*
X-6770670Y-20478942D01*
X-6749924Y-20512077D01*
X-6734761Y-20553314D01*
X-6723887Y-20611664D01*
X-6716009Y-20696136D01*
X-6709830Y-20815742D01*
X-6705600Y-20931900D01*
X-6699812Y-21082996D01*
X-6693373Y-21191016D01*
X-6685234Y-21263682D01*
X-6674345Y-21308718D01*
X-6659659Y-21333847D01*
X-6649937Y-21341759D01*
X-6606351Y-21353203D01*
X-6558353Y-21324717D01*
X-6554687Y-21321445D01*
X-6536387Y-21302079D01*
X-6522932Y-21276969D01*
X-6513580Y-21238663D01*
X-6507592Y-21179712D01*
X-6504226Y-21092666D01*
X-6502743Y-20970074D01*
X-6502401Y-20804486D01*
X-6502400Y-20795463D01*
X-6502400Y-20316800D01*
X-6223000Y-20316800D01*
X-6223142Y-20780350D01*
X-6224593Y-20935725D01*
X-6228529Y-21079735D01*
X-6234474Y-21202140D01*
X-6241947Y-21292706D01*
X-6249159Y-21337060D01*
X-6286726Y-21415742D01*
X-6347782Y-21493008D01*
X-6364201Y-21508510D01*
X-6424671Y-21555104D01*
X-6482826Y-21578550D01*
X-6561035Y-21586312D01*
X-6598534Y-21586705D01*
X-6732213Y-21573622D01*
X-6825017Y-21537028D01*
X-6883441Y-21495429D01*
X-6925920Y-21446954D01*
X-6954882Y-21383156D01*
X-6972754Y-21295587D01*
X-6981964Y-21175799D01*
X-6984940Y-21015344D01*
X-6985000Y-20980275D01*
X-6986014Y-20832490D01*
X-6989604Y-20727332D01*
X-6996593Y-20656657D01*
X-7007805Y-20612322D01*
X-7024061Y-20586183D01*
X-7024915Y-20585314D01*
X-7070120Y-20553025D01*
X-7096035Y-20545400D01*
X-7126487Y-20549994D01*
X-7149471Y-20567860D01*
X-7166010Y-20605119D01*
X-7177128Y-20667892D01*
X-7183848Y-20762301D01*
X-7187195Y-20894467D01*
X-7188190Y-21070513D01*
X-7188200Y-21096580D01*
X-7188200Y-21586800D01*
X-7467600Y-21586800D01*
X-7467506Y-21072450D01*
X-7467072Y-20895598D01*
X-7465423Y-20761933D01*
X-7461926Y-20663845D01*
X-7455945Y-20593724D01*
X-7446849Y-20543959D01*
X-7434002Y-20506941D01*
X-7417918Y-20476930D01*
X-7338242Y-20380220D01*
X-7238101Y-20324941D01*
X-7107930Y-20306010D01*
X-7096100Y-20305914D01*
X-6974550Y-20320320D01*
G37*
X-6974550Y-20320320D02*
X-6876129Y-20368555D01*
X-6786685Y-20458144D01*
X-6770670Y-20478942D01*
X-6749924Y-20512077D01*
X-6734761Y-20553314D01*
X-6723887Y-20611664D01*
X-6716009Y-20696136D01*
X-6709830Y-20815742D01*
X-6705600Y-20931900D01*
X-6699812Y-21082996D01*
X-6693373Y-21191016D01*
X-6685234Y-21263682D01*
X-6674345Y-21308718D01*
X-6659659Y-21333847D01*
X-6649937Y-21341759D01*
X-6606351Y-21353203D01*
X-6558353Y-21324717D01*
X-6554687Y-21321445D01*
X-6536387Y-21302079D01*
X-6522932Y-21276969D01*
X-6513580Y-21238663D01*
X-6507592Y-21179712D01*
X-6504226Y-21092666D01*
X-6502743Y-20970074D01*
X-6502401Y-20804486D01*
X-6502400Y-20795463D01*
X-6502400Y-20316800D01*
X-6223000Y-20316800D01*
X-6223142Y-20780350D01*
X-6224593Y-20935725D01*
X-6228529Y-21079735D01*
X-6234474Y-21202140D01*
X-6241947Y-21292706D01*
X-6249159Y-21337060D01*
X-6286726Y-21415742D01*
X-6347782Y-21493008D01*
X-6364201Y-21508510D01*
X-6424671Y-21555104D01*
X-6482826Y-21578550D01*
X-6561035Y-21586312D01*
X-6598534Y-21586705D01*
X-6732213Y-21573622D01*
X-6825017Y-21537028D01*
X-6883441Y-21495429D01*
X-6925920Y-21446954D01*
X-6954882Y-21383156D01*
X-6972754Y-21295587D01*
X-6981964Y-21175799D01*
X-6984940Y-21015344D01*
X-6985000Y-20980275D01*
X-6986014Y-20832490D01*
X-6989604Y-20727332D01*
X-6996593Y-20656657D01*
X-7007805Y-20612322D01*
X-7024061Y-20586183D01*
X-7024915Y-20585314D01*
X-7070120Y-20553025D01*
X-7096035Y-20545400D01*
X-7126487Y-20549994D01*
X-7149471Y-20567860D01*
X-7166010Y-20605119D01*
X-7177128Y-20667892D01*
X-7183848Y-20762301D01*
X-7187195Y-20894467D01*
X-7188190Y-21070513D01*
X-7188200Y-21096580D01*
X-7188200Y-21586800D01*
X-7467600Y-21586800D01*
X-7467506Y-21072450D01*
X-7467072Y-20895598D01*
X-7465423Y-20761933D01*
X-7461926Y-20663845D01*
X-7455945Y-20593724D01*
X-7446849Y-20543959D01*
X-7434002Y-20506941D01*
X-7417918Y-20476930D01*
X-7338242Y-20380220D01*
X-7238101Y-20324941D01*
X-7107930Y-20306010D01*
X-7096100Y-20305914D01*
X-6974550Y-20320320D01*
G36*
X-5765800Y-20951800D02*
G01*
X-5764944Y-21083509D01*
X-5761428Y-21174383D01*
X-5753831Y-21234370D01*
X-5740731Y-21273420D01*
X-5720707Y-21301482D01*
X-5715000Y-21307400D01*
X-5639799Y-21349732D01*
X-5549778Y-21353053D01*
X-5466652Y-21318659D01*
X-5443093Y-21299092D01*
X-5427188Y-21273179D01*
X-5417441Y-21231507D01*
X-5412360Y-21164665D01*
X-5410451Y-21063243D01*
X-5410200Y-20963059D01*
X-5410200Y-20647000D01*
X-5126865Y-20647000D01*
X-5135183Y-20988139D01*
X-5139509Y-21130185D01*
X-5145377Y-21231261D01*
X-5154251Y-21301195D01*
X-5167594Y-21349817D01*
X-5186869Y-21386956D01*
X-5196636Y-21400889D01*
X-5289045Y-21500179D01*
X-5394764Y-21559452D01*
X-5526614Y-21584796D01*
X-5588000Y-21586800D01*
X-5695420Y-21582435D01*
X-5771308Y-21566532D01*
X-5834402Y-21534880D01*
X-5842259Y-21529650D01*
X-5913586Y-21477126D01*
X-5964747Y-21425443D01*
X-5999364Y-21364748D01*
X-6021059Y-21285187D01*
X-6033456Y-21176906D01*
X-6040175Y-21030051D01*
X-6041343Y-20988079D01*
X-6050185Y-20647000D01*
X-5765800Y-20647000D01*
X-5765800Y-20951800D01*
G37*
X-5765800Y-20951800D02*
X-5764944Y-21083509D01*
X-5761428Y-21174383D01*
X-5753831Y-21234370D01*
X-5740731Y-21273420D01*
X-5720707Y-21301482D01*
X-5715000Y-21307400D01*
X-5639799Y-21349732D01*
X-5549778Y-21353053D01*
X-5466652Y-21318659D01*
X-5443093Y-21299092D01*
X-5427188Y-21273179D01*
X-5417441Y-21231507D01*
X-5412360Y-21164665D01*
X-5410451Y-21063243D01*
X-5410200Y-20963059D01*
X-5410200Y-20647000D01*
X-5126865Y-20647000D01*
X-5135183Y-20988139D01*
X-5139509Y-21130185D01*
X-5145377Y-21231261D01*
X-5154251Y-21301195D01*
X-5167594Y-21349817D01*
X-5186869Y-21386956D01*
X-5196636Y-21400889D01*
X-5289045Y-21500179D01*
X-5394764Y-21559452D01*
X-5526614Y-21584796D01*
X-5588000Y-21586800D01*
X-5695420Y-21582435D01*
X-5771308Y-21566532D01*
X-5834402Y-21534880D01*
X-5842259Y-21529650D01*
X-5913586Y-21477126D01*
X-5964747Y-21425443D01*
X-5999364Y-21364748D01*
X-6021059Y-21285187D01*
X-6033456Y-21176906D01*
X-6040175Y-21030051D01*
X-6041343Y-20988079D01*
X-6050185Y-20647000D01*
X-5765800Y-20647000D01*
X-5765800Y-20951800D01*
G36*
X-2131015Y-20662594D02*
G01*
X-2014049Y-20718553D01*
X-1930112Y-20812582D01*
X-1878115Y-20945742D01*
X-1860788Y-21055345D01*
X-1847145Y-21205800D01*
X-2154676Y-21205800D01*
X-2288937Y-21206986D01*
X-2378726Y-21211003D01*
X-2430327Y-21218540D01*
X-2450023Y-21230282D01*
X-2449813Y-21238096D01*
X-2402197Y-21291713D01*
X-2307055Y-21329520D01*
X-2165237Y-21351200D01*
X-2139950Y-21353045D01*
X-1955800Y-21364880D01*
X-1955800Y-21586800D01*
X-2127250Y-21584200D01*
X-2229446Y-21579958D01*
X-2322927Y-21571539D01*
X-2378958Y-21562476D01*
X-2525642Y-21504641D01*
X-2637443Y-21411777D01*
X-2710742Y-21288391D01*
X-2741921Y-21138990D01*
X-2742783Y-21109288D01*
X-2729356Y-21000515D01*
X-2457730Y-21000515D01*
X-2425993Y-21019823D01*
X-2348861Y-21027355D01*
X-2298700Y-21028000D01*
X-2201731Y-21024595D01*
X-2148823Y-21013531D01*
X-2133600Y-20994754D01*
X-2156439Y-20932709D01*
X-2214995Y-20881885D01*
X-2265672Y-20861857D01*
X-2325719Y-20859925D01*
X-2380941Y-20892994D01*
X-2399022Y-20910112D01*
X-2447572Y-20965316D01*
X-2457730Y-21000515D01*
X-2729356Y-21000515D01*
X-2722887Y-20948112D01*
X-2663947Y-20818171D01*
X-2568722Y-20722254D01*
X-2439973Y-20663150D01*
X-2282097Y-20643640D01*
X-2131015Y-20662594D01*
G37*
X-2131015Y-20662594D02*
X-2014049Y-20718553D01*
X-1930112Y-20812582D01*
X-1878115Y-20945742D01*
X-1860788Y-21055345D01*
X-1847145Y-21205800D01*
X-2154676Y-21205800D01*
X-2288937Y-21206986D01*
X-2378726Y-21211003D01*
X-2430327Y-21218540D01*
X-2450023Y-21230282D01*
X-2449813Y-21238096D01*
X-2402197Y-21291713D01*
X-2307055Y-21329520D01*
X-2165237Y-21351200D01*
X-2139950Y-21353045D01*
X-1955800Y-21364880D01*
X-1955800Y-21586800D01*
X-2127250Y-21584200D01*
X-2229446Y-21579958D01*
X-2322927Y-21571539D01*
X-2378958Y-21562476D01*
X-2525642Y-21504641D01*
X-2637443Y-21411777D01*
X-2710742Y-21288391D01*
X-2741921Y-21138990D01*
X-2742783Y-21109288D01*
X-2729356Y-21000515D01*
X-2457730Y-21000515D01*
X-2425993Y-21019823D01*
X-2348861Y-21027355D01*
X-2298700Y-21028000D01*
X-2201731Y-21024595D01*
X-2148823Y-21013531D01*
X-2133600Y-20994754D01*
X-2156439Y-20932709D01*
X-2214995Y-20881885D01*
X-2265672Y-20861857D01*
X-2325719Y-20859925D01*
X-2380941Y-20892994D01*
X-2399022Y-20910112D01*
X-2447572Y-20965316D01*
X-2457730Y-21000515D01*
X-2729356Y-21000515D01*
X-2722887Y-20948112D01*
X-2663947Y-20818171D01*
X-2568722Y-20722254D01*
X-2439973Y-20663150D01*
X-2282097Y-20643640D01*
X-2131015Y-20662594D01*
G36*
X-1517650Y-20423422D02*
G01*
X-1384300Y-20431100D01*
X-1368680Y-20647000D01*
X-1143000Y-20647000D01*
X-1143000Y-20875600D01*
X-1373507Y-20875600D01*
X-1366204Y-21110550D01*
X-1358900Y-21345500D01*
X-1143000Y-21361120D01*
X-1143000Y-21586800D01*
X-1289050Y-21586221D01*
X-1386000Y-21578949D01*
X-1474954Y-21560964D01*
X-1514274Y-21546584D01*
X-1571312Y-21509674D01*
X-1610528Y-21458925D01*
X-1634898Y-21385238D01*
X-1647396Y-21279514D01*
X-1650999Y-21132652D01*
X-1651000Y-21128404D01*
X-1651000Y-20875600D01*
X-1727200Y-20875600D01*
X-1774057Y-20872286D01*
X-1796250Y-20853155D01*
X-1802970Y-20804420D01*
X-1803400Y-20761300D01*
X-1801192Y-20691015D01*
X-1788438Y-20657725D01*
X-1755948Y-20647646D01*
X-1727200Y-20647000D01*
X-1680538Y-20643749D01*
X-1658306Y-20624856D01*
X-1651471Y-20576611D01*
X-1651000Y-20531372D01*
X-1651000Y-20415745D01*
X-1517650Y-20423422D01*
G37*
X-1517650Y-20423422D02*
X-1384300Y-20431100D01*
X-1368680Y-20647000D01*
X-1143000Y-20647000D01*
X-1143000Y-20875600D01*
X-1373507Y-20875600D01*
X-1366204Y-21110550D01*
X-1358900Y-21345500D01*
X-1143000Y-21361120D01*
X-1143000Y-21586800D01*
X-1289050Y-21586221D01*
X-1386000Y-21578949D01*
X-1474954Y-21560964D01*
X-1514274Y-21546584D01*
X-1571312Y-21509674D01*
X-1610528Y-21458925D01*
X-1634898Y-21385238D01*
X-1647396Y-21279514D01*
X-1650999Y-21132652D01*
X-1651000Y-21128404D01*
X-1651000Y-20875600D01*
X-1727200Y-20875600D01*
X-1774057Y-20872286D01*
X-1796250Y-20853155D01*
X-1802970Y-20804420D01*
X-1803400Y-20761300D01*
X-1801192Y-20691015D01*
X-1788438Y-20657725D01*
X-1755948Y-20647646D01*
X-1727200Y-20647000D01*
X-1680538Y-20643749D01*
X-1658306Y-20624856D01*
X-1651471Y-20576611D01*
X-1651000Y-20531372D01*
X-1651000Y-20415745D01*
X-1517650Y-20423422D01*
G36*
X-6019800Y-19492454D02*
G01*
X-6019161Y-19619514D01*
X-6016002Y-19706393D01*
X-6008461Y-19763704D01*
X-5994680Y-19802060D01*
X-5972796Y-19832077D01*
X-5957455Y-19848054D01*
X-5895551Y-19891370D01*
X-5831602Y-19910363D01*
X-5829300Y-19910400D01*
X-5765968Y-19892790D01*
X-5703330Y-19850200D01*
X-5701146Y-19848054D01*
X-5674269Y-19818169D01*
X-5656471Y-19785509D01*
X-5645889Y-19739462D01*
X-5640665Y-19669413D01*
X-5638936Y-19564748D01*
X-5638800Y-19492454D01*
X-5638800Y-19199200D01*
X-5384800Y-19199200D01*
X-5384800Y-19523446D01*
X-5386089Y-19667043D01*
X-5390762Y-19770482D01*
X-5400026Y-19844356D01*
X-5415092Y-19899261D01*
X-5431895Y-19936196D01*
X-5513529Y-20037475D01*
X-5630321Y-20104967D01*
X-5777442Y-20136218D01*
X-5829300Y-20138164D01*
X-5952315Y-20128851D01*
X-6050046Y-20097509D01*
X-6080656Y-20081432D01*
X-6152963Y-20032595D01*
X-6205167Y-19975826D01*
X-6240308Y-19902344D01*
X-6261424Y-19803367D01*
X-6271555Y-19670115D01*
X-6273800Y-19523446D01*
X-6273800Y-19199200D01*
X-6019800Y-19199200D01*
X-6019800Y-19492454D01*
G37*
X-6019800Y-19492454D02*
X-6019161Y-19619514D01*
X-6016002Y-19706393D01*
X-6008461Y-19763704D01*
X-5994680Y-19802060D01*
X-5972796Y-19832077D01*
X-5957455Y-19848054D01*
X-5895551Y-19891370D01*
X-5831602Y-19910363D01*
X-5829300Y-19910400D01*
X-5765968Y-19892790D01*
X-5703330Y-19850200D01*
X-5701146Y-19848054D01*
X-5674269Y-19818169D01*
X-5656471Y-19785509D01*
X-5645889Y-19739462D01*
X-5640665Y-19669413D01*
X-5638936Y-19564748D01*
X-5638800Y-19492454D01*
X-5638800Y-19199200D01*
X-5384800Y-19199200D01*
X-5384800Y-19523446D01*
X-5386089Y-19667043D01*
X-5390762Y-19770482D01*
X-5400026Y-19844356D01*
X-5415092Y-19899261D01*
X-5431895Y-19936196D01*
X-5513529Y-20037475D01*
X-5630321Y-20104967D01*
X-5777442Y-20136218D01*
X-5829300Y-20138164D01*
X-5952315Y-20128851D01*
X-6050046Y-20097509D01*
X-6080656Y-20081432D01*
X-6152963Y-20032595D01*
X-6205167Y-19975826D01*
X-6240308Y-19902344D01*
X-6261424Y-19803367D01*
X-6271555Y-19670115D01*
X-6273800Y-19523446D01*
X-6273800Y-19199200D01*
X-6019800Y-19199200D01*
X-6019800Y-19492454D01*
G36*
X-4927600Y-19048916D02*
G01*
X-4925676Y-19148673D01*
X-4920516Y-19224461D01*
X-4913038Y-19265630D01*
X-4908550Y-19269827D01*
X-4761534Y-19206456D01*
X-4636145Y-19182118D01*
X-4521997Y-19196399D01*
X-4408707Y-19248886D01*
X-4407106Y-19249873D01*
X-4312000Y-19336354D01*
X-4249184Y-19450896D01*
X-4218305Y-19582637D01*
X-4219008Y-19720715D01*
X-4250940Y-19854268D01*
X-4313747Y-19972434D01*
X-4407074Y-20064352D01*
X-4434206Y-20081432D01*
X-4540532Y-20120382D01*
X-4670885Y-20137723D01*
X-4802858Y-20132440D01*
X-4914042Y-20103523D01*
X-4914900Y-20103144D01*
X-5028392Y-20025507D01*
X-5116886Y-19906960D01*
X-5142288Y-19853719D01*
X-5157237Y-19806127D01*
X-5168108Y-19740499D01*
X-5173470Y-19673679D01*
X-4902200Y-19673679D01*
X-4892472Y-19763469D01*
X-4857745Y-19828523D01*
X-4839855Y-19848054D01*
X-4764394Y-19895799D01*
X-4677938Y-19910576D01*
X-4598766Y-19891310D01*
X-4563555Y-19864300D01*
X-4504813Y-19769837D01*
X-4482604Y-19666078D01*
X-4495835Y-19565988D01*
X-4543416Y-19482531D01*
X-4599297Y-19439519D01*
X-4693475Y-19414225D01*
X-4778649Y-19433632D01*
X-4846944Y-19491650D01*
X-4890484Y-19582193D01*
X-4902200Y-19673679D01*
X-5173470Y-19673679D01*
X-5175424Y-19649334D01*
X-5179706Y-19525130D01*
X-5181477Y-19360389D01*
X-5181600Y-19288915D01*
X-5181600Y-18818200D01*
X-4927600Y-18818200D01*
X-4927600Y-19048916D01*
G37*
X-4927600Y-19048916D02*
X-4925676Y-19148673D01*
X-4920516Y-19224461D01*
X-4913038Y-19265630D01*
X-4908550Y-19269827D01*
X-4761534Y-19206456D01*
X-4636145Y-19182118D01*
X-4521997Y-19196399D01*
X-4408707Y-19248886D01*
X-4407106Y-19249873D01*
X-4312000Y-19336354D01*
X-4249184Y-19450896D01*
X-4218305Y-19582637D01*
X-4219008Y-19720715D01*
X-4250940Y-19854268D01*
X-4313747Y-19972434D01*
X-4407074Y-20064352D01*
X-4434206Y-20081432D01*
X-4540532Y-20120382D01*
X-4670885Y-20137723D01*
X-4802858Y-20132440D01*
X-4914042Y-20103523D01*
X-4914900Y-20103144D01*
X-5028392Y-20025507D01*
X-5116886Y-19906960D01*
X-5142288Y-19853719D01*
X-5157237Y-19806127D01*
X-5168108Y-19740499D01*
X-5173470Y-19673679D01*
X-4902200Y-19673679D01*
X-4892472Y-19763469D01*
X-4857745Y-19828523D01*
X-4839855Y-19848054D01*
X-4764394Y-19895799D01*
X-4677938Y-19910576D01*
X-4598766Y-19891310D01*
X-4563555Y-19864300D01*
X-4504813Y-19769837D01*
X-4482604Y-19666078D01*
X-4495835Y-19565988D01*
X-4543416Y-19482531D01*
X-4599297Y-19439519D01*
X-4693475Y-19414225D01*
X-4778649Y-19433632D01*
X-4846944Y-19491650D01*
X-4890484Y-19582193D01*
X-4902200Y-19673679D01*
X-5173470Y-19673679D01*
X-5175424Y-19649334D01*
X-5179706Y-19525130D01*
X-5181477Y-19360389D01*
X-5181600Y-19288915D01*
X-5181600Y-18818200D01*
X-4927600Y-18818200D01*
X-4927600Y-19048916D01*
G36*
X-3810000Y-19272543D02*
G01*
X-3692284Y-19220471D01*
X-3553310Y-19182870D01*
X-3421946Y-19191290D01*
X-3304681Y-19240964D01*
X-3208003Y-19327128D01*
X-3138402Y-19445014D01*
X-3102366Y-19589856D01*
X-3098800Y-19656400D01*
X-3119601Y-19819300D01*
X-3179698Y-19952434D01*
X-3275639Y-20052277D01*
X-3403969Y-20115307D01*
X-3561235Y-20137999D01*
X-3570932Y-20138005D01*
X-3667945Y-20131604D01*
X-3756088Y-20116228D01*
X-3797300Y-20102999D01*
X-3899906Y-20034050D01*
X-3986529Y-19933707D01*
X-4035144Y-19836759D01*
X-4045875Y-19777652D01*
X-4054456Y-19675088D01*
X-4054994Y-19662735D01*
X-3787767Y-19662735D01*
X-3774071Y-19761857D01*
X-3723733Y-19846514D01*
X-3720743Y-19849566D01*
X-3638763Y-19899869D01*
X-3547818Y-19906498D01*
X-3462896Y-19870545D01*
X-3420094Y-19827688D01*
X-3376463Y-19737236D01*
X-3368292Y-19642241D01*
X-3390278Y-19552516D01*
X-3437116Y-19477878D01*
X-3503504Y-19428141D01*
X-3584138Y-19413120D01*
X-3637667Y-19425049D01*
X-3716698Y-19479685D01*
X-3767687Y-19563796D01*
X-3787767Y-19662735D01*
X-4054994Y-19662735D01*
X-4060505Y-19536379D01*
X-4063641Y-19368836D01*
X-4064000Y-19284309D01*
X-4064000Y-18818200D01*
X-3810000Y-18818200D01*
X-3810000Y-19272543D01*
G37*
X-3810000Y-19272543D02*
X-3692284Y-19220471D01*
X-3553310Y-19182870D01*
X-3421946Y-19191290D01*
X-3304681Y-19240964D01*
X-3208003Y-19327128D01*
X-3138402Y-19445014D01*
X-3102366Y-19589856D01*
X-3098800Y-19656400D01*
X-3119601Y-19819300D01*
X-3179698Y-19952434D01*
X-3275639Y-20052277D01*
X-3403969Y-20115307D01*
X-3561235Y-20137999D01*
X-3570932Y-20138005D01*
X-3667945Y-20131604D01*
X-3756088Y-20116228D01*
X-3797300Y-20102999D01*
X-3899906Y-20034050D01*
X-3986529Y-19933707D01*
X-4035144Y-19836759D01*
X-4045875Y-19777652D01*
X-4054456Y-19675088D01*
X-4054994Y-19662735D01*
X-3787767Y-19662735D01*
X-3774071Y-19761857D01*
X-3723733Y-19846514D01*
X-3720743Y-19849566D01*
X-3638763Y-19899869D01*
X-3547818Y-19906498D01*
X-3462896Y-19870545D01*
X-3420094Y-19827688D01*
X-3376463Y-19737236D01*
X-3368292Y-19642241D01*
X-3390278Y-19552516D01*
X-3437116Y-19477878D01*
X-3503504Y-19428141D01*
X-3584138Y-19413120D01*
X-3637667Y-19425049D01*
X-3716698Y-19479685D01*
X-3767687Y-19563796D01*
X-3787767Y-19662735D01*
X-4054994Y-19662735D01*
X-4060505Y-19536379D01*
X-4063641Y-19368836D01*
X-4064000Y-19284309D01*
X-4064000Y-18818200D01*
X-3810000Y-18818200D01*
X-3810000Y-19272543D01*
G36*
X-6957593Y-18872121D02*
G01*
X-6826608Y-18881622D01*
X-6741212Y-18897708D01*
X-6723835Y-18903971D01*
X-6607370Y-18978505D01*
X-6523548Y-19082128D01*
X-6474515Y-19204399D01*
X-6462413Y-19334880D01*
X-6489386Y-19463131D01*
X-6557578Y-19578712D01*
X-6580222Y-19603313D01*
X-6656804Y-19679896D01*
X-6604486Y-19782448D01*
X-6564705Y-19848450D01*
X-6524955Y-19878479D01*
X-6476484Y-19885000D01*
X-6429942Y-19888357D01*
X-6407898Y-19907619D01*
X-6401225Y-19956568D01*
X-6400800Y-19999300D01*
X-6400800Y-20113600D01*
X-6537075Y-20113600D01*
X-6642428Y-20104121D01*
X-6723969Y-20070411D01*
X-6792780Y-20004554D01*
X-6859940Y-19898637D01*
X-6873397Y-19873390D01*
X-6914979Y-19796690D01*
X-6947420Y-19754619D01*
X-6985081Y-19736770D01*
X-7042321Y-19732734D01*
X-7067550Y-19732660D01*
X-7188200Y-19732600D01*
X-7188200Y-20113600D01*
X-7467600Y-20113600D01*
X-7467600Y-19123000D01*
X-7188200Y-19123000D01*
X-7188200Y-19509917D01*
X-7019678Y-19499187D01*
X-6923504Y-19490259D01*
X-6861799Y-19474776D01*
X-6818240Y-19446984D01*
X-6791078Y-19418611D01*
X-6740929Y-19338136D01*
X-6739491Y-19265033D01*
X-6786833Y-19192018D01*
X-6793346Y-19185345D01*
X-6835706Y-19150431D01*
X-6885087Y-19131480D01*
X-6958179Y-19123940D01*
X-7021946Y-19123000D01*
X-7188200Y-19123000D01*
X-7467600Y-19123000D01*
X-7467600Y-18869000D01*
X-7136585Y-18869000D01*
X-6957593Y-18872121D01*
G37*
X-6957593Y-18872121D02*
X-6826608Y-18881622D01*
X-6741212Y-18897708D01*
X-6723835Y-18903971D01*
X-6607370Y-18978505D01*
X-6523548Y-19082128D01*
X-6474515Y-19204399D01*
X-6462413Y-19334880D01*
X-6489386Y-19463131D01*
X-6557578Y-19578712D01*
X-6580222Y-19603313D01*
X-6656804Y-19679896D01*
X-6604486Y-19782448D01*
X-6564705Y-19848450D01*
X-6524955Y-19878479D01*
X-6476484Y-19885000D01*
X-6429942Y-19888357D01*
X-6407898Y-19907619D01*
X-6401225Y-19956568D01*
X-6400800Y-19999300D01*
X-6400800Y-20113600D01*
X-6537075Y-20113600D01*
X-6642428Y-20104121D01*
X-6723969Y-20070411D01*
X-6792780Y-20004554D01*
X-6859940Y-19898637D01*
X-6873397Y-19873390D01*
X-6914979Y-19796690D01*
X-6947420Y-19754619D01*
X-6985081Y-19736770D01*
X-7042321Y-19732734D01*
X-7067550Y-19732660D01*
X-7188200Y-19732600D01*
X-7188200Y-20113600D01*
X-7467600Y-20113600D01*
X-7467600Y-19123000D01*
X-7188200Y-19123000D01*
X-7188200Y-19509917D01*
X-7019678Y-19499187D01*
X-6923504Y-19490259D01*
X-6861799Y-19474776D01*
X-6818240Y-19446984D01*
X-6791078Y-19418611D01*
X-6740929Y-19338136D01*
X-6739491Y-19265033D01*
X-6786833Y-19192018D01*
X-6793346Y-19185345D01*
X-6835706Y-19150431D01*
X-6885087Y-19131480D01*
X-6958179Y-19123940D01*
X-7021946Y-19123000D01*
X-7188200Y-19123000D01*
X-7467600Y-19123000D01*
X-7467600Y-18869000D01*
X-7136585Y-18869000D01*
X-6957593Y-18872121D01*
G36*
X-2373693Y-19205601D02*
G01*
X-2257927Y-19261952D01*
X-2175531Y-19356602D01*
X-2126521Y-19489535D01*
X-2112778Y-19593173D01*
X-2102283Y-19758000D01*
X-2397342Y-19758000D01*
X-2517715Y-19759941D01*
X-2612879Y-19765284D01*
X-2673940Y-19773306D01*
X-2692400Y-19781959D01*
X-2668469Y-19826501D01*
X-2600989Y-19859938D01*
X-2496433Y-19880031D01*
X-2394649Y-19885000D01*
X-2209800Y-19885000D01*
X-2209800Y-20113600D01*
X-2432050Y-20113443D01*
X-2581604Y-20107740D01*
X-2686188Y-20090462D01*
X-2730500Y-20073656D01*
X-2854561Y-19983110D01*
X-2940546Y-19865576D01*
X-2986157Y-19730129D01*
X-2989096Y-19585843D01*
X-2971004Y-19523836D01*
X-2692044Y-19523836D01*
X-2646630Y-19545530D01*
X-2552117Y-19554517D01*
X-2525801Y-19554800D01*
X-2434101Y-19552371D01*
X-2386119Y-19544105D01*
X-2374959Y-19528526D01*
X-2377265Y-19523050D01*
X-2443513Y-19438704D01*
X-2517661Y-19404442D01*
X-2599457Y-19420343D01*
X-2635949Y-19441940D01*
X-2688452Y-19489338D01*
X-2692044Y-19523836D01*
X-2971004Y-19523836D01*
X-2947064Y-19441794D01*
X-2908140Y-19372201D01*
X-2823596Y-19275485D01*
X-2718425Y-19216239D01*
X-2583090Y-19189893D01*
X-2522813Y-19187564D01*
X-2373693Y-19205601D01*
G37*
X-2373693Y-19205601D02*
X-2257927Y-19261952D01*
X-2175531Y-19356602D01*
X-2126521Y-19489535D01*
X-2112778Y-19593173D01*
X-2102283Y-19758000D01*
X-2397342Y-19758000D01*
X-2517715Y-19759941D01*
X-2612879Y-19765284D01*
X-2673940Y-19773306D01*
X-2692400Y-19781959D01*
X-2668469Y-19826501D01*
X-2600989Y-19859938D01*
X-2496433Y-19880031D01*
X-2394649Y-19885000D01*
X-2209800Y-19885000D01*
X-2209800Y-20113600D01*
X-2432050Y-20113443D01*
X-2581604Y-20107740D01*
X-2686188Y-20090462D01*
X-2730500Y-20073656D01*
X-2854561Y-19983110D01*
X-2940546Y-19865576D01*
X-2986157Y-19730129D01*
X-2989096Y-19585843D01*
X-2971004Y-19523836D01*
X-2692044Y-19523836D01*
X-2646630Y-19545530D01*
X-2552117Y-19554517D01*
X-2525801Y-19554800D01*
X-2434101Y-19552371D01*
X-2386119Y-19544105D01*
X-2374959Y-19528526D01*
X-2377265Y-19523050D01*
X-2443513Y-19438704D01*
X-2517661Y-19404442D01*
X-2599457Y-19420343D01*
X-2635949Y-19441940D01*
X-2688452Y-19489338D01*
X-2692044Y-19523836D01*
X-2971004Y-19523836D01*
X-2947064Y-19441794D01*
X-2908140Y-19372201D01*
X-2823596Y-19275485D01*
X-2718425Y-19216239D01*
X-2583090Y-19189893D01*
X-2522813Y-19187564D01*
X-2373693Y-19205601D01*
G36*
X-1422400Y-19425145D02*
G01*
X-1555750Y-19432822D01*
X-1689100Y-19440500D01*
X-1696188Y-19777050D01*
X-1703275Y-20113600D01*
X-1955800Y-20113600D01*
X-1955800Y-19759653D01*
X-1954094Y-19625232D01*
X-1949419Y-19504446D01*
X-1942439Y-19408730D01*
X-1933821Y-19349519D01*
X-1931492Y-19341770D01*
X-1876940Y-19268557D01*
X-1779115Y-19221352D01*
X-1638501Y-19200357D01*
X-1588762Y-19199200D01*
X-1422400Y-19199200D01*
X-1422400Y-19425145D01*
G37*
X-1422400Y-19425145D02*
X-1555750Y-19432822D01*
X-1689100Y-19440500D01*
X-1696188Y-19777050D01*
X-1703275Y-20113600D01*
X-1955800Y-20113600D01*
X-1955800Y-19759653D01*
X-1954094Y-19625232D01*
X-1949419Y-19504446D01*
X-1942439Y-19408730D01*
X-1933821Y-19349519D01*
X-1931492Y-19341770D01*
X-1876940Y-19268557D01*
X-1779115Y-19221352D01*
X-1638501Y-19200357D01*
X-1588762Y-19199200D01*
X-1422400Y-19199200D01*
X-1422400Y-19425145D01*
G36*
X-10920321Y-19848141D02*
G01*
X-10861393Y-19884463D01*
X-10785925Y-19934911D01*
X-10705908Y-19991231D01*
X-10633335Y-20045169D01*
X-10580198Y-20088472D01*
X-10576709Y-20091629D01*
X-10543778Y-20117843D01*
X-10509873Y-20127763D01*
X-10459083Y-20122174D01*
X-10375498Y-20101862D01*
X-10374523Y-20101608D01*
X-10140548Y-20065978D01*
X-9904672Y-20078294D01*
X-9796465Y-20100726D01*
X-9650856Y-20138652D01*
X-9511215Y-20024912D01*
X-9389129Y-19931814D01*
X-9292599Y-19871657D01*
X-9224635Y-19846057D01*
X-9191166Y-19853074D01*
X-9179440Y-19885980D01*
X-9164320Y-19958879D01*
X-9147697Y-20061241D01*
X-9131461Y-20182535D01*
X-9130349Y-20191786D01*
X-9111113Y-20350117D01*
X-9095826Y-20464553D01*
X-9082852Y-20541687D01*
X-9070553Y-20588117D01*
X-9057294Y-20610437D01*
X-9041436Y-20615242D01*
X-9026277Y-20611101D01*
X-8970344Y-20592885D01*
X-8925741Y-20580638D01*
X-8876749Y-20578918D01*
X-8862679Y-20600506D01*
X-8880660Y-20634765D01*
X-8927819Y-20671055D01*
X-8953500Y-20683463D01*
X-9020350Y-20717727D01*
X-9038121Y-20742505D01*
X-9007978Y-20755810D01*
X-8931087Y-20755658D01*
X-8912101Y-20754022D01*
X-8834839Y-20749240D01*
X-8798196Y-20755438D01*
X-8792827Y-20774413D01*
X-8793556Y-20776801D01*
X-8825827Y-20809844D01*
X-8854005Y-20819438D01*
X-8942648Y-20835163D01*
X-8989639Y-20851292D01*
X-9003978Y-20872114D01*
X-9000445Y-20889188D01*
X-9004858Y-20940703D01*
X-9042059Y-21010840D01*
X-9103697Y-21088419D01*
X-9181419Y-21162261D01*
X-9233190Y-21200713D01*
X-9386099Y-21282084D01*
X-9574627Y-21350271D01*
X-9784247Y-21400230D01*
X-9829800Y-21407967D01*
X-9983272Y-21426610D01*
X-10125500Y-21429814D01*
X-10277353Y-21417086D01*
X-10426700Y-21393885D01*
X-10589691Y-21354001D01*
X-10746644Y-21295465D01*
X-10889951Y-21223168D01*
X-11012008Y-21142006D01*
X-11105208Y-21056870D01*
X-11161946Y-20972654D01*
X-11176000Y-20911845D01*
X-11187031Y-20880190D01*
X-10171017Y-20880190D01*
X-10146002Y-20920905D01*
X-10144863Y-20922522D01*
X-10102856Y-20982144D01*
X-10050290Y-20929577D01*
X-10017525Y-20887799D01*
X-10012920Y-20861814D01*
X-10046430Y-20853513D01*
X-10106116Y-20854619D01*
X-10107493Y-20854758D01*
X-10160731Y-20862766D01*
X-10171017Y-20880190D01*
X-11187031Y-20880190D01*
X-11194758Y-20858019D01*
X-11253334Y-20830087D01*
X-11317778Y-20824800D01*
X-11368211Y-20810384D01*
X-11379200Y-20783468D01*
X-11370793Y-20759325D01*
X-11337774Y-20750010D01*
X-11268446Y-20752842D01*
X-11252200Y-20754339D01*
X-11167687Y-20756844D01*
X-11130965Y-20745141D01*
X-11142832Y-20721583D01*
X-11204081Y-20688521D01*
X-11226800Y-20679203D01*
X-11290484Y-20645290D01*
X-11324482Y-20609975D01*
X-11324067Y-20582212D01*
X-11284511Y-20570955D01*
X-11283950Y-20570956D01*
X-11229812Y-20582490D01*
X-11169650Y-20607550D01*
X-11121497Y-20629229D01*
X-11099888Y-20632157D01*
X-11099800Y-20631579D01*
X-11097030Y-20603173D01*
X-11096266Y-20596200D01*
X-10678310Y-20596200D01*
X-10579100Y-20697800D01*
X-10518524Y-20753963D01*
X-10467731Y-20790861D01*
X-10445719Y-20799400D01*
X-10413952Y-20778192D01*
X-10380838Y-20726202D01*
X-10376666Y-20716850D01*
X-10366763Y-20693412D01*
X-9827603Y-20693412D01*
X-9803507Y-20750269D01*
X-9764787Y-20791751D01*
X-9713164Y-20789948D01*
X-9644548Y-20744011D01*
X-9607974Y-20709653D01*
X-9559268Y-20655924D01*
X-9533196Y-20617011D01*
X-9532175Y-20605958D01*
X-9563044Y-20601235D01*
X-9628083Y-20603661D01*
X-9687962Y-20609731D01*
X-9777647Y-20626218D01*
X-9822290Y-20651796D01*
X-9827603Y-20693412D01*
X-10366763Y-20693412D01*
X-10341784Y-20634300D01*
X-10435042Y-20616713D01*
X-10521022Y-20604081D01*
X-10600670Y-20597724D01*
X-10603305Y-20597663D01*
X-10678310Y-20596200D01*
X-11096266Y-20596200D01*
X-11089432Y-20533851D01*
X-11078072Y-20433152D01*
X-11064020Y-20310617D01*
X-11059523Y-20271746D01*
X-11038415Y-20104012D01*
X-11018785Y-19981719D01*
X-10999317Y-19899582D01*
X-10978698Y-19852320D01*
X-10955615Y-19834648D01*
X-10950718Y-19834200D01*
X-10920321Y-19848141D01*
G37*
X-10920321Y-19848141D02*
X-10861393Y-19884463D01*
X-10785925Y-19934911D01*
X-10705908Y-19991231D01*
X-10633335Y-20045169D01*
X-10580198Y-20088472D01*
X-10576709Y-20091629D01*
X-10543778Y-20117843D01*
X-10509873Y-20127763D01*
X-10459083Y-20122174D01*
X-10375498Y-20101862D01*
X-10374523Y-20101608D01*
X-10140548Y-20065978D01*
X-9904672Y-20078294D01*
X-9796465Y-20100726D01*
X-9650856Y-20138652D01*
X-9511215Y-20024912D01*
X-9389129Y-19931814D01*
X-9292599Y-19871657D01*
X-9224635Y-19846057D01*
X-9191166Y-19853074D01*
X-9179440Y-19885980D01*
X-9164320Y-19958879D01*
X-9147697Y-20061241D01*
X-9131461Y-20182535D01*
X-9130349Y-20191786D01*
X-9111113Y-20350117D01*
X-9095826Y-20464553D01*
X-9082852Y-20541687D01*
X-9070553Y-20588117D01*
X-9057294Y-20610437D01*
X-9041436Y-20615242D01*
X-9026277Y-20611101D01*
X-8970344Y-20592885D01*
X-8925741Y-20580638D01*
X-8876749Y-20578918D01*
X-8862679Y-20600506D01*
X-8880660Y-20634765D01*
X-8927819Y-20671055D01*
X-8953500Y-20683463D01*
X-9020350Y-20717727D01*
X-9038121Y-20742505D01*
X-9007978Y-20755810D01*
X-8931087Y-20755658D01*
X-8912101Y-20754022D01*
X-8834839Y-20749240D01*
X-8798196Y-20755438D01*
X-8792827Y-20774413D01*
X-8793556Y-20776801D01*
X-8825827Y-20809844D01*
X-8854005Y-20819438D01*
X-8942648Y-20835163D01*
X-8989639Y-20851292D01*
X-9003978Y-20872114D01*
X-9000445Y-20889188D01*
X-9004858Y-20940703D01*
X-9042059Y-21010840D01*
X-9103697Y-21088419D01*
X-9181419Y-21162261D01*
X-9233190Y-21200713D01*
X-9386099Y-21282084D01*
X-9574627Y-21350271D01*
X-9784247Y-21400230D01*
X-9829800Y-21407967D01*
X-9983272Y-21426610D01*
X-10125500Y-21429814D01*
X-10277353Y-21417086D01*
X-10426700Y-21393885D01*
X-10589691Y-21354001D01*
X-10746644Y-21295465D01*
X-10889951Y-21223168D01*
X-11012008Y-21142006D01*
X-11105208Y-21056870D01*
X-11161946Y-20972654D01*
X-11176000Y-20911845D01*
X-11187031Y-20880190D01*
X-10171017Y-20880190D01*
X-10146002Y-20920905D01*
X-10144863Y-20922522D01*
X-10102856Y-20982144D01*
X-10050290Y-20929577D01*
X-10017525Y-20887799D01*
X-10012920Y-20861814D01*
X-10046430Y-20853513D01*
X-10106116Y-20854619D01*
X-10107493Y-20854758D01*
X-10160731Y-20862766D01*
X-10171017Y-20880190D01*
X-11187031Y-20880190D01*
X-11194758Y-20858019D01*
X-11253334Y-20830087D01*
X-11317778Y-20824800D01*
X-11368211Y-20810384D01*
X-11379200Y-20783468D01*
X-11370793Y-20759325D01*
X-11337774Y-20750010D01*
X-11268446Y-20752842D01*
X-11252200Y-20754339D01*
X-11167687Y-20756844D01*
X-11130965Y-20745141D01*
X-11142832Y-20721583D01*
X-11204081Y-20688521D01*
X-11226800Y-20679203D01*
X-11290484Y-20645290D01*
X-11324482Y-20609975D01*
X-11324067Y-20582212D01*
X-11284511Y-20570955D01*
X-11283950Y-20570956D01*
X-11229812Y-20582490D01*
X-11169650Y-20607550D01*
X-11121497Y-20629229D01*
X-11099888Y-20632157D01*
X-11099800Y-20631579D01*
X-11097030Y-20603173D01*
X-11096266Y-20596200D01*
X-10678310Y-20596200D01*
X-10579100Y-20697800D01*
X-10518524Y-20753963D01*
X-10467731Y-20790861D01*
X-10445719Y-20799400D01*
X-10413952Y-20778192D01*
X-10380838Y-20726202D01*
X-10376666Y-20716850D01*
X-10366763Y-20693412D01*
X-9827603Y-20693412D01*
X-9803507Y-20750269D01*
X-9764787Y-20791751D01*
X-9713164Y-20789948D01*
X-9644548Y-20744011D01*
X-9607974Y-20709653D01*
X-9559268Y-20655924D01*
X-9533196Y-20617011D01*
X-9532175Y-20605958D01*
X-9563044Y-20601235D01*
X-9628083Y-20603661D01*
X-9687962Y-20609731D01*
X-9777647Y-20626218D01*
X-9822290Y-20651796D01*
X-9827603Y-20693412D01*
X-10366763Y-20693412D01*
X-10341784Y-20634300D01*
X-10435042Y-20616713D01*
X-10521022Y-20604081D01*
X-10600670Y-20597724D01*
X-10603305Y-20597663D01*
X-10678310Y-20596200D01*
X-11096266Y-20596200D01*
X-11089432Y-20533851D01*
X-11078072Y-20433152D01*
X-11064020Y-20310617D01*
X-11059523Y-20271746D01*
X-11038415Y-20104012D01*
X-11018785Y-19981719D01*
X-10999317Y-19899582D01*
X-10978698Y-19852320D01*
X-10955615Y-19834648D01*
X-10950718Y-19834200D01*
X-10920321Y-19848141D01*
G36*
X-10067376Y-18787963D02*
G01*
X-10031565Y-18841940D01*
X-9987464Y-18917765D01*
X-9986344Y-18919800D01*
X-9902562Y-19072200D01*
X-9967781Y-19072200D01*
X-10000949Y-19074382D01*
X-10020391Y-19088065D01*
X-10029771Y-19123956D01*
X-10032755Y-19192758D01*
X-10033000Y-19262700D01*
X-10030872Y-19353760D01*
X-10025241Y-19421121D01*
X-10017242Y-19452368D01*
X-10015617Y-19453200D01*
X-9969485Y-19445834D01*
X-9900358Y-19427237D01*
X-9823875Y-19402653D01*
X-9755672Y-19377329D01*
X-9711388Y-19356512D01*
X-9702800Y-19348252D01*
X-9722226Y-19326820D01*
X-9728200Y-19326200D01*
X-9742690Y-19303355D01*
X-9751886Y-19244947D01*
X-9753600Y-19199200D01*
X-9753600Y-19072200D01*
X-9499600Y-19072200D01*
X-9499600Y-19185237D01*
X-9507965Y-19269150D01*
X-9531151Y-19315742D01*
X-9535257Y-19318587D01*
X-9566617Y-19357859D01*
X-9579707Y-19399872D01*
X-9586324Y-19427080D01*
X-9602481Y-19448895D01*
X-9636080Y-19468841D01*
X-9695025Y-19490442D01*
X-9787219Y-19517225D01*
X-9920565Y-19552713D01*
X-9925050Y-19553888D01*
X-10001808Y-19583117D01*
X-10029307Y-19620966D01*
X-10008980Y-19672709D01*
X-9969500Y-19717590D01*
X-9916523Y-19796613D01*
X-9912419Y-19874701D01*
X-9957100Y-19945717D01*
X-9972926Y-19959356D01*
X-10061393Y-20004847D01*
X-10145794Y-20002421D01*
X-10210800Y-19961200D01*
X-10254919Y-19885866D01*
X-10256422Y-19802566D01*
X-10216170Y-19728209D01*
X-10198100Y-19711737D01*
X-10151432Y-19669172D01*
X-10133726Y-19633592D01*
X-10148904Y-19601956D01*
X-10200889Y-19571220D01*
X-10293602Y-19538344D01*
X-10430967Y-19500285D01*
X-10490200Y-19485207D01*
X-10557067Y-19457832D01*
X-10585656Y-19414092D01*
X-10587757Y-19403127D01*
X-10609562Y-19339986D01*
X-10632207Y-19307564D01*
X-10666244Y-19241738D01*
X-10662389Y-19165343D01*
X-10623339Y-19098356D01*
X-10601574Y-19080646D01*
X-10548808Y-19052679D01*
X-10505462Y-19056058D01*
X-10468224Y-19074512D01*
X-10411212Y-19131501D01*
X-10391796Y-19206796D01*
X-10413106Y-19282201D01*
X-10428874Y-19303201D01*
X-10458164Y-19342538D01*
X-10462528Y-19361345D01*
X-10434712Y-19372578D01*
X-10374636Y-19391979D01*
X-10299119Y-19414611D01*
X-10224983Y-19435534D01*
X-10169046Y-19449808D01*
X-10149741Y-19453200D01*
X-10142504Y-19429873D01*
X-10137150Y-19368168D01*
X-10134667Y-19280499D01*
X-10134600Y-19262700D01*
X-10135392Y-19165803D01*
X-10140144Y-19109005D01*
X-10152423Y-19081604D01*
X-10175797Y-19072900D01*
X-10198100Y-19072200D01*
X-10245885Y-19067709D01*
X-10261600Y-19059115D01*
X-10249641Y-19027656D01*
X-10219447Y-18970314D01*
X-10179545Y-18901355D01*
X-10138465Y-18835047D01*
X-10104732Y-18785656D01*
X-10087239Y-18767400D01*
X-10067376Y-18787963D01*
G37*
X-10067376Y-18787963D02*
X-10031565Y-18841940D01*
X-9987464Y-18917765D01*
X-9986344Y-18919800D01*
X-9902562Y-19072200D01*
X-9967781Y-19072200D01*
X-10000949Y-19074382D01*
X-10020391Y-19088065D01*
X-10029771Y-19123956D01*
X-10032755Y-19192758D01*
X-10033000Y-19262700D01*
X-10030872Y-19353760D01*
X-10025241Y-19421121D01*
X-10017242Y-19452368D01*
X-10015617Y-19453200D01*
X-9969485Y-19445834D01*
X-9900358Y-19427237D01*
X-9823875Y-19402653D01*
X-9755672Y-19377329D01*
X-9711388Y-19356512D01*
X-9702800Y-19348252D01*
X-9722226Y-19326820D01*
X-9728200Y-19326200D01*
X-9742690Y-19303355D01*
X-9751886Y-19244947D01*
X-9753600Y-19199200D01*
X-9753600Y-19072200D01*
X-9499600Y-19072200D01*
X-9499600Y-19185237D01*
X-9507965Y-19269150D01*
X-9531151Y-19315742D01*
X-9535257Y-19318587D01*
X-9566617Y-19357859D01*
X-9579707Y-19399872D01*
X-9586324Y-19427080D01*
X-9602481Y-19448895D01*
X-9636080Y-19468841D01*
X-9695025Y-19490442D01*
X-9787219Y-19517225D01*
X-9920565Y-19552713D01*
X-9925050Y-19553888D01*
X-10001808Y-19583117D01*
X-10029307Y-19620966D01*
X-10008980Y-19672709D01*
X-9969500Y-19717590D01*
X-9916523Y-19796613D01*
X-9912419Y-19874701D01*
X-9957100Y-19945717D01*
X-9972926Y-19959356D01*
X-10061393Y-20004847D01*
X-10145794Y-20002421D01*
X-10210800Y-19961200D01*
X-10254919Y-19885866D01*
X-10256422Y-19802566D01*
X-10216170Y-19728209D01*
X-10198100Y-19711737D01*
X-10151432Y-19669172D01*
X-10133726Y-19633592D01*
X-10148904Y-19601956D01*
X-10200889Y-19571220D01*
X-10293602Y-19538344D01*
X-10430967Y-19500285D01*
X-10490200Y-19485207D01*
X-10557067Y-19457832D01*
X-10585656Y-19414092D01*
X-10587757Y-19403127D01*
X-10609562Y-19339986D01*
X-10632207Y-19307564D01*
X-10666244Y-19241738D01*
X-10662389Y-19165343D01*
X-10623339Y-19098356D01*
X-10601574Y-19080646D01*
X-10548808Y-19052679D01*
X-10505462Y-19056058D01*
X-10468224Y-19074512D01*
X-10411212Y-19131501D01*
X-10391796Y-19206796D01*
X-10413106Y-19282201D01*
X-10428874Y-19303201D01*
X-10458164Y-19342538D01*
X-10462528Y-19361345D01*
X-10434712Y-19372578D01*
X-10374636Y-19391979D01*
X-10299119Y-19414611D01*
X-10224983Y-19435534D01*
X-10169046Y-19449808D01*
X-10149741Y-19453200D01*
X-10142504Y-19429873D01*
X-10137150Y-19368168D01*
X-10134667Y-19280499D01*
X-10134600Y-19262700D01*
X-10135392Y-19165803D01*
X-10140144Y-19109005D01*
X-10152423Y-19081604D01*
X-10175797Y-19072900D01*
X-10198100Y-19072200D01*
X-10245885Y-19067709D01*
X-10261600Y-19059115D01*
X-10249641Y-19027656D01*
X-10219447Y-18970314D01*
X-10179545Y-18901355D01*
X-10138465Y-18835047D01*
X-10104732Y-18785656D01*
X-10087239Y-18767400D01*
X-10067376Y-18787963D01*
%TD*%
D12*
%TO.C,SW3*%
X9568400Y-11137900D03*
X388400Y-11137900D03*
%TD*%
D13*
%TO.C,*%
X12500000Y20000000D03*
%TD*%
%TO.C,REF\002A\002A*%
X-12500000Y20000000D03*
%TD*%
D12*
%TO.C,SW6*%
X15664400Y-15201900D03*
X6484400Y-15201900D03*
%TD*%
D14*
%TO.C,J1*%
X-13155000Y4730000D03*
X-13155000Y10510000D03*
D15*
X-16845000Y11940000D03*
X-16845000Y3300000D03*
D16*
X-12675000Y11940000D03*
X-12675000Y3300000D03*
%TD*%
D17*
%TO.C,SW2*%
X18393000Y12192000D03*
X15643000Y12192000D03*
%TD*%
%TO.C,SW1*%
X18520000Y-12192000D03*
X15770000Y-12192000D03*
%TD*%
D18*
%TO.C,D1*%
X-8980000Y-16967000D03*
X-8980000Y-13767000D03*
X-13880000Y-16967000D03*
X-13880000Y-13767000D03*
%TD*%
D12*
%TO.C,SW4*%
X9801401Y-19265900D03*
X621401Y-19265900D03*
%TD*%
%TO.C,SW5*%
X-5707600Y-15201900D03*
X3472400Y-15201900D03*
%TD*%
M02*
