%TF.GenerationSoftware,KiCad,Pcbnew,5.1.5+dfsg1-2build2*%
%TF.CreationDate,2022-05-20T22:28:17-07:00*%
%TF.ProjectId,v1.0-RubberNugget,76312e30-2d52-4756-9262-65724e756767,rev?*%
%TF.SameCoordinates,Original*%
%TF.FileFunction,Legend,Top*%
%TF.FilePolarity,Positive*%
%FSLAX46Y46*%
G04 Gerber Fmt 4.6, Leading zero omitted, Abs format (unit mm)*
G04 Created by KiCad (PCBNEW 5.1.5+dfsg1-2build2) date 2022-05-20 22:28:17*
%MOMM*%
%LPD*%
G04 APERTURE LIST*
%TA.AperFunction,Profile*%
%ADD10C,0.200000*%
%TD*%
%ADD11C,0.120000*%
%ADD12C,0.100000*%
%ADD13C,0.150000*%
G04 APERTURE END LIST*
D10*
X-19000000Y-17000000D02*
X-19000000Y17000000D01*
X-11000000Y-23000000D02*
X-19000000Y-17000000D01*
X11000000Y-23000000D02*
X-11000000Y-23000000D01*
X19000000Y-17000000D02*
X11000000Y-23000000D01*
X19000000Y17000000D02*
X19000000Y-17000000D01*
X12500000Y27000000D02*
X19000000Y17000000D01*
X6000000Y17000000D02*
X12500000Y27000000D01*
X-6000000Y17000000D02*
X6000000Y17000000D01*
X-12500000Y27000000D02*
X-6000000Y17000000D01*
X-19000000Y17000000D02*
X-12500000Y27000000D01*
D11*
%TO.C,U2*%
X-17250000Y16047000D02*
X-17250000Y-6953000D01*
X17250000Y16047000D02*
X17250000Y-6953000D01*
X17250000Y-6953000D02*
X-17250000Y-6953000D01*
X17250000Y16047000D02*
X-17250000Y16047000D01*
%TO.C,SW3*%
X1918400Y-9327900D02*
X8038400Y-9327900D01*
X8038400Y-9327900D02*
X8038400Y-12947900D01*
X8038400Y-12947900D02*
X1918400Y-12947900D01*
X1918400Y-12947900D02*
X1918400Y-9327900D01*
%TO.C,SW6*%
X8014400Y-13391900D02*
X14134400Y-13391900D01*
X14134400Y-13391900D02*
X14134400Y-17011900D01*
X14134400Y-17011900D02*
X8014400Y-17011900D01*
X8014400Y-17011900D02*
X8014400Y-13391900D01*
D12*
%TO.C,D1*%
X-8930000Y-12867000D02*
X-13930000Y-12867000D01*
X-8930000Y-17867000D02*
X-8930000Y-12867000D01*
X-13930000Y-17867000D02*
X-8930000Y-17867000D01*
X-13930000Y-12867000D02*
X-13930000Y-17867000D01*
D11*
X-8940800Y-14818360D02*
X-11963400Y-17840960D01*
%TO.C,SW4*%
X2151401Y-17455900D02*
X8271401Y-17455900D01*
X8271401Y-17455900D02*
X8271401Y-21075900D01*
X8271401Y-21075900D02*
X2151401Y-21075900D01*
X2151401Y-21075900D02*
X2151401Y-17455900D01*
%TO.C,SW5*%
X-4177600Y-17011900D02*
X-4177600Y-13391900D01*
X1942400Y-17011900D02*
X-4177600Y-17011900D01*
X1942400Y-13391900D02*
X1942400Y-17011900D01*
X-4177600Y-13391900D02*
X1942400Y-13391900D01*
%TD*%
%TO.C,*%
D13*
%TD*%
M02*
