M48
; DRILL file {KiCad 5.1.5+dfsg1-2build2} date Fri May 20 22:28:20 2022
; FORMAT={2:4/ absolute / inch / suppress leading zeros}
; #@! TF.CreationDate,2022-05-20T22:28:20-07:00
; #@! TF.GenerationSoftware,Kicad,Pcbnew,5.1.5+dfsg1-2build2
; #@! TF.FileFunction,Plated,1,2,PTH
FMAT,2
INCH,TZ
T1C0.0079
T2C0.0236
T3C0.1024
%
G90
G05
T1
X-5465Y-5950
X-4400Y-6925
X-4325Y3098
X-4325Y2902
X-4000Y-5075
X-3825Y-850
X-3800Y-1275
X-3525Y-6300
X-3430Y2335
X-3200Y-450
X-2850Y-725
X-2500Y2675
X-2223Y1075
X-1750Y1550
X-1600Y-4025
X-1525Y-1325
X-1352Y-4025
X-1333Y-1325
X-1165Y-1325
X-1100Y-7000
X-1025Y-4025
X-975Y-1325
X-950Y2700
X-800Y-1325
X-500Y-1475
X-350Y-475
X-100Y-450
X-100Y-3025
X-50Y-1475
X-25Y-1727
X-25Y-1975
X162Y-450
X200Y2650
X250Y-3025
X425Y-3575
X500Y-3200
X500Y-3375
X627Y-1127
X725Y-6350
X725Y-6600
X820Y2650
X1050Y-5725
X1150Y1325
X1175Y-7113
X1550Y-7125
X1750Y350
X1900Y-7575
X1950Y-6275
X2350Y1875
X2997Y-6650
X3000Y-6450
X3050Y-2875
X3150Y350
X3232Y-2750
X3400Y606
X3400Y106
X3400Y-394
X3400Y-894
X3400Y-1394
X3400Y-2884
X4597Y-5128
X4600Y-4675
X4625Y-4350
X4700Y-1875
X4825Y-5125
X4900Y175
X4925Y-1875
X5025Y1100
X5150Y-1875
X5375Y-1875
X5575Y-5950
X5600Y-1875
X6475Y-5275
X6700Y-1825
T3
X-4921Y7874
X4921Y7874
T2
G00X-6789Y4701
M15
G01X-6474Y4701
M16
G05
G00X-6789Y1299
M15
G01X-6474Y1299
M16
G05
G00X-5207Y4701
M15
G01X-4774Y4701
M16
G05
G00X-5207Y1299
M15
G01X-4774Y1299
M16
G05
T0
M30
