%TF.GenerationSoftware,KiCad,Pcbnew,5.1.5+dfsg1-2build2*%
%TF.CreationDate,2022-05-20T22:28:17-07:00*%
%TF.ProjectId,v1.0-RubberNugget,76312e30-2d52-4756-9262-65724e756767,rev?*%
%TF.SameCoordinates,Original*%
%TF.FileFunction,Legend,Bot*%
%TF.FilePolarity,Positive*%
%FSLAX46Y46*%
G04 Gerber Fmt 4.6, Leading zero omitted, Abs format (unit mm)*
G04 Created by KiCad (PCBNEW 5.1.5+dfsg1-2build2) date 2022-05-20 22:28:17*
%MOMM*%
%LPD*%
G04 APERTURE LIST*
%ADD10C,0.300000*%
%TA.AperFunction,Profile*%
%ADD11C,0.200000*%
%TD*%
%ADD12C,0.100000*%
%ADD13C,0.120000*%
%ADD14C,0.060000*%
%ADD15C,0.150000*%
G04 APERTURE END LIST*
D10*
X16379071Y6242071D02*
X17379071Y5884928D01*
X16379071Y5527785D01*
X17379071Y4170642D02*
X17379071Y5027785D01*
X17379071Y4599214D02*
X15879071Y4599214D01*
X16093357Y4742071D01*
X16236214Y4884928D01*
X16307642Y5027785D01*
X17236214Y3527785D02*
X17307642Y3456357D01*
X17379071Y3527785D01*
X17307642Y3599214D01*
X17236214Y3527785D01*
X17379071Y3527785D01*
X15879071Y2527785D02*
X15879071Y2384928D01*
X15950500Y2242071D01*
X16021928Y2170642D01*
X16164785Y2099214D01*
X16450500Y2027785D01*
X16807642Y2027785D01*
X17093357Y2099214D01*
X17236214Y2170642D01*
X17307642Y2242071D01*
X17379071Y2384928D01*
X17379071Y2527785D01*
X17307642Y2670642D01*
X17236214Y2742071D01*
X17093357Y2813500D01*
X16807642Y2884928D01*
X16450500Y2884928D01*
X16164785Y2813500D01*
X16021928Y2742071D01*
X15950500Y2670642D01*
X15879071Y2527785D01*
X16807642Y1384928D02*
X16807642Y242071D01*
X17379071Y-1115071D02*
X16593357Y-1115071D01*
X16450500Y-1043642D01*
X16379071Y-900785D01*
X16379071Y-615071D01*
X16450500Y-472214D01*
X17307642Y-1115071D02*
X17379071Y-972214D01*
X17379071Y-615071D01*
X17307642Y-472214D01*
X17164785Y-400785D01*
X17021928Y-400785D01*
X16879071Y-472214D01*
X16807642Y-615071D01*
X16807642Y-972214D01*
X16736214Y-1115071D01*
X17379071Y-2043642D02*
X17307642Y-1900785D01*
X17164785Y-1829357D01*
X15879071Y-1829357D01*
X16379071Y-2615071D02*
X17879071Y-2615071D01*
X16450500Y-2615071D02*
X16379071Y-2757928D01*
X16379071Y-3043642D01*
X16450500Y-3186500D01*
X16521928Y-3257928D01*
X16664785Y-3329357D01*
X17093357Y-3329357D01*
X17236214Y-3257928D01*
X17307642Y-3186500D01*
X17379071Y-3043642D01*
X17379071Y-2757928D01*
X17307642Y-2615071D01*
X17379071Y-3972214D02*
X15879071Y-3972214D01*
X17379071Y-4615071D02*
X16593357Y-4615071D01*
X16450500Y-4543642D01*
X16379071Y-4400785D01*
X16379071Y-4186500D01*
X16450500Y-4043642D01*
X16521928Y-3972214D01*
X17379071Y-5972214D02*
X16593357Y-5972214D01*
X16450500Y-5900785D01*
X16379071Y-5757928D01*
X16379071Y-5472214D01*
X16450500Y-5329357D01*
X17307642Y-5972214D02*
X17379071Y-5829357D01*
X17379071Y-5472214D01*
X17307642Y-5329357D01*
X17164785Y-5257928D01*
X17021928Y-5257928D01*
X16879071Y-5329357D01*
X16807642Y-5472214D01*
X16807642Y-5829357D01*
X16736214Y-5972214D01*
D11*
X-19000000Y-17000000D02*
X-19000000Y17000000D01*
X-11000000Y-23000000D02*
X-19000000Y-17000000D01*
X11000000Y-23000000D02*
X-11000000Y-23000000D01*
X19000000Y-17000000D02*
X11000000Y-23000000D01*
X19000000Y17000000D02*
X19000000Y-17000000D01*
X12500000Y27000000D02*
X19000000Y17000000D01*
X6000000Y17000000D02*
X12500000Y27000000D01*
X-6000000Y17000000D02*
X6000000Y17000000D01*
X-12500000Y27000000D02*
X-6000000Y17000000D01*
X-19000000Y17000000D02*
X-12500000Y27000000D01*
D12*
%TO.C,U2*%
X-7650000Y13910000D02*
G75*
G03X-7650000Y13910000I-350000J0D01*
G01*
X8350000Y13910000D02*
G75*
G03X8350000Y13910000I-350000J0D01*
G01*
D13*
X-11150000Y9010000D02*
X-11150000Y11160000D01*
X11150000Y9010000D02*
X-11150000Y9010000D01*
X11150000Y11160000D02*
X11150000Y9010000D01*
D12*
X6000000Y16047000D02*
X-6000000Y16047000D01*
X-11000000Y13160000D02*
X-6000000Y16047000D01*
X-11000000Y9160000D02*
X-11000000Y13160000D01*
X11000000Y9160000D02*
X-11000000Y9160000D01*
X11000000Y13160000D02*
X6000000Y16047000D01*
X11000000Y9160000D02*
X11000000Y13160000D01*
D13*
%TO.C,C2*%
X2542000Y3575267D02*
X2542000Y3282733D01*
X1522000Y3575267D02*
X1522000Y3282733D01*
%TO.C,J3*%
X-6180000Y-22751000D02*
X-9060000Y-22751000D01*
X-10230000Y-18281000D02*
X-9180000Y-18281000D01*
X-10230000Y-20781000D02*
X-10230000Y-18281000D01*
X-6060000Y-18281000D02*
X-6060000Y-17291000D01*
X-5010000Y-18281000D02*
X-6060000Y-18281000D01*
X-5010000Y-20781000D02*
X-5010000Y-18281000D01*
%TO.C,U1*%
X-17149000Y888000D02*
X-17149000Y-162000D01*
X-17149000Y-14962000D02*
X-16099000Y-14962000D01*
X-17149000Y-13912000D02*
X-17149000Y-14962000D01*
X-16999000Y588000D02*
X-16999000Y-14812000D01*
X-16999000Y588000D02*
X-12399000Y588000D01*
X-16999000Y-14812000D02*
X-12399000Y-14812000D01*
%TO.C,J6*%
X6235000Y-4235000D02*
X9765000Y-4235000D01*
X6235000Y2235000D02*
X9765000Y2235000D01*
X4910000Y-4170000D02*
X6235000Y-4170000D01*
X6235000Y-4235000D02*
X6235000Y-4170000D01*
X9765000Y-4235000D02*
X9765000Y-4170000D01*
X6235000Y2170000D02*
X6235000Y2235000D01*
X9765000Y2170000D02*
X9765000Y2235000D01*
%TO.C,J5*%
X9052000Y-22751000D02*
X5172000Y-22751000D01*
X4002000Y-18281000D02*
X5052000Y-18281000D01*
X4002000Y-20781000D02*
X4002000Y-18281000D01*
X9172000Y-18281000D02*
X9172000Y-17291000D01*
X10222000Y-18281000D02*
X9172000Y-18281000D01*
X10222000Y-20781000D02*
X10222000Y-18281000D01*
%TO.C,J4*%
X6235000Y-15575000D02*
X6235000Y-15640000D01*
X9765000Y-15575000D02*
X9765000Y-15640000D01*
X6235000Y-5360000D02*
X6235000Y-5425000D01*
X9765000Y-5360000D02*
X9765000Y-5425000D01*
X11090000Y-5425000D02*
X9765000Y-5425000D01*
X9765000Y-15640000D02*
X6235000Y-15640000D01*
X9765000Y-5360000D02*
X6235000Y-5360000D01*
%TO.C,D2*%
X-4196000Y3580500D02*
X-7346000Y3580500D01*
X-4196000Y1880500D02*
X-7346000Y1880500D01*
X-4196000Y3580500D02*
X-4196000Y1880500D01*
%TO.C,R5*%
X-9349000Y3174276D02*
X-9349000Y3683724D01*
X-8304000Y3174276D02*
X-8304000Y3683724D01*
%TO.C,C1*%
X13523500Y13633233D02*
X13523500Y13925767D01*
X14543500Y13633233D02*
X14543500Y13925767D01*
%TO.C,R3*%
X13511000Y10222776D02*
X13511000Y10732224D01*
X14556000Y10222776D02*
X14556000Y10732224D01*
%TO.C,J1*%
X-13935000Y3150000D02*
X-15735000Y3150000D01*
X-19445000Y3150000D02*
X-17985000Y3150000D01*
X-19445000Y12090000D02*
X-17985000Y12090000D01*
X-13935000Y12090000D02*
X-15735000Y12090000D01*
X-19445000Y12090000D02*
X-19445000Y3150000D01*
%TO.C,U3*%
X-1259000Y1882500D02*
X-3709000Y1882500D01*
X-3059000Y5102500D02*
X-1259000Y5102500D01*
%TO.C,D3*%
X9710500Y4533000D02*
X9710500Y2833000D01*
X9710500Y2833000D02*
X6560500Y2833000D01*
X9710500Y4533000D02*
X6560500Y4533000D01*
%TO.C,J2*%
X1432000Y-22751000D02*
X-2448000Y-22751000D01*
X-3618000Y-18281000D02*
X-2568000Y-18281000D01*
X-3618000Y-20781000D02*
X-3618000Y-18281000D01*
X1552000Y-18281000D02*
X1552000Y-17291000D01*
X2602000Y-18281000D02*
X1552000Y-18281000D01*
X2602000Y-20781000D02*
X2602000Y-18281000D01*
%TO.C,SW2*%
X18868000Y10767000D02*
X18868000Y9842000D01*
X16743000Y14642000D02*
X17293000Y14642000D01*
X16743000Y9742000D02*
X17293000Y9742000D01*
X15168000Y14542000D02*
X15168000Y9842000D01*
X18868000Y14542000D02*
X18868000Y13617000D01*
%TO.C,SW1*%
X18995000Y-13617000D02*
X18995000Y-14542000D01*
X16870000Y-9742000D02*
X17420000Y-9742000D01*
X16870000Y-14642000D02*
X17420000Y-14642000D01*
X15295000Y-9842000D02*
X15295000Y-14542000D01*
X18995000Y-9842000D02*
X18995000Y-10767000D01*
%TO.C,R2*%
X-13589724Y14111500D02*
X-13080276Y14111500D01*
X-13589724Y13066500D02*
X-13080276Y13066500D01*
%TO.C,R1*%
X-17018724Y14111500D02*
X-16509276Y14111500D01*
X-17018724Y13066500D02*
X-16509276Y13066500D01*
%TO.C,R9*%
X-2667724Y7034000D02*
X-2158276Y7034000D01*
X-2667724Y8079000D02*
X-2158276Y8079000D01*
%TO.C,C7*%
X-7685500Y6648233D02*
X-7685500Y6940767D01*
X-6665500Y6648233D02*
X-6665500Y6940767D01*
%TO.C,R4*%
X-6110500Y7049224D02*
X-6110500Y6539776D01*
X-5065500Y7049224D02*
X-5065500Y6539776D01*
%TO.C,C4*%
X-6496267Y4955000D02*
X-6203733Y4955000D01*
X-6496267Y3935000D02*
X-6203733Y3935000D01*
%TO.C,C10*%
X8316500Y6813767D02*
X8316500Y6521233D01*
X9336500Y6813767D02*
X9336500Y6521233D01*
%TO.C,C9*%
X11114500Y6813767D02*
X11114500Y6521233D01*
X10094500Y6813767D02*
X10094500Y6521233D01*
%TO.C,C5*%
X5717000Y6813767D02*
X5717000Y6521233D01*
X4697000Y6813767D02*
X4697000Y6521233D01*
%TO.C,C11*%
X-2559267Y6542500D02*
X-2266733Y6542500D01*
X-2559267Y5522500D02*
X-2266733Y5522500D01*
%TO.C,C6*%
X6221000Y6813767D02*
X6221000Y6521233D01*
X7241000Y6813767D02*
X7241000Y6521233D01*
%TO.C,C3*%
X1018000Y3575267D02*
X1018000Y3282733D01*
X-2000Y3575267D02*
X-2000Y3282733D01*
%TO.C,R6*%
X4142000Y6922224D02*
X4142000Y6412776D01*
X3097000Y6922224D02*
X3097000Y6412776D01*
%TO.C,R7*%
X1560300Y6412776D02*
X1560300Y6922224D01*
X2605300Y6412776D02*
X2605300Y6922224D01*
%TO.C,R8*%
X1030500Y6412776D02*
X1030500Y6922224D01*
X-14500Y6412776D02*
X-14500Y6922224D01*
%TO.C,C8*%
X-9222200Y6648233D02*
X-9222200Y6940767D01*
X-8202200Y6648233D02*
X-8202200Y6940767D01*
%TD*%
%TO.C,U2*%
D14*
X304761Y14252547D02*
X304761Y13928738D01*
X285714Y13890642D01*
X266666Y13871595D01*
X228571Y13852547D01*
X152380Y13852547D01*
X114285Y13871595D01*
X95238Y13890642D01*
X76190Y13928738D01*
X76190Y14252547D01*
X-95238Y14214452D02*
X-114285Y14233500D01*
X-152380Y14252547D01*
X-247619Y14252547D01*
X-285714Y14233500D01*
X-304761Y14214452D01*
X-323809Y14176357D01*
X-323809Y14138261D01*
X-304761Y14081119D01*
X-76190Y13852547D01*
X-323809Y13852547D01*
X1085714Y14570095D02*
X1028571Y14551047D01*
X933333Y14551047D01*
X895238Y14570095D01*
X876190Y14589142D01*
X857142Y14627238D01*
X857142Y14665333D01*
X876190Y14703428D01*
X895238Y14722476D01*
X933333Y14741523D01*
X1009523Y14760571D01*
X1047619Y14779619D01*
X1066666Y14798666D01*
X1085714Y14836761D01*
X1085714Y14874857D01*
X1066666Y14912952D01*
X1047619Y14932000D01*
X1009523Y14951047D01*
X914285Y14951047D01*
X857142Y14932000D01*
X685714Y14551047D02*
X685714Y14951047D01*
X685714Y14760571D02*
X457142Y14760571D01*
X457142Y14551047D02*
X457142Y14951047D01*
X57142Y14551047D02*
X285714Y14551047D01*
X171428Y14551047D02*
X171428Y14951047D01*
X209523Y14893904D01*
X247619Y14855809D01*
X285714Y14836761D01*
X-323809Y14551047D02*
X-95238Y14551047D01*
X-209523Y14551047D02*
X-209523Y14951047D01*
X-171428Y14893904D01*
X-133333Y14855809D01*
X-95238Y14836761D01*
X-571428Y14951047D02*
X-609523Y14951047D01*
X-647619Y14932000D01*
X-666666Y14912952D01*
X-685714Y14874857D01*
X-704761Y14798666D01*
X-704761Y14703428D01*
X-685714Y14627238D01*
X-666666Y14589142D01*
X-647619Y14570095D01*
X-609523Y14551047D01*
X-571428Y14551047D01*
X-533333Y14570095D01*
X-514285Y14589142D01*
X-495238Y14627238D01*
X-476190Y14703428D01*
X-476190Y14798666D01*
X-495238Y14874857D01*
X-514285Y14912952D01*
X-533333Y14932000D01*
X-571428Y14951047D01*
X-1047619Y14951047D02*
X-971428Y14951047D01*
X-933333Y14932000D01*
X-914285Y14912952D01*
X-876190Y14855809D01*
X-857142Y14779619D01*
X-857142Y14627238D01*
X-876190Y14589142D01*
X-895238Y14570095D01*
X-933333Y14551047D01*
X-1009523Y14551047D01*
X-1047619Y14570095D01*
X-1066666Y14589142D01*
X-1085714Y14627238D01*
X-1085714Y14722476D01*
X-1066666Y14760571D01*
X-1047619Y14779619D01*
X-1009523Y14798666D01*
X-933333Y14798666D01*
X-895238Y14779619D01*
X-876190Y14760571D01*
X-857142Y14722476D01*
%TO.C,C2*%
X2098666Y1381142D02*
X2117714Y1362095D01*
X2174857Y1343047D01*
X2212952Y1343047D01*
X2270095Y1362095D01*
X2308190Y1400190D01*
X2327238Y1438285D01*
X2346285Y1514476D01*
X2346285Y1571619D01*
X2327238Y1647809D01*
X2308190Y1685904D01*
X2270095Y1724000D01*
X2212952Y1743047D01*
X2174857Y1743047D01*
X2117714Y1724000D01*
X2098666Y1704952D01*
X1946285Y1704952D02*
X1927238Y1724000D01*
X1889142Y1743047D01*
X1793904Y1743047D01*
X1755809Y1724000D01*
X1736761Y1704952D01*
X1717714Y1666857D01*
X1717714Y1628761D01*
X1736761Y1571619D01*
X1965333Y1343047D01*
X1717714Y1343047D01*
%TO.C,J3*%
X-6597666Y-21942452D02*
X-6597666Y-22228166D01*
X-6578619Y-22285309D01*
X-6540523Y-22323404D01*
X-6483380Y-22342452D01*
X-6445285Y-22342452D01*
X-6750047Y-21942452D02*
X-6997666Y-21942452D01*
X-6864333Y-22094833D01*
X-6921476Y-22094833D01*
X-6959571Y-22113880D01*
X-6978619Y-22132928D01*
X-6997666Y-22171023D01*
X-6997666Y-22266261D01*
X-6978619Y-22304357D01*
X-6959571Y-22323404D01*
X-6921476Y-22342452D01*
X-6807190Y-22342452D01*
X-6769095Y-22323404D01*
X-6750047Y-22304357D01*
%TO.C,U1*%
X-15824238Y1235047D02*
X-15824238Y911238D01*
X-15843285Y873142D01*
X-15862333Y854095D01*
X-15900428Y835047D01*
X-15976619Y835047D01*
X-16014714Y854095D01*
X-16033761Y873142D01*
X-16052809Y911238D01*
X-16052809Y1235047D01*
X-16452809Y835047D02*
X-16224238Y835047D01*
X-16338523Y835047D02*
X-16338523Y1235047D01*
X-16300428Y1177904D01*
X-16262333Y1139809D01*
X-16224238Y1120761D01*
D15*
X-14982333Y-2350095D02*
X-14982333Y-2826285D01*
X-14696619Y-2254857D02*
X-15696619Y-2588190D01*
X-14696619Y-2921523D01*
X-15363285Y-3254857D02*
X-14696619Y-3254857D01*
X-15268047Y-3254857D02*
X-15315666Y-3302476D01*
X-15363285Y-3397714D01*
X-15363285Y-3540571D01*
X-15315666Y-3635809D01*
X-15220428Y-3683428D01*
X-14696619Y-3683428D01*
X-15363285Y-4016761D02*
X-15363285Y-4397714D01*
X-15696619Y-4159619D02*
X-14839476Y-4159619D01*
X-14744238Y-4207238D01*
X-14696619Y-4302476D01*
X-14696619Y-4397714D01*
X-14744238Y-5111999D02*
X-14696619Y-5016761D01*
X-14696619Y-4826285D01*
X-14744238Y-4731047D01*
X-14839476Y-4683428D01*
X-15220428Y-4683428D01*
X-15315666Y-4731047D01*
X-15363285Y-4826285D01*
X-15363285Y-5016761D01*
X-15315666Y-5111999D01*
X-15220428Y-5159619D01*
X-15125190Y-5159619D01*
X-15029952Y-4683428D01*
X-15363285Y-5588190D02*
X-14696619Y-5588190D01*
X-15268047Y-5588190D02*
X-15315666Y-5635809D01*
X-15363285Y-5731047D01*
X-15363285Y-5873904D01*
X-15315666Y-5969142D01*
X-15220428Y-6016761D01*
X-14696619Y-6016761D01*
X-15363285Y-6492952D02*
X-14696619Y-6492952D01*
X-15268047Y-6492952D02*
X-15315666Y-6540571D01*
X-15363285Y-6635809D01*
X-15363285Y-6778666D01*
X-15315666Y-6873904D01*
X-15220428Y-6921523D01*
X-14696619Y-6921523D01*
X-14696619Y-7826285D02*
X-15220428Y-7826285D01*
X-15315666Y-7778666D01*
X-15363285Y-7683428D01*
X-15363285Y-7492952D01*
X-15315666Y-7397714D01*
X-14744238Y-7826285D02*
X-14696619Y-7731047D01*
X-14696619Y-7492952D01*
X-14744238Y-7397714D01*
X-14839476Y-7350095D01*
X-14934714Y-7350095D01*
X-15029952Y-7397714D01*
X-15077571Y-7492952D01*
X-15077571Y-7731047D01*
X-15125190Y-7826285D01*
X-14982333Y-9016761D02*
X-14982333Y-9492952D01*
X-14696619Y-8921523D02*
X-15696619Y-9254857D01*
X-14696619Y-9588190D01*
X-14696619Y-9921523D02*
X-15363285Y-9921523D01*
X-15172809Y-9921523D02*
X-15268047Y-9969142D01*
X-15315666Y-10016761D01*
X-15363285Y-10112000D01*
X-15363285Y-10207238D01*
X-14744238Y-10921523D02*
X-14696619Y-10826285D01*
X-14696619Y-10635809D01*
X-14744238Y-10540571D01*
X-14839476Y-10492952D01*
X-15220428Y-10492952D01*
X-15315666Y-10540571D01*
X-15363285Y-10635809D01*
X-15363285Y-10826285D01*
X-15315666Y-10921523D01*
X-15220428Y-10969142D01*
X-15125190Y-10969142D01*
X-15029952Y-10492952D01*
X-14696619Y-11826285D02*
X-15220428Y-11826285D01*
X-15315666Y-11778666D01*
X-15363285Y-11683428D01*
X-15363285Y-11492952D01*
X-15315666Y-11397714D01*
X-14744238Y-11826285D02*
X-14696619Y-11731047D01*
X-14696619Y-11492952D01*
X-14744238Y-11397714D01*
X-14839476Y-11350095D01*
X-14934714Y-11350095D01*
X-15029952Y-11397714D01*
X-15077571Y-11492952D01*
X-15077571Y-11731047D01*
X-15125190Y-11826285D01*
%TO.C,J6*%
D14*
X5167333Y2775047D02*
X5167333Y2489333D01*
X5186380Y2432190D01*
X5224476Y2394095D01*
X5281619Y2375047D01*
X5319714Y2375047D01*
X4805428Y2775047D02*
X4881619Y2775047D01*
X4919714Y2756000D01*
X4938761Y2736952D01*
X4976857Y2679809D01*
X4995904Y2603619D01*
X4995904Y2451238D01*
X4976857Y2413142D01*
X4957809Y2394095D01*
X4919714Y2375047D01*
X4843523Y2375047D01*
X4805428Y2394095D01*
X4786380Y2413142D01*
X4767333Y2451238D01*
X4767333Y2546476D01*
X4786380Y2584571D01*
X4805428Y2603619D01*
X4843523Y2622666D01*
X4919714Y2622666D01*
X4957809Y2603619D01*
X4976857Y2584571D01*
X4995904Y2546476D01*
%TO.C,J5*%
X8515333Y-21878952D02*
X8515333Y-22164666D01*
X8534380Y-22221809D01*
X8572476Y-22259904D01*
X8629619Y-22278952D01*
X8667714Y-22278952D01*
X8134380Y-21878952D02*
X8324857Y-21878952D01*
X8343904Y-22069428D01*
X8324857Y-22050380D01*
X8286761Y-22031333D01*
X8191523Y-22031333D01*
X8153428Y-22050380D01*
X8134380Y-22069428D01*
X8115333Y-22107523D01*
X8115333Y-22202761D01*
X8134380Y-22240857D01*
X8153428Y-22259904D01*
X8191523Y-22278952D01*
X8286761Y-22278952D01*
X8324857Y-22259904D01*
X8343904Y-22240857D01*
%TO.C,J4*%
X11099333Y-15868952D02*
X11099333Y-16154666D01*
X11118380Y-16211809D01*
X11156476Y-16249904D01*
X11213619Y-16268952D01*
X11251714Y-16268952D01*
X10737428Y-16002285D02*
X10737428Y-16268952D01*
X10832666Y-15849904D02*
X10927904Y-16135619D01*
X10680285Y-16135619D01*
%TO.C,D2*%
X-8150261Y2486047D02*
X-8150261Y2886047D01*
X-8245500Y2886047D01*
X-8302642Y2867000D01*
X-8340738Y2828904D01*
X-8359785Y2790809D01*
X-8378833Y2714619D01*
X-8378833Y2657476D01*
X-8359785Y2581285D01*
X-8340738Y2543190D01*
X-8302642Y2505095D01*
X-8245500Y2486047D01*
X-8150261Y2486047D01*
X-8531214Y2847952D02*
X-8550261Y2867000D01*
X-8588357Y2886047D01*
X-8683595Y2886047D01*
X-8721690Y2867000D01*
X-8740738Y2847952D01*
X-8759785Y2809857D01*
X-8759785Y2771761D01*
X-8740738Y2714619D01*
X-8512166Y2486047D01*
X-8759785Y2486047D01*
%TO.C,R5*%
X-8582047Y5527666D02*
X-8772523Y5661000D01*
X-8582047Y5756238D02*
X-8982047Y5756238D01*
X-8982047Y5603857D01*
X-8963000Y5565761D01*
X-8943952Y5546714D01*
X-8905857Y5527666D01*
X-8848714Y5527666D01*
X-8810619Y5546714D01*
X-8791571Y5565761D01*
X-8772523Y5603857D01*
X-8772523Y5756238D01*
X-8982047Y5165761D02*
X-8982047Y5356238D01*
X-8791571Y5375285D01*
X-8810619Y5356238D01*
X-8829666Y5318142D01*
X-8829666Y5222904D01*
X-8810619Y5184809D01*
X-8791571Y5165761D01*
X-8753476Y5146714D01*
X-8658238Y5146714D01*
X-8620142Y5165761D01*
X-8601095Y5184809D01*
X-8582047Y5222904D01*
X-8582047Y5318142D01*
X-8601095Y5356238D01*
X-8620142Y5375285D01*
%TO.C,C1*%
X14163666Y15605142D02*
X14182714Y15586095D01*
X14239857Y15567047D01*
X14277952Y15567047D01*
X14335095Y15586095D01*
X14373190Y15624190D01*
X14392238Y15662285D01*
X14411285Y15738476D01*
X14411285Y15795619D01*
X14392238Y15871809D01*
X14373190Y15909904D01*
X14335095Y15948000D01*
X14277952Y15967047D01*
X14239857Y15967047D01*
X14182714Y15948000D01*
X14163666Y15928952D01*
X13782714Y15567047D02*
X14011285Y15567047D01*
X13897000Y15567047D02*
X13897000Y15967047D01*
X13935095Y15909904D01*
X13973190Y15871809D01*
X14011285Y15852761D01*
%TO.C,R3*%
X14163666Y8328047D02*
X14297000Y8518523D01*
X14392238Y8328047D02*
X14392238Y8728047D01*
X14239857Y8728047D01*
X14201761Y8709000D01*
X14182714Y8689952D01*
X14163666Y8651857D01*
X14163666Y8594714D01*
X14182714Y8556619D01*
X14201761Y8537571D01*
X14239857Y8518523D01*
X14392238Y8518523D01*
X14030333Y8728047D02*
X13782714Y8728047D01*
X13916047Y8575666D01*
X13858904Y8575666D01*
X13820809Y8556619D01*
X13801761Y8537571D01*
X13782714Y8499476D01*
X13782714Y8404238D01*
X13801761Y8366142D01*
X13820809Y8347095D01*
X13858904Y8328047D01*
X13973190Y8328047D01*
X14011285Y8347095D01*
X14030333Y8366142D01*
%TO.C,J1*%
X-14725666Y4029047D02*
X-14725666Y3743333D01*
X-14706619Y3686190D01*
X-14668523Y3648095D01*
X-14611380Y3629047D01*
X-14573285Y3629047D01*
X-15125666Y3629047D02*
X-14897095Y3629047D01*
X-15011380Y3629047D02*
X-15011380Y4029047D01*
X-14973285Y3971904D01*
X-14935190Y3933809D01*
X-14897095Y3914761D01*
%TO.C,U3*%
X-393738Y3709047D02*
X-393738Y3385238D01*
X-412785Y3347142D01*
X-431833Y3328095D01*
X-469928Y3309047D01*
X-546119Y3309047D01*
X-584214Y3328095D01*
X-603261Y3347142D01*
X-622309Y3385238D01*
X-622309Y3709047D01*
X-774690Y3709047D02*
X-1022309Y3709047D01*
X-888976Y3556666D01*
X-946119Y3556666D01*
X-984214Y3537619D01*
X-1003261Y3518571D01*
X-1022309Y3480476D01*
X-1022309Y3385238D01*
X-1003261Y3347142D01*
X-984214Y3328095D01*
X-946119Y3309047D01*
X-831833Y3309047D01*
X-793738Y3328095D01*
X-774690Y3347142D01*
%TO.C,D3*%
X10150452Y2454238D02*
X9750452Y2454238D01*
X9750452Y2359000D01*
X9769500Y2301857D01*
X9807595Y2263761D01*
X9845690Y2244714D01*
X9921880Y2225666D01*
X9979023Y2225666D01*
X10055214Y2244714D01*
X10093309Y2263761D01*
X10131404Y2301857D01*
X10150452Y2359000D01*
X10150452Y2454238D01*
X9750452Y2092333D02*
X9750452Y1844714D01*
X9902833Y1978047D01*
X9902833Y1920904D01*
X9921880Y1882809D01*
X9940928Y1863761D01*
X9979023Y1844714D01*
X10074261Y1844714D01*
X10112357Y1863761D01*
X10131404Y1882809D01*
X10150452Y1920904D01*
X10150452Y2035190D01*
X10131404Y2073285D01*
X10112357Y2092333D01*
%TO.C,J2*%
X958833Y-21942452D02*
X958833Y-22228166D01*
X977880Y-22285309D01*
X1015976Y-22323404D01*
X1073119Y-22342452D01*
X1111214Y-22342452D01*
X787404Y-21980547D02*
X768357Y-21961500D01*
X730261Y-21942452D01*
X635023Y-21942452D01*
X596928Y-21961500D01*
X577880Y-21980547D01*
X558833Y-22018642D01*
X558833Y-22056738D01*
X577880Y-22113880D01*
X806452Y-22342452D01*
X558833Y-22342452D01*
%TO.C,SW2*%
X17551333Y16030595D02*
X17494190Y16011547D01*
X17398952Y16011547D01*
X17360857Y16030595D01*
X17341809Y16049642D01*
X17322761Y16087738D01*
X17322761Y16125833D01*
X17341809Y16163928D01*
X17360857Y16182976D01*
X17398952Y16202023D01*
X17475142Y16221071D01*
X17513238Y16240119D01*
X17532285Y16259166D01*
X17551333Y16297261D01*
X17551333Y16335357D01*
X17532285Y16373452D01*
X17513238Y16392500D01*
X17475142Y16411547D01*
X17379904Y16411547D01*
X17322761Y16392500D01*
X17189428Y16411547D02*
X17094190Y16011547D01*
X17018000Y16297261D01*
X16941809Y16011547D01*
X16846571Y16411547D01*
X16713238Y16373452D02*
X16694190Y16392500D01*
X16656095Y16411547D01*
X16560857Y16411547D01*
X16522761Y16392500D01*
X16503714Y16373452D01*
X16484666Y16335357D01*
X16484666Y16297261D01*
X16503714Y16240119D01*
X16732285Y16011547D01*
X16484666Y16011547D01*
%TO.C,SW1*%
X17678333Y-8353404D02*
X17621190Y-8372452D01*
X17525952Y-8372452D01*
X17487857Y-8353404D01*
X17468809Y-8334357D01*
X17449761Y-8296261D01*
X17449761Y-8258166D01*
X17468809Y-8220071D01*
X17487857Y-8201023D01*
X17525952Y-8181976D01*
X17602142Y-8162928D01*
X17640238Y-8143880D01*
X17659285Y-8124833D01*
X17678333Y-8086738D01*
X17678333Y-8048642D01*
X17659285Y-8010547D01*
X17640238Y-7991500D01*
X17602142Y-7972452D01*
X17506904Y-7972452D01*
X17449761Y-7991500D01*
X17316428Y-7972452D02*
X17221190Y-8372452D01*
X17145000Y-8086738D01*
X17068809Y-8372452D01*
X16973571Y-7972452D01*
X16611666Y-8372452D02*
X16840238Y-8372452D01*
X16725952Y-8372452D02*
X16725952Y-7972452D01*
X16764047Y-8029595D01*
X16802142Y-8067690D01*
X16840238Y-8086738D01*
%TO.C,R2*%
X-13268333Y14360547D02*
X-13135000Y14551023D01*
X-13039761Y14360547D02*
X-13039761Y14760547D01*
X-13192142Y14760547D01*
X-13230238Y14741500D01*
X-13249285Y14722452D01*
X-13268333Y14684357D01*
X-13268333Y14627214D01*
X-13249285Y14589119D01*
X-13230238Y14570071D01*
X-13192142Y14551023D01*
X-13039761Y14551023D01*
X-13420714Y14722452D02*
X-13439761Y14741500D01*
X-13477857Y14760547D01*
X-13573095Y14760547D01*
X-13611190Y14741500D01*
X-13630238Y14722452D01*
X-13649285Y14684357D01*
X-13649285Y14646261D01*
X-13630238Y14589119D01*
X-13401666Y14360547D01*
X-13649285Y14360547D01*
%TO.C,R1*%
X-16697333Y14360547D02*
X-16564000Y14551023D01*
X-16468761Y14360547D02*
X-16468761Y14760547D01*
X-16621142Y14760547D01*
X-16659238Y14741500D01*
X-16678285Y14722452D01*
X-16697333Y14684357D01*
X-16697333Y14627214D01*
X-16678285Y14589119D01*
X-16659238Y14570071D01*
X-16621142Y14551023D01*
X-16468761Y14551023D01*
X-17078285Y14360547D02*
X-16849714Y14360547D01*
X-16964000Y14360547D02*
X-16964000Y14760547D01*
X-16925904Y14703404D01*
X-16887809Y14665309D01*
X-16849714Y14646261D01*
%TO.C,R9*%
X-4498952Y7489833D02*
X-4308476Y7356500D01*
X-4498952Y7261261D02*
X-4098952Y7261261D01*
X-4098952Y7413642D01*
X-4118000Y7451738D01*
X-4137047Y7470785D01*
X-4175142Y7489833D01*
X-4232285Y7489833D01*
X-4270380Y7470785D01*
X-4289428Y7451738D01*
X-4308476Y7413642D01*
X-4308476Y7261261D01*
X-4498952Y7680309D02*
X-4498952Y7756500D01*
X-4479904Y7794595D01*
X-4460857Y7813642D01*
X-4403714Y7851738D01*
X-4327523Y7870785D01*
X-4175142Y7870785D01*
X-4137047Y7851738D01*
X-4118000Y7832690D01*
X-4098952Y7794595D01*
X-4098952Y7718404D01*
X-4118000Y7680309D01*
X-4137047Y7661261D01*
X-4175142Y7642214D01*
X-4270380Y7642214D01*
X-4308476Y7661261D01*
X-4327523Y7680309D01*
X-4346571Y7718404D01*
X-4346571Y7794595D01*
X-4327523Y7832690D01*
X-4308476Y7851738D01*
X-4270380Y7870785D01*
%TO.C,C7*%
X-7108833Y4746642D02*
X-7089785Y4727595D01*
X-7032642Y4708547D01*
X-6994547Y4708547D01*
X-6937404Y4727595D01*
X-6899309Y4765690D01*
X-6880261Y4803785D01*
X-6861214Y4879976D01*
X-6861214Y4937119D01*
X-6880261Y5013309D01*
X-6899309Y5051404D01*
X-6937404Y5089500D01*
X-6994547Y5108547D01*
X-7032642Y5108547D01*
X-7089785Y5089500D01*
X-7108833Y5070452D01*
X-7242166Y5108547D02*
X-7508833Y5108547D01*
X-7337404Y4708547D01*
%TO.C,R4*%
X-4441833Y6613547D02*
X-4308500Y6804023D01*
X-4213261Y6613547D02*
X-4213261Y7013547D01*
X-4365642Y7013547D01*
X-4403738Y6994500D01*
X-4422785Y6975452D01*
X-4441833Y6937357D01*
X-4441833Y6880214D01*
X-4422785Y6842119D01*
X-4403738Y6823071D01*
X-4365642Y6804023D01*
X-4213261Y6804023D01*
X-4784690Y6880214D02*
X-4784690Y6613547D01*
X-4689452Y7032595D02*
X-4594214Y6746880D01*
X-4841833Y6746880D01*
%TO.C,C4*%
X-8207357Y4378333D02*
X-8226404Y4359285D01*
X-8245452Y4302142D01*
X-8245452Y4264047D01*
X-8226404Y4206904D01*
X-8188309Y4168809D01*
X-8150214Y4149761D01*
X-8074023Y4130714D01*
X-8016880Y4130714D01*
X-7940690Y4149761D01*
X-7902595Y4168809D01*
X-7864500Y4206904D01*
X-7845452Y4264047D01*
X-7845452Y4302142D01*
X-7864500Y4359285D01*
X-7883547Y4378333D01*
X-7978785Y4721190D02*
X-8245452Y4721190D01*
X-7826404Y4625952D02*
X-8112119Y4530714D01*
X-8112119Y4778333D01*
%TO.C,C10*%
X9083642Y8429642D02*
X9102690Y8410595D01*
X9159833Y8391547D01*
X9197928Y8391547D01*
X9255071Y8410595D01*
X9293166Y8448690D01*
X9312214Y8486785D01*
X9331261Y8562976D01*
X9331261Y8620119D01*
X9312214Y8696309D01*
X9293166Y8734404D01*
X9255071Y8772500D01*
X9197928Y8791547D01*
X9159833Y8791547D01*
X9102690Y8772500D01*
X9083642Y8753452D01*
X8702690Y8391547D02*
X8931261Y8391547D01*
X8816976Y8391547D02*
X8816976Y8791547D01*
X8855071Y8734404D01*
X8893166Y8696309D01*
X8931261Y8677261D01*
X8455071Y8791547D02*
X8416976Y8791547D01*
X8378880Y8772500D01*
X8359833Y8753452D01*
X8340785Y8715357D01*
X8321738Y8639166D01*
X8321738Y8543928D01*
X8340785Y8467738D01*
X8359833Y8429642D01*
X8378880Y8410595D01*
X8416976Y8391547D01*
X8455071Y8391547D01*
X8493166Y8410595D01*
X8512214Y8429642D01*
X8531261Y8467738D01*
X8550309Y8543928D01*
X8550309Y8639166D01*
X8531261Y8715357D01*
X8512214Y8753452D01*
X8493166Y8772500D01*
X8455071Y8791547D01*
%TO.C,C9*%
X10683866Y8442342D02*
X10702914Y8423295D01*
X10760057Y8404247D01*
X10798152Y8404247D01*
X10855295Y8423295D01*
X10893390Y8461390D01*
X10912438Y8499485D01*
X10931485Y8575676D01*
X10931485Y8632819D01*
X10912438Y8709009D01*
X10893390Y8747104D01*
X10855295Y8785200D01*
X10798152Y8804247D01*
X10760057Y8804247D01*
X10702914Y8785200D01*
X10683866Y8766152D01*
X10493390Y8404247D02*
X10417200Y8404247D01*
X10379104Y8423295D01*
X10360057Y8442342D01*
X10321961Y8499485D01*
X10302914Y8575676D01*
X10302914Y8728057D01*
X10321961Y8766152D01*
X10341009Y8785200D01*
X10379104Y8804247D01*
X10455295Y8804247D01*
X10493390Y8785200D01*
X10512438Y8766152D01*
X10531485Y8728057D01*
X10531485Y8632819D01*
X10512438Y8594723D01*
X10493390Y8575676D01*
X10455295Y8556628D01*
X10379104Y8556628D01*
X10341009Y8575676D01*
X10321961Y8594723D01*
X10302914Y8632819D01*
%TO.C,C5*%
X5235566Y8366142D02*
X5254614Y8347095D01*
X5311757Y8328047D01*
X5349852Y8328047D01*
X5406995Y8347095D01*
X5445090Y8385190D01*
X5464138Y8423285D01*
X5483185Y8499476D01*
X5483185Y8556619D01*
X5464138Y8632809D01*
X5445090Y8670904D01*
X5406995Y8709000D01*
X5349852Y8728047D01*
X5311757Y8728047D01*
X5254614Y8709000D01*
X5235566Y8689952D01*
X4873661Y8728047D02*
X5064138Y8728047D01*
X5083185Y8537571D01*
X5064138Y8556619D01*
X5026042Y8575666D01*
X4930804Y8575666D01*
X4892709Y8556619D01*
X4873661Y8537571D01*
X4854614Y8499476D01*
X4854614Y8404238D01*
X4873661Y8366142D01*
X4892709Y8347095D01*
X4930804Y8328047D01*
X5026042Y8328047D01*
X5064138Y8347095D01*
X5083185Y8366142D01*
%TO.C,C11*%
X-4460857Y5775357D02*
X-4479904Y5756309D01*
X-4498952Y5699166D01*
X-4498952Y5661071D01*
X-4479904Y5603928D01*
X-4441809Y5565833D01*
X-4403714Y5546785D01*
X-4327523Y5527738D01*
X-4270380Y5527738D01*
X-4194190Y5546785D01*
X-4156095Y5565833D01*
X-4118000Y5603928D01*
X-4098952Y5661071D01*
X-4098952Y5699166D01*
X-4118000Y5756309D01*
X-4137047Y5775357D01*
X-4498952Y6156309D02*
X-4498952Y5927738D01*
X-4498952Y6042023D02*
X-4098952Y6042023D01*
X-4156095Y6003928D01*
X-4194190Y5965833D01*
X-4213238Y5927738D01*
X-4498952Y6537261D02*
X-4498952Y6308690D01*
X-4498952Y6422976D02*
X-4098952Y6422976D01*
X-4156095Y6384880D01*
X-4194190Y6346785D01*
X-4213238Y6308690D01*
%TO.C,C6*%
X6810366Y8429642D02*
X6829414Y8410595D01*
X6886557Y8391547D01*
X6924652Y8391547D01*
X6981795Y8410595D01*
X7019890Y8448690D01*
X7038938Y8486785D01*
X7057985Y8562976D01*
X7057985Y8620119D01*
X7038938Y8696309D01*
X7019890Y8734404D01*
X6981795Y8772500D01*
X6924652Y8791547D01*
X6886557Y8791547D01*
X6829414Y8772500D01*
X6810366Y8753452D01*
X6467509Y8791547D02*
X6543700Y8791547D01*
X6581795Y8772500D01*
X6600842Y8753452D01*
X6638938Y8696309D01*
X6657985Y8620119D01*
X6657985Y8467738D01*
X6638938Y8429642D01*
X6619890Y8410595D01*
X6581795Y8391547D01*
X6505604Y8391547D01*
X6467509Y8410595D01*
X6448461Y8429642D01*
X6429414Y8467738D01*
X6429414Y8562976D01*
X6448461Y8601071D01*
X6467509Y8620119D01*
X6505604Y8639166D01*
X6581795Y8639166D01*
X6619890Y8620119D01*
X6638938Y8601071D01*
X6657985Y8562976D01*
%TO.C,C3*%
X574666Y1317642D02*
X593714Y1298595D01*
X650857Y1279547D01*
X688952Y1279547D01*
X746095Y1298595D01*
X784190Y1336690D01*
X803238Y1374785D01*
X822285Y1450976D01*
X822285Y1508119D01*
X803238Y1584309D01*
X784190Y1622404D01*
X746095Y1660500D01*
X688952Y1679547D01*
X650857Y1679547D01*
X593714Y1660500D01*
X574666Y1641452D01*
X441333Y1679547D02*
X193714Y1679547D01*
X327047Y1527166D01*
X269904Y1527166D01*
X231809Y1508119D01*
X212761Y1489071D01*
X193714Y1450976D01*
X193714Y1355738D01*
X212761Y1317642D01*
X231809Y1298595D01*
X269904Y1279547D01*
X384190Y1279547D01*
X422285Y1298595D01*
X441333Y1317642D01*
%TO.C,R6*%
X3622666Y8342647D02*
X3756000Y8533123D01*
X3851238Y8342647D02*
X3851238Y8742647D01*
X3698857Y8742647D01*
X3660761Y8723600D01*
X3641714Y8704552D01*
X3622666Y8666457D01*
X3622666Y8609314D01*
X3641714Y8571219D01*
X3660761Y8552171D01*
X3698857Y8533123D01*
X3851238Y8533123D01*
X3279809Y8742647D02*
X3356000Y8742647D01*
X3394095Y8723600D01*
X3413142Y8704552D01*
X3451238Y8647409D01*
X3470285Y8571219D01*
X3470285Y8418838D01*
X3451238Y8380742D01*
X3432190Y8361695D01*
X3394095Y8342647D01*
X3317904Y8342647D01*
X3279809Y8361695D01*
X3260761Y8380742D01*
X3241714Y8418838D01*
X3241714Y8514076D01*
X3260761Y8552171D01*
X3279809Y8571219D01*
X3317904Y8590266D01*
X3394095Y8590266D01*
X3432190Y8571219D01*
X3451238Y8552171D01*
X3470285Y8514076D01*
%TO.C,R7*%
X2162166Y8391547D02*
X2295500Y8582023D01*
X2390738Y8391547D02*
X2390738Y8791547D01*
X2238357Y8791547D01*
X2200261Y8772500D01*
X2181214Y8753452D01*
X2162166Y8715357D01*
X2162166Y8658214D01*
X2181214Y8620119D01*
X2200261Y8601071D01*
X2238357Y8582023D01*
X2390738Y8582023D01*
X2028833Y8791547D02*
X1762166Y8791547D01*
X1933595Y8391547D01*
%TO.C,R8*%
X574666Y8391547D02*
X708000Y8582023D01*
X803238Y8391547D02*
X803238Y8791547D01*
X650857Y8791547D01*
X612761Y8772500D01*
X593714Y8753452D01*
X574666Y8715357D01*
X574666Y8658214D01*
X593714Y8620119D01*
X612761Y8601071D01*
X650857Y8582023D01*
X803238Y8582023D01*
X346095Y8620119D02*
X384190Y8639166D01*
X403238Y8658214D01*
X422285Y8696309D01*
X422285Y8715357D01*
X403238Y8753452D01*
X384190Y8772500D01*
X346095Y8791547D01*
X269904Y8791547D01*
X231809Y8772500D01*
X212761Y8753452D01*
X193714Y8715357D01*
X193714Y8696309D01*
X212761Y8658214D01*
X231809Y8639166D01*
X269904Y8620119D01*
X346095Y8620119D01*
X384190Y8601071D01*
X403238Y8582023D01*
X422285Y8543928D01*
X422285Y8467738D01*
X403238Y8429642D01*
X384190Y8410595D01*
X346095Y8391547D01*
X269904Y8391547D01*
X231809Y8410595D01*
X212761Y8429642D01*
X193714Y8467738D01*
X193714Y8543928D01*
X212761Y8582023D01*
X231809Y8601071D01*
X269904Y8620119D01*
%TO.C,C8*%
X-8696333Y8556642D02*
X-8677285Y8537595D01*
X-8620142Y8518547D01*
X-8582047Y8518547D01*
X-8524904Y8537595D01*
X-8486809Y8575690D01*
X-8467761Y8613785D01*
X-8448714Y8689976D01*
X-8448714Y8747119D01*
X-8467761Y8823309D01*
X-8486809Y8861404D01*
X-8524904Y8899500D01*
X-8582047Y8918547D01*
X-8620142Y8918547D01*
X-8677285Y8899500D01*
X-8696333Y8880452D01*
X-8924904Y8747119D02*
X-8886809Y8766166D01*
X-8867761Y8785214D01*
X-8848714Y8823309D01*
X-8848714Y8842357D01*
X-8867761Y8880452D01*
X-8886809Y8899500D01*
X-8924904Y8918547D01*
X-9001095Y8918547D01*
X-9039190Y8899500D01*
X-9058238Y8880452D01*
X-9077285Y8842357D01*
X-9077285Y8823309D01*
X-9058238Y8785214D01*
X-9039190Y8766166D01*
X-9001095Y8747119D01*
X-8924904Y8747119D01*
X-8886809Y8728071D01*
X-8867761Y8709023D01*
X-8848714Y8670928D01*
X-8848714Y8594738D01*
X-8867761Y8556642D01*
X-8886809Y8537595D01*
X-8924904Y8518547D01*
X-9001095Y8518547D01*
X-9039190Y8537595D01*
X-9058238Y8556642D01*
X-9077285Y8594738D01*
X-9077285Y8670928D01*
X-9058238Y8709023D01*
X-9039190Y8728071D01*
X-9001095Y8747119D01*
%TD*%
M02*
